<svg width="640" height="143" viewBox="0 0 640 143" fill="none" xmlns="http://www.w3.org/2000/svg">
<g id="Date Input">
<g id="Label and Hint">
<path id="Label text" d="M9.75977 17.5435V19H3.00586V17.5435H9.75977ZM3.3584 5.49219V19H1.56787V5.49219H3.3584ZM17.4692 17.2837V12.1162C17.4692 11.7204 17.3888 11.3771 17.228 11.0864C17.0734 10.7896 16.8384 10.5607 16.5229 10.3999C16.2075 10.2391 15.8179 10.1587 15.354 10.1587C14.9211 10.1587 14.5407 10.2329 14.2129 10.3813C13.8913 10.5298 13.6377 10.7246 13.4521 10.9658C13.2728 11.207 13.1831 11.4668 13.1831 11.7451H11.4668C11.4668 11.3864 11.5596 11.0308 11.7451 10.6782C11.9307 10.3257 12.1966 10.0072 12.543 9.72266C12.8955 9.43197 13.3161 9.20312 13.8047 9.03613C14.2995 8.86296 14.8499 8.77637 15.4561 8.77637C16.1859 8.77637 16.8291 8.90007 17.3857 9.14746C17.9486 9.39486 18.3877 9.76904 18.7031 10.27C19.0247 10.7648 19.1855 11.3864 19.1855 12.1348V16.8105C19.1855 17.1445 19.2134 17.5002 19.269 17.8774C19.3309 18.2547 19.4206 18.5794 19.5381 18.8516V19H17.7476C17.661 18.8021 17.5929 18.5392 17.5435 18.2114C17.494 17.8774 17.4692 17.5682 17.4692 17.2837ZM17.7661 12.9141L17.7847 14.1201H16.0498C15.5612 14.1201 15.1252 14.1603 14.7417 14.2407C14.3582 14.3149 14.0366 14.4294 13.7769 14.584C13.5171 14.7386 13.3192 14.9334 13.1831 15.1685C13.047 15.3973 12.979 15.6663 12.979 15.9756C12.979 16.291 13.0501 16.5786 13.1924 16.8384C13.3346 17.0981 13.548 17.3053 13.8325 17.46C14.1232 17.6084 14.4788 17.6826 14.8994 17.6826C15.4251 17.6826 15.889 17.5713 16.291 17.3486C16.693 17.126 17.0116 16.8538 17.2466 16.5322C17.4878 16.2106 17.6177 15.8983 17.6362 15.5952L18.3691 16.4209C18.3258 16.6807 18.2083 16.9683 18.0166 17.2837C17.8249 17.5991 17.5682 17.9022 17.2466 18.1929C16.9312 18.4774 16.5539 18.7155 16.1147 18.9072C15.6818 19.0928 15.1932 19.1855 14.6489 19.1855C13.9686 19.1855 13.3717 19.0526 12.8584 18.7866C12.3512 18.5207 11.9554 18.165 11.6709 17.7197C11.3926 17.2682 11.2534 16.7642 11.2534 16.2075C11.2534 15.6694 11.3586 15.1963 11.5688 14.7881C11.7791 14.3737 12.0822 14.0304 12.478 13.7583C12.8739 13.48 13.3501 13.2697 13.9067 13.1274C14.4634 12.9852 15.085 12.9141 15.7715 12.9141H17.7661ZM21.876 4.75H23.6016V17.0518L23.4531 19H21.876V4.75ZM30.3833 13.8975V14.0923C30.3833 14.8221 30.2967 15.4993 30.1235 16.124C29.9504 16.7425 29.6968 17.2806 29.3628 17.7383C29.0288 18.196 28.6206 18.5516 28.1382 18.8052C27.6558 19.0588 27.1022 19.1855 26.4775 19.1855C25.8405 19.1855 25.2808 19.0773 24.7983 18.8608C24.3221 18.6382 23.9201 18.3197 23.5923 17.9053C23.2645 17.4909 23.0016 16.9899 22.8037 16.4023C22.612 15.8148 22.479 15.153 22.4048 14.417V13.5635C22.479 12.8213 22.612 12.1564 22.8037 11.5688C23.0016 10.9813 23.2645 10.4803 23.5923 10.0659C23.9201 9.64535 24.3221 9.32682 24.7983 9.11035C25.2746 8.8877 25.8281 8.77637 26.459 8.77637C27.0898 8.77637 27.6496 8.90007 28.1382 9.14746C28.6268 9.38867 29.035 9.73503 29.3628 10.1865C29.6968 10.638 29.9504 11.1792 30.1235 11.8101C30.2967 12.4347 30.3833 13.1305 30.3833 13.8975ZM28.6577 14.0923V13.8975C28.6577 13.3965 28.6113 12.9264 28.5186 12.4873C28.4258 12.042 28.2773 11.6523 28.0732 11.3184C27.8691 10.9782 27.6001 10.7122 27.2661 10.5205C26.9321 10.3226 26.5208 10.2236 26.0322 10.2236C25.5993 10.2236 25.222 10.2979 24.9004 10.4463C24.585 10.5947 24.3159 10.7957 24.0933 11.0493C23.8706 11.2967 23.6882 11.5812 23.5459 11.9028C23.4098 12.2183 23.3078 12.5461 23.2397 12.8862V15.1221C23.3387 15.555 23.4995 15.9725 23.7222 16.3745C23.951 16.7703 24.2541 17.0951 24.6313 17.3486C25.0148 17.6022 25.488 17.729 26.0508 17.729C26.5146 17.729 26.9105 17.6362 27.2383 17.4507C27.5723 17.259 27.8413 16.9961 28.0454 16.6621C28.2557 16.3281 28.4103 15.9416 28.5093 15.5024C28.6082 15.0633 28.6577 14.5933 28.6577 14.0923ZM36.7197 19.1855C36.0208 19.1855 35.3869 19.068 34.8179 18.833C34.255 18.5918 33.7695 18.2547 33.3613 17.8218C32.9593 17.3888 32.6501 16.8755 32.4336 16.2817C32.2171 15.688 32.1089 15.0386 32.1089 14.3335V13.9438C32.1089 13.1274 32.2295 12.4007 32.4707 11.7637C32.7119 11.1204 33.0397 10.5762 33.4541 10.1309C33.8685 9.68555 34.3385 9.34847 34.8643 9.11963C35.39 8.89079 35.9342 8.77637 36.4971 8.77637C37.2145 8.77637 37.833 8.90007 38.3525 9.14746C38.8783 9.39486 39.3081 9.74121 39.6421 10.1865C39.9761 10.6257 40.2235 11.1452 40.3843 11.7451C40.5451 12.3389 40.6255 12.9883 40.6255 13.6934V14.4634H33.1294V13.0625H38.9092V12.9326C38.8844 12.4873 38.7917 12.0544 38.6309 11.6338C38.4762 11.2132 38.2288 10.8669 37.8887 10.5947C37.5485 10.3226 37.0846 10.1865 36.4971 10.1865C36.1074 10.1865 35.7487 10.27 35.4209 10.437C35.0931 10.5978 34.8117 10.839 34.5767 11.1606C34.3416 11.4823 34.1592 11.875 34.0293 12.3389C33.8994 12.8027 33.8345 13.3377 33.8345 13.9438V14.3335C33.8345 14.8097 33.8994 15.2581 34.0293 15.6787C34.1654 16.0931 34.3602 16.458 34.6138 16.7734C34.8735 17.0889 35.1859 17.3363 35.5508 17.5156C35.9219 17.695 36.3424 17.7847 36.8125 17.7847C37.4186 17.7847 37.932 17.661 38.3525 17.4136C38.7731 17.1662 39.1411 16.8353 39.4565 16.4209L40.4956 17.2466C40.2791 17.5744 40.0039 17.8867 39.6699 18.1836C39.3359 18.4805 38.9246 18.7217 38.436 18.9072C37.9536 19.0928 37.3815 19.1855 36.7197 19.1855ZM44.4941 4.75V19H42.7686V4.75H44.4941ZM56.165 8.96191V10.2793H50.7378V8.96191H56.165ZM52.5747 6.52197H54.291V16.5137C54.291 16.8538 54.3436 17.1105 54.4487 17.2837C54.5539 17.4569 54.6899 17.5713 54.8569 17.627C55.0239 17.6826 55.2033 17.7104 55.395 17.7104C55.5373 17.7104 55.6857 17.6981 55.8403 17.6733C56.0011 17.6424 56.1217 17.6177 56.2021 17.5991L56.2114 19C56.0754 19.0433 55.896 19.0835 55.6733 19.1206C55.4569 19.1639 55.194 19.1855 54.8848 19.1855C54.4642 19.1855 54.0776 19.1021 53.7251 18.9351C53.3726 18.7681 53.0911 18.4897 52.8809 18.1001C52.6768 17.7043 52.5747 17.1724 52.5747 16.5044V6.52197ZM62.3438 19.1855C61.6449 19.1855 61.0109 19.068 60.4419 18.833C59.8791 18.5918 59.3936 18.2547 58.9854 17.8218C58.5833 17.3888 58.2741 16.8755 58.0576 16.2817C57.8411 15.688 57.7329 15.0386 57.7329 14.3335V13.9438C57.7329 13.1274 57.8535 12.4007 58.0947 11.7637C58.3359 11.1204 58.6637 10.5762 59.0781 10.1309C59.4925 9.68555 59.9626 9.34847 60.4883 9.11963C61.014 8.89079 61.5583 8.77637 62.1211 8.77637C62.8385 8.77637 63.457 8.90007 63.9766 9.14746C64.5023 9.39486 64.9321 9.74121 65.2661 10.1865C65.6001 10.6257 65.8475 11.1452 66.0083 11.7451C66.1691 12.3389 66.2495 12.9883 66.2495 13.6934V14.4634H58.7534V13.0625H64.5332V12.9326C64.5085 12.4873 64.4157 12.0544 64.2549 11.6338C64.1003 11.2132 63.8529 10.8669 63.5127 10.5947C63.1725 10.3226 62.7087 10.1865 62.1211 10.1865C61.7314 10.1865 61.3727 10.27 61.0449 10.437C60.7171 10.5978 60.4357 10.839 60.2007 11.1606C59.9657 11.4823 59.7832 11.875 59.6533 12.3389C59.5234 12.8027 59.4585 13.3377 59.4585 13.9438V14.3335C59.4585 14.8097 59.5234 15.2581 59.6533 15.6787C59.7894 16.0931 59.9842 16.458 60.2378 16.7734C60.4976 17.0889 60.8099 17.3363 61.1748 17.5156C61.5459 17.695 61.9665 17.7847 62.4365 17.7847C63.0426 17.7847 63.556 17.661 63.9766 17.4136C64.3971 17.1662 64.7651 16.8353 65.0806 16.4209L66.1196 17.2466C65.9032 17.5744 65.6279 17.8867 65.2939 18.1836C64.96 18.4805 64.5487 18.7217 64.0601 18.9072C63.5776 19.0928 63.0055 19.1855 62.3438 19.1855ZM69.4131 8.96191L71.6118 12.6172L73.8384 8.96191H75.8516L72.5674 13.916L75.9536 19H73.9683L71.6489 15.2334L69.3296 19H67.335L70.7119 13.916L67.437 8.96191H69.4131ZM81.8818 8.96191V10.2793H76.4546V8.96191H81.8818ZM78.2915 6.52197H80.0078V16.5137C80.0078 16.8538 80.0604 17.1105 80.1655 17.2837C80.2707 17.4569 80.4067 17.5713 80.5737 17.627C80.7407 17.6826 80.9201 17.7104 81.1118 17.7104C81.2541 17.7104 81.4025 17.6981 81.5571 17.6733C81.7179 17.6424 81.8385 17.6177 81.9189 17.5991L81.9282 19C81.7922 19.0433 81.6128 19.0835 81.3901 19.1206C81.1737 19.1639 80.9108 19.1855 80.6016 19.1855C80.181 19.1855 79.7944 19.1021 79.4419 18.9351C79.0894 18.7681 78.8079 18.4897 78.5977 18.1001C78.3936 17.7043 78.2915 17.1724 78.2915 16.5044V6.52197Z" fill="#211D1C"/>
<path id="Hint Text" d="M8.75 41.5156V42.7422H2.59375V41.5156H8.75ZM2.82812 36.625V48H1.32031V36.625H2.82812ZM10.0625 36.625V48H8.5625V36.625H10.0625ZM14.0938 39.5469V48H12.6406V39.5469H14.0938ZM12.5312 37.3047C12.5312 37.0703 12.6016 36.8724 12.7422 36.7109C12.888 36.5495 13.1016 36.4688 13.3828 36.4688C13.6589 36.4688 13.8698 36.5495 14.0156 36.7109C14.1667 36.8724 14.2422 37.0703 14.2422 37.3047C14.2422 37.5286 14.1667 37.7214 14.0156 37.8828C13.8698 38.0391 13.6589 38.1172 13.3828 38.1172C13.1016 38.1172 12.888 38.0391 12.7422 37.8828C12.6016 37.7214 12.5312 37.5286 12.5312 37.3047ZM17.8594 41.3516V48H16.4141V39.5469H17.7812L17.8594 41.3516ZM17.5156 43.4531L16.9141 43.4297C16.9193 42.8516 17.0052 42.3177 17.1719 41.8281C17.3385 41.3333 17.5729 40.9036 17.875 40.5391C18.1771 40.1745 18.5365 39.8932 18.9531 39.6953C19.375 39.4922 19.8411 39.3906 20.3516 39.3906C20.7682 39.3906 21.1432 39.4479 21.4766 39.5625C21.8099 39.6719 22.0938 39.849 22.3281 40.0938C22.5677 40.3385 22.75 40.6562 22.875 41.0469C23 41.4323 23.0625 41.9036 23.0625 42.4609V48H21.6094V42.4453C21.6094 42.0026 21.5443 41.6484 21.4141 41.3828C21.2839 41.112 21.0938 40.9167 20.8438 40.7969C20.5938 40.6719 20.2865 40.6094 19.9219 40.6094C19.5625 40.6094 19.2344 40.6849 18.9375 40.8359C18.6458 40.987 18.3932 41.1953 18.1797 41.4609C17.9714 41.7266 17.8073 42.0312 17.6875 42.375C17.5729 42.7135 17.5156 43.0729 17.5156 43.4531ZM28.7969 39.5469V40.6562H24.2266V39.5469H28.7969ZM25.7734 37.4922H27.2188V45.9062C27.2188 46.1927 27.263 46.4089 27.3516 46.5547C27.4401 46.7005 27.5547 46.7969 27.6953 46.8438C27.8359 46.8906 27.987 46.9141 28.1484 46.9141C28.2682 46.9141 28.3932 46.9036 28.5234 46.8828C28.6589 46.8568 28.7604 46.8359 28.8281 46.8203L28.8359 48C28.7214 48.0365 28.5703 48.0703 28.3828 48.1016C28.2005 48.138 27.9792 48.1562 27.7188 48.1562C27.3646 48.1562 27.0391 48.0859 26.7422 47.9453C26.4453 47.8047 26.2083 47.5703 26.0312 47.2422C25.8594 46.9089 25.7734 46.4609 25.7734 45.8984V37.4922ZM38.5703 36.625V48H37.0859V36.625H38.5703ZM42.2266 36.625V37.8594H33.4375V36.625H42.2266ZM46.4219 48.1562C45.8333 48.1562 45.2995 48.0573 44.8203 47.8594C44.3464 47.6562 43.9375 47.3724 43.5938 47.0078C43.2552 46.6432 42.9948 46.2109 42.8125 45.7109C42.6302 45.2109 42.5391 44.6641 42.5391 44.0703V43.7422C42.5391 43.0547 42.6406 42.4427 42.8438 41.9062C43.0469 41.3646 43.3229 40.9062 43.6719 40.5312C44.0208 40.1562 44.4167 39.8724 44.8594 39.6797C45.3021 39.487 45.7604 39.3906 46.2344 39.3906C46.8385 39.3906 47.3594 39.4948 47.7969 39.7031C48.2396 39.9115 48.6016 40.2031 48.8828 40.5781C49.1641 40.9479 49.3724 41.3854 49.5078 41.8906C49.6432 42.3906 49.7109 42.9375 49.7109 43.5312V44.1797H43.3984V43H48.2656V42.8906C48.2448 42.5156 48.1667 42.151 48.0312 41.7969C47.901 41.4427 47.6927 41.151 47.4062 40.9219C47.1198 40.6927 46.7292 40.5781 46.2344 40.5781C45.9062 40.5781 45.6042 40.6484 45.3281 40.7891C45.0521 40.9245 44.8151 41.1276 44.6172 41.3984C44.4193 41.6693 44.2656 42 44.1562 42.3906C44.0469 42.7812 43.9922 43.2318 43.9922 43.7422V44.0703C43.9922 44.4714 44.0469 44.849 44.1562 45.2031C44.2708 45.5521 44.4349 45.8594 44.6484 46.125C44.8672 46.3906 45.1302 46.599 45.4375 46.75C45.75 46.901 46.1042 46.9766 46.5 46.9766C47.0104 46.9766 47.4427 46.8724 47.7969 46.6641C48.151 46.4557 48.4609 46.1771 48.7266 45.8281L49.6016 46.5234C49.4193 46.7995 49.1875 47.0625 48.9062 47.3125C48.625 47.5625 48.2786 47.7656 47.8672 47.9219C47.4609 48.0781 46.9792 48.1562 46.4219 48.1562ZM52.375 39.5469L54.2266 42.625L56.1016 39.5469H57.7969L55.0312 43.7188L57.8828 48H56.2109L54.2578 44.8281L52.3047 48H50.625L53.4688 43.7188L50.7109 39.5469H52.375ZM62.875 39.5469V40.6562H58.3047V39.5469H62.875ZM59.8516 37.4922H61.2969V45.9062C61.2969 46.1927 61.3411 46.4089 61.4297 46.5547C61.5182 46.7005 61.6328 46.7969 61.7734 46.8438C61.9141 46.8906 62.0651 46.9141 62.2266 46.9141C62.3464 46.9141 62.4714 46.9036 62.6016 46.8828C62.737 46.8568 62.8385 46.8359 62.9062 46.8203L62.9141 48C62.7995 48.0365 62.6484 48.0703 62.4609 48.1016C62.2786 48.138 62.0573 48.1562 61.7969 48.1562C61.4427 48.1562 61.1172 48.0859 60.8203 47.9453C60.5234 47.8047 60.2865 47.5703 60.1094 47.2422C59.9375 46.9089 59.8516 46.4609 59.8516 45.8984V37.4922Z" fill="#61615F"/>
<g id="Frame 14154">
<g id="Date form">
<path id="Label text_2" d="M5.22314 80H2.40283L2.42139 78.5435H5.22314C6.18799 78.5435 6.99202 78.3424 7.63525 77.9404C8.27848 77.5322 8.7609 76.9632 9.08252 76.2334C9.41032 75.4974 9.57422 74.6377 9.57422 73.6543V72.8286C9.57422 72.0555 9.48145 71.369 9.2959 70.769C9.11035 70.1629 8.83822 69.6527 8.47949 69.2383C8.12077 68.8177 7.68164 68.4992 7.16211 68.2827C6.64876 68.0662 6.05811 67.958 5.39014 67.958H2.34717V66.4922H5.39014C6.27458 66.4922 7.08171 66.6406 7.81152 66.9375C8.54134 67.2282 9.16911 67.6519 9.69482 68.2085C10.2267 68.759 10.6349 69.4269 10.9194 70.2124C11.2039 70.9917 11.3462 71.87 11.3462 72.8472V73.6543C11.3462 74.6315 11.2039 75.5129 10.9194 76.2983C10.6349 77.0776 10.2236 77.7425 9.68555 78.293C9.15365 78.8434 8.51042 79.2671 7.75586 79.564C7.00749 79.8547 6.16325 80 5.22314 80ZM3.3584 66.4922V80H1.56787V66.4922H3.3584ZM19.6958 78.2837V73.1162C19.6958 72.7204 19.6154 72.3771 19.4546 72.0864C19.3 71.7896 19.0649 71.5607 18.7495 71.3999C18.4341 71.2391 18.0444 71.1587 17.5806 71.1587C17.1476 71.1587 16.7673 71.2329 16.4395 71.3813C16.1178 71.5298 15.8643 71.7246 15.6787 71.9658C15.4993 72.207 15.4097 72.4668 15.4097 72.7451H13.6934C13.6934 72.3864 13.7861 72.0308 13.9717 71.6782C14.1572 71.3257 14.4232 71.0072 14.7695 70.7227C15.1221 70.432 15.5426 70.2031 16.0312 70.0361C16.526 69.863 17.0765 69.7764 17.6826 69.7764C18.4124 69.7764 19.0557 69.9001 19.6123 70.1475C20.1751 70.3949 20.6143 70.769 20.9297 71.27C21.2513 71.7648 21.4121 72.3864 21.4121 73.1348V77.8105C21.4121 78.1445 21.4399 78.5002 21.4956 78.8774C21.5575 79.2547 21.6471 79.5794 21.7646 79.8516V80H19.9741C19.8875 79.8021 19.8195 79.5392 19.77 79.2114C19.7205 78.8774 19.6958 78.5682 19.6958 78.2837ZM19.9927 73.9141L20.0112 75.1201H18.2764C17.7878 75.1201 17.3517 75.1603 16.9683 75.2407C16.5848 75.3149 16.2632 75.4294 16.0034 75.584C15.7437 75.7386 15.5457 75.9334 15.4097 76.1685C15.2736 76.3973 15.2056 76.6663 15.2056 76.9756C15.2056 77.291 15.2767 77.5786 15.4189 77.8384C15.5612 78.0981 15.7746 78.3053 16.0591 78.46C16.3498 78.6084 16.7054 78.6826 17.126 78.6826C17.6517 78.6826 18.1156 78.5713 18.5176 78.3486C18.9196 78.126 19.2381 77.8538 19.4731 77.5322C19.7144 77.2106 19.8442 76.8983 19.8628 76.5952L20.5957 77.4209C20.5524 77.6807 20.4349 77.9683 20.2432 78.2837C20.0514 78.5991 19.7948 78.9022 19.4731 79.1929C19.1577 79.4774 18.7804 79.7155 18.3413 79.9072C17.9084 80.0928 17.4198 80.1855 16.8755 80.1855C16.1951 80.1855 15.5983 80.0526 15.085 79.7866C14.5778 79.5207 14.182 79.165 13.8975 78.7197C13.6191 78.2682 13.48 77.7642 13.48 77.2075C13.48 76.6694 13.5851 76.1963 13.7954 75.7881C14.0057 75.3737 14.3088 75.0304 14.7046 74.7583C15.1004 74.48 15.5767 74.2697 16.1333 74.1274C16.6899 73.9852 17.3115 73.9141 17.998 73.9141H19.9927ZM26.7837 78.9609L29.5762 69.9619H31.4131L27.3867 81.5493C27.2939 81.7967 27.1702 82.0627 27.0156 82.3472C26.8672 82.6379 26.6755 82.9131 26.4404 83.1729C26.2054 83.4326 25.9209 83.6429 25.5869 83.8037C25.2591 83.9707 24.8664 84.0542 24.4087 84.0542C24.2726 84.0542 24.0994 84.0356 23.8892 83.9985C23.6789 83.9614 23.5304 83.9305 23.4438 83.9058L23.4346 82.5142C23.484 82.5203 23.5614 82.5265 23.6665 82.5327C23.7778 82.5451 23.8551 82.5513 23.8984 82.5513C24.2881 82.5513 24.619 82.4987 24.8911 82.3936C25.1632 82.2946 25.3921 82.1245 25.5776 81.8833C25.7694 81.6483 25.9333 81.3236 26.0693 80.9092L26.7837 78.9609ZM24.7334 69.9619L27.3403 77.7549L27.7856 79.564L26.5518 80.1948L22.8594 69.9619H24.7334Z" fill="#211D1C"/>
<g id="Form Field">
<mask id="path-4-inside-1_1433_21233" fill="white">
<path d="M0 104C0 98.4772 4.47715 94 10 94H50C55.5228 94 60 98.4772 60 104V133C60 138.523 55.5228 143 50 143H10C4.47715 143 0 138.523 0 133V104Z"/>
</mask>
<path d="M0 104C0 98.4772 4.47715 94 10 94H50C55.5228 94 60 98.4772 60 104V133C60 138.523 55.5228 143 50 143H10C4.47715 143 0 138.523 0 133V104Z" fill="white"/>
<path d="M10 94V96H50V94V92H10V94ZM60 104H58V133H60H62V104H60ZM50 143V141H10V143V145H50V143ZM0 133H2V104H0H-2V133H0ZM10 143V141C5.58172 141 2 137.418 2 133H0H-2C-2 139.627 3.37258 145 10 145V143ZM60 133H58C58 137.418 54.4183 141 50 141V143V145C56.6274 145 62 139.627 62 133H60ZM50 94V96C54.4183 96 58 99.5817 58 104H60H62C62 97.3726 56.6274 92 50 92V94ZM10 94V92C3.37258 92 -2 97.3726 -2 104H0H2C2 99.5817 5.58172 96 10 96V94Z" fill="#7F7F7D" mask="url(#path-4-inside-1_1433_21233)"/>
<path id="31" d="M19.6274 117.402H20.8521C21.452 117.402 21.9468 117.303 22.3364 117.105C22.7323 116.901 23.026 116.626 23.2178 116.279C23.4157 115.927 23.5146 115.531 23.5146 115.092C23.5146 114.572 23.4281 114.136 23.2549 113.784C23.0817 113.431 22.8219 113.165 22.4756 112.986C22.1292 112.806 21.6901 112.717 21.1582 112.717C20.6758 112.717 20.249 112.813 19.8779 113.004C19.513 113.19 19.2254 113.456 19.0151 113.802C18.811 114.149 18.709 114.557 18.709 115.027H16.9927C16.9927 114.34 17.1659 113.716 17.5122 113.153C17.8586 112.59 18.3441 112.142 18.9688 111.808C19.5996 111.474 20.3294 111.307 21.1582 111.307C21.9746 111.307 22.689 111.452 23.3013 111.743C23.9136 112.027 24.3898 112.454 24.73 113.023C25.0701 113.586 25.2402 114.288 25.2402 115.129C25.2402 115.469 25.1598 115.834 24.999 116.224C24.8444 116.607 24.6001 116.966 24.2661 117.3C23.9383 117.634 23.5116 117.909 22.9858 118.125C22.4601 118.336 21.8293 118.441 21.0933 118.441H19.6274V117.402ZM19.6274 118.812V117.782H21.0933C21.953 117.782 22.6642 117.884 23.2271 118.088C23.7899 118.292 24.2321 118.565 24.5537 118.905C24.8815 119.245 25.1104 119.619 25.2402 120.027C25.3763 120.429 25.4443 120.831 25.4443 121.233C25.4443 121.864 25.3361 122.424 25.1196 122.913C24.9093 123.401 24.6094 123.816 24.2197 124.156C23.8363 124.496 23.3848 124.753 22.8652 124.926C22.3457 125.099 21.7798 125.186 21.1675 125.186C20.5799 125.186 20.0264 125.102 19.5068 124.935C18.9935 124.768 18.5389 124.527 18.1431 124.211C17.7472 123.89 17.438 123.497 17.2153 123.033C16.9927 122.563 16.8813 122.028 16.8813 121.428H18.5977C18.5977 121.898 18.6997 122.31 18.9038 122.662C19.1141 123.015 19.411 123.29 19.7944 123.488C20.1841 123.68 20.6418 123.775 21.1675 123.775C21.6932 123.775 22.1447 123.686 22.522 123.506C22.9054 123.321 23.1992 123.042 23.4033 122.671C23.6136 122.3 23.7188 121.833 23.7188 121.271C23.7188 120.708 23.6012 120.247 23.3662 119.888C23.1312 119.523 22.7972 119.254 22.3643 119.081C21.9375 118.902 21.4334 118.812 20.8521 118.812H19.6274ZM33.4507 111.418V125H31.7344V113.561L28.2739 114.823V113.273L33.1816 111.418H33.4507Z" fill="#211D1C"/>
</g>
</g>
<g id="Date form_2">
<path id="Label text_3" d="M74.1338 66.4922H75.8687L80.2939 77.5044L84.71 66.4922H86.4541L80.9619 80H79.6074L74.1338 66.4922ZM73.5679 66.4922H75.0986L75.3491 74.7305V80H73.5679V66.4922ZM85.48 66.4922H87.0107V80H85.2295V74.7305L85.48 66.4922ZM89.4414 75.0923V74.8789C89.4414 74.1553 89.5465 73.4842 89.7568 72.8657C89.9671 72.241 90.2702 71.6999 90.666 71.2422C91.0618 70.7783 91.5412 70.4196 92.104 70.166C92.6668 69.9062 93.2977 69.7764 93.9966 69.7764C94.7017 69.7764 95.3356 69.9062 95.8984 70.166C96.4674 70.4196 96.9499 70.7783 97.3457 71.2422C97.7477 71.6999 98.0539 72.241 98.2642 72.8657C98.4744 73.4842 98.5796 74.1553 98.5796 74.8789V75.0923C98.5796 75.8159 98.4744 76.487 98.2642 77.1055C98.0539 77.724 97.7477 78.2651 97.3457 78.729C96.9499 79.1867 96.4705 79.5454 95.9077 79.8052C95.3511 80.0588 94.7202 80.1855 94.0151 80.1855C93.3101 80.1855 92.6761 80.0588 92.1133 79.8052C91.5505 79.5454 91.068 79.1867 90.666 78.729C90.2702 78.2651 89.9671 77.724 89.7568 77.1055C89.5465 76.487 89.4414 75.8159 89.4414 75.0923ZM91.1577 74.8789V75.0923C91.1577 75.5933 91.2165 76.0664 91.334 76.5117C91.4515 76.9508 91.6278 77.3405 91.8628 77.6807C92.104 78.0208 92.404 78.2899 92.7627 78.4878C93.1214 78.6795 93.5389 78.7754 94.0151 78.7754C94.4852 78.7754 94.8965 78.6795 95.249 78.4878C95.6077 78.2899 95.9046 78.0208 96.1396 77.6807C96.3747 77.3405 96.5509 76.9508 96.6685 76.5117C96.7922 76.0664 96.854 75.5933 96.854 75.0923V74.8789C96.854 74.3841 96.7922 73.9172 96.6685 73.478C96.5509 73.0327 96.3716 72.64 96.1304 72.2998C95.8953 71.9535 95.5985 71.6813 95.2397 71.4834C94.8872 71.2855 94.4728 71.1865 93.9966 71.1865C93.5265 71.1865 93.1121 71.2855 92.7534 71.4834C92.4009 71.6813 92.104 71.9535 91.8628 72.2998C91.6278 72.64 91.4515 73.0327 91.334 73.478C91.2165 73.9172 91.1577 74.3841 91.1577 74.8789ZM102.448 72.105V80H100.732V69.9619H102.355L102.448 72.105ZM102.04 74.6006L101.326 74.5728C101.332 73.8862 101.434 73.2523 101.632 72.6709C101.83 72.0833 102.108 71.5731 102.467 71.1401C102.826 70.7072 103.252 70.3732 103.747 70.1382C104.248 69.897 104.802 69.7764 105.408 69.7764C105.903 69.7764 106.348 69.8444 106.744 69.9805C107.139 70.1104 107.477 70.3206 107.755 70.6113C108.039 70.902 108.256 71.2793 108.404 71.7432C108.553 72.2008 108.627 72.7606 108.627 73.4224V80H106.901V73.4038C106.901 72.8781 106.824 72.4575 106.669 72.1421C106.515 71.8205 106.289 71.5885 105.992 71.4463C105.695 71.2979 105.33 71.2236 104.897 71.2236C104.471 71.2236 104.081 71.3133 103.729 71.4927C103.382 71.672 103.082 71.9194 102.829 72.2349C102.581 72.5503 102.386 72.9121 102.244 73.3203C102.108 73.7223 102.04 74.1491 102.04 74.6006ZM115.437 69.9619V71.2793H110.009V69.9619H115.437ZM111.846 67.522H113.562V77.5137C113.562 77.8538 113.615 78.1105 113.72 78.2837C113.825 78.4569 113.961 78.5713 114.128 78.627C114.295 78.6826 114.475 78.7104 114.667 78.7104C114.809 78.7104 114.957 78.6981 115.112 78.6733C115.273 78.6424 115.393 78.6177 115.474 78.5991L115.483 80C115.347 80.0433 115.167 80.0835 114.945 80.1206C114.728 80.1639 114.465 80.1855 114.156 80.1855C113.736 80.1855 113.349 80.1021 112.997 79.9351C112.644 79.7681 112.363 79.4897 112.152 79.1001C111.948 78.7043 111.846 78.1724 111.846 77.5044V67.522ZM119.166 65.75V80H117.45V65.75H119.166ZM118.758 74.6006L118.043 74.5728C118.05 73.8862 118.152 73.2523 118.35 72.6709C118.548 72.0833 118.826 71.5731 119.185 71.1401C119.543 70.7072 119.97 70.3732 120.465 70.1382C120.966 69.897 121.519 69.7764 122.125 69.7764C122.62 69.7764 123.066 69.8444 123.461 69.9805C123.857 70.1104 124.194 70.3206 124.473 70.6113C124.757 70.902 124.974 71.2793 125.122 71.7432C125.271 72.2008 125.345 72.7606 125.345 73.4224V80H123.619V73.4038C123.619 72.8781 123.542 72.4575 123.387 72.1421C123.233 71.8205 123.007 71.5885 122.71 71.4463C122.413 71.2979 122.048 71.2236 121.615 71.2236C121.188 71.2236 120.799 71.3133 120.446 71.4927C120.1 71.672 119.8 71.9194 119.546 72.2349C119.299 72.5503 119.104 72.9121 118.962 73.3203C118.826 73.7223 118.758 74.1491 118.758 74.6006Z" fill="#211D1C"/>
<g id="Form Field_2">
<mask id="path-8-inside-2_1433_21233" fill="white">
<path d="M72 104C72 98.4772 76.4772 94 82 94H122C127.523 94 132 98.4772 132 104V133C132 138.523 127.523 143 122 143H82C76.4772 143 72 138.523 72 133V104Z"/>
</mask>
<path d="M72 104C72 98.4772 76.4772 94 82 94H122C127.523 94 132 98.4772 132 104V133C132 138.523 127.523 143 122 143H82C76.4772 143 72 138.523 72 133V104Z" fill="white"/>
<path d="M82 94V96H122V94V92H82V94ZM132 104H130V133H132H134V104H132ZM122 143V141H82V143V145H122V143ZM72 133H74V104H72H70V133H72ZM82 143V141C77.5817 141 74 137.418 74 133H72H70C70 139.627 75.3726 145 82 145V143ZM132 133H130C130 137.418 126.418 141 122 141V143V145C128.627 145 134 139.627 134 133H132ZM122 94V96C126.418 96 130 99.5817 130 104H132H134C134 97.3726 128.627 92 122 92V94ZM82 94V92C75.3726 92 70 97.3726 70 104H72H74C74 99.5817 77.5817 96 82 96V94Z" fill="#7F7F7D" mask="url(#path-8-inside-2_1433_21233)"/>
<path id="31_2" d="M91.6274 117.402H92.8521C93.452 117.402 93.9468 117.303 94.3364 117.105C94.7323 116.901 95.026 116.626 95.2178 116.279C95.4157 115.927 95.5146 115.531 95.5146 115.092C95.5146 114.572 95.4281 114.136 95.2549 113.784C95.0817 113.431 94.8219 113.165 94.4756 112.986C94.1292 112.806 93.6901 112.717 93.1582 112.717C92.6758 112.717 92.249 112.813 91.8779 113.004C91.513 113.19 91.2254 113.456 91.0151 113.802C90.811 114.149 90.709 114.557 90.709 115.027H88.9927C88.9927 114.34 89.1659 113.716 89.5122 113.153C89.8586 112.59 90.3441 112.142 90.9688 111.808C91.5996 111.474 92.3294 111.307 93.1582 111.307C93.9746 111.307 94.689 111.452 95.3013 111.743C95.9136 112.027 96.3898 112.454 96.73 113.023C97.0701 113.586 97.2402 114.288 97.2402 115.129C97.2402 115.469 97.1598 115.834 96.999 116.224C96.8444 116.607 96.6001 116.966 96.2661 117.3C95.9383 117.634 95.5116 117.909 94.9858 118.125C94.4601 118.336 93.8293 118.441 93.0933 118.441H91.6274V117.402ZM91.6274 118.812V117.782H93.0933C93.953 117.782 94.6642 117.884 95.2271 118.088C95.7899 118.292 96.2321 118.565 96.5537 118.905C96.8815 119.245 97.1104 119.619 97.2402 120.027C97.3763 120.429 97.4443 120.831 97.4443 121.233C97.4443 121.864 97.3361 122.424 97.1196 122.913C96.9093 123.401 96.6094 123.816 96.2197 124.156C95.8363 124.496 95.3848 124.753 94.8652 124.926C94.3457 125.099 93.7798 125.186 93.1675 125.186C92.5799 125.186 92.0264 125.102 91.5068 124.935C90.9935 124.768 90.5389 124.527 90.1431 124.211C89.7472 123.89 89.438 123.497 89.2153 123.033C88.9927 122.563 88.8813 122.028 88.8813 121.428H90.5977C90.5977 121.898 90.6997 122.31 90.9038 122.662C91.1141 123.015 91.411 123.29 91.7944 123.488C92.1841 123.68 92.6418 123.775 93.1675 123.775C93.6932 123.775 94.1447 123.686 94.522 123.506C94.9054 123.321 95.1992 123.042 95.4033 122.671C95.6136 122.3 95.7188 121.833 95.7188 121.271C95.7188 120.708 95.6012 120.247 95.3662 119.888C95.1312 119.523 94.7972 119.254 94.3643 119.081C93.9375 118.902 93.4334 118.812 92.8521 118.812H91.6274ZM105.451 111.418V125H103.734V113.561L100.274 114.823V113.273L105.182 111.418H105.451Z" fill="#211D1C"/>
</g>
</g>
<g id="Date form_3">
<path id="Label text_4" d="M146.189 66.4922L149.696 73.2739L153.212 66.4922H155.244L150.587 74.9531V80H148.796V74.9531L144.139 66.4922H146.189ZM160.272 80.1855C159.574 80.1855 158.94 80.068 158.371 79.833C157.808 79.5918 157.322 79.2547 156.914 78.8218C156.512 78.3888 156.203 77.8755 155.986 77.2817C155.77 76.688 155.662 76.0386 155.662 75.3335V74.9438C155.662 74.1274 155.782 73.4007 156.023 72.7637C156.265 72.1204 156.592 71.5762 157.007 71.1309C157.421 70.6855 157.891 70.3485 158.417 70.1196C158.943 69.8908 159.487 69.7764 160.05 69.7764C160.767 69.7764 161.386 69.9001 161.905 70.1475C162.431 70.3949 162.861 70.7412 163.195 71.1865C163.529 71.6257 163.776 72.1452 163.937 72.7451C164.098 73.3389 164.178 73.9883 164.178 74.6934V75.4634H156.682V74.0625H162.462V73.9326C162.437 73.4873 162.344 73.0544 162.184 72.6338C162.029 72.2132 161.782 71.8669 161.441 71.5947C161.101 71.3226 160.637 71.1865 160.05 71.1865C159.66 71.1865 159.301 71.27 158.974 71.437C158.646 71.5978 158.364 71.839 158.129 72.1606C157.894 72.4823 157.712 72.875 157.582 73.3389C157.452 73.8027 157.387 74.3377 157.387 74.9438V75.3335C157.387 75.8097 157.452 76.2581 157.582 76.6787C157.718 77.0931 157.913 77.458 158.167 77.7734C158.426 78.0889 158.739 78.3363 159.104 78.5156C159.475 78.695 159.895 78.7847 160.365 78.7847C160.971 78.7847 161.485 78.661 161.905 78.4136C162.326 78.1662 162.694 77.8353 163.009 77.4209L164.048 78.2466C163.832 78.5744 163.557 78.8867 163.223 79.1836C162.889 79.4805 162.477 79.7217 161.989 79.9072C161.506 80.0928 160.934 80.1855 160.272 80.1855ZM172.101 78.2837V73.1162C172.101 72.7204 172.021 72.3771 171.86 72.0864C171.705 71.7896 171.47 71.5607 171.155 71.3999C170.839 71.2391 170.45 71.1587 169.986 71.1587C169.553 71.1587 169.173 71.2329 168.845 71.3813C168.523 71.5298 168.27 71.7246 168.084 71.9658C167.905 72.207 167.815 72.4668 167.815 72.7451H166.099C166.099 72.3864 166.191 72.0308 166.377 71.6782C166.562 71.3257 166.828 71.0072 167.175 70.7227C167.527 70.432 167.948 70.2031 168.437 70.0361C168.931 69.863 169.482 69.7764 170.088 69.7764C170.818 69.7764 171.461 69.9001 172.018 70.1475C172.58 70.3949 173.02 70.769 173.335 71.27C173.657 71.7648 173.817 72.3864 173.817 73.1348V77.8105C173.817 78.1445 173.845 78.5002 173.901 78.8774C173.963 79.2547 174.052 79.5794 174.17 79.8516V80H172.379C172.293 79.8021 172.225 79.5392 172.175 79.2114C172.126 78.8774 172.101 78.5682 172.101 78.2837ZM172.398 73.9141L172.417 75.1201H170.682C170.193 75.1201 169.757 75.1603 169.374 75.2407C168.99 75.3149 168.668 75.4294 168.409 75.584C168.149 75.7386 167.951 75.9334 167.815 76.1685C167.679 76.3973 167.611 76.6663 167.611 76.9756C167.611 77.291 167.682 77.5786 167.824 77.8384C167.966 78.0981 168.18 78.3053 168.464 78.46C168.755 78.6084 169.111 78.6826 169.531 78.6826C170.057 78.6826 170.521 78.5713 170.923 78.3486C171.325 78.126 171.643 77.8538 171.878 77.5322C172.12 77.2106 172.25 76.8983 172.268 76.5952L173.001 77.4209C172.958 77.6807 172.84 77.9683 172.648 78.2837C172.457 78.5991 172.2 78.9022 171.878 79.1929C171.563 79.4774 171.186 79.7155 170.747 79.9072C170.314 80.0928 169.825 80.1855 169.281 80.1855C168.6 80.1855 168.004 80.0526 167.49 79.7866C166.983 79.5207 166.587 79.165 166.303 78.7197C166.024 78.2682 165.885 77.7642 165.885 77.2075C165.885 76.6694 165.99 76.1963 166.201 75.7881C166.411 75.3737 166.714 75.0304 167.11 74.7583C167.506 74.48 167.982 74.2697 168.539 74.1274C169.095 73.9852 169.717 73.9141 170.403 73.9141H172.398ZM178.233 71.5391V80H176.517V69.9619H178.187L178.233 71.5391ZM181.369 69.9062L181.36 71.502C181.218 71.471 181.082 71.4525 180.952 71.4463C180.828 71.4339 180.686 71.4277 180.525 71.4277C180.129 71.4277 179.78 71.4896 179.477 71.6133C179.174 71.737 178.917 71.9102 178.707 72.1328C178.496 72.3555 178.329 72.6214 178.206 72.9307C178.088 73.2337 178.011 73.5677 177.974 73.9326L177.491 74.2109C177.491 73.6048 177.55 73.0358 177.667 72.5039C177.791 71.972 177.98 71.502 178.233 71.0938C178.487 70.6794 178.809 70.3577 179.198 70.1289C179.594 69.8939 180.064 69.7764 180.608 69.7764C180.732 69.7764 180.874 69.7918 181.035 69.8228C181.196 69.8475 181.307 69.8753 181.369 69.9062Z" fill="#211D1C"/>
<g id="Form Field_3">
<mask id="path-12-inside-3_1433_21233" fill="white">
<path d="M144 104C144 98.4772 148.477 94 154 94H214C219.523 94 224 98.4772 224 104V133C224 138.523 219.523 143 214 143H154C148.477 143 144 138.523 144 133V104Z"/>
</mask>
<path d="M144 104C144 98.4772 148.477 94 154 94H214C219.523 94 224 98.4772 224 104V133C224 138.523 219.523 143 214 143H154C148.477 143 144 138.523 144 133V104Z" fill="white"/>
<path d="M154 94V96H214V94V92H154V94ZM224 104H222V133H224H226V104H224ZM214 143V141H154V143V145H214V143ZM144 133H146V104H144H142V133H144ZM154 143V141C149.582 141 146 137.418 146 133H144H142C142 139.627 147.373 145 154 145V143ZM224 133H222C222 137.418 218.418 141 214 141V143V145C220.627 145 226 139.627 226 133H224ZM214 94V96C218.418 96 222 99.5817 222 104H224H226C226 97.3726 220.627 92 214 92V94ZM154 94V92C147.373 92 142 97.3726 142 104H144H146C146 99.5817 149.582 96 154 96V94Z" fill="#7F7F7D" mask="url(#path-12-inside-3_1433_21233)"/>
<path id="31_3" d="M163.627 117.402H164.852C165.452 117.402 165.947 117.303 166.336 117.105C166.732 116.901 167.026 116.626 167.218 116.279C167.416 115.927 167.515 115.531 167.515 115.092C167.515 114.572 167.428 114.136 167.255 113.784C167.082 113.431 166.822 113.165 166.476 112.986C166.129 112.806 165.69 112.717 165.158 112.717C164.676 112.717 164.249 112.813 163.878 113.004C163.513 113.19 163.225 113.456 163.015 113.802C162.811 114.149 162.709 114.557 162.709 115.027H160.993C160.993 114.34 161.166 113.716 161.512 113.153C161.859 112.59 162.344 112.142 162.969 111.808C163.6 111.474 164.329 111.307 165.158 111.307C165.975 111.307 166.689 111.452 167.301 111.743C167.914 112.027 168.39 112.454 168.73 113.023C169.07 113.586 169.24 114.288 169.24 115.129C169.24 115.469 169.16 115.834 168.999 116.224C168.844 116.607 168.6 116.966 168.266 117.3C167.938 117.634 167.512 117.909 166.986 118.125C166.46 118.336 165.829 118.441 165.093 118.441H163.627V117.402ZM163.627 118.812V117.782H165.093C165.953 117.782 166.664 117.884 167.227 118.088C167.79 118.292 168.232 118.565 168.554 118.905C168.882 119.245 169.11 119.619 169.24 120.027C169.376 120.429 169.444 120.831 169.444 121.233C169.444 121.864 169.336 122.424 169.12 122.913C168.909 123.401 168.609 123.816 168.22 124.156C167.836 124.496 167.385 124.753 166.865 124.926C166.346 125.099 165.78 125.186 165.167 125.186C164.58 125.186 164.026 125.102 163.507 124.935C162.993 124.768 162.539 124.527 162.143 124.211C161.747 123.89 161.438 123.497 161.215 123.033C160.993 122.563 160.881 122.028 160.881 121.428H162.598C162.598 121.898 162.7 122.31 162.904 122.662C163.114 123.015 163.411 123.29 163.794 123.488C164.184 123.68 164.642 123.775 165.167 123.775C165.693 123.775 166.145 123.686 166.522 123.506C166.905 123.321 167.199 123.042 167.403 122.671C167.614 122.3 167.719 121.833 167.719 121.271C167.719 120.708 167.601 120.247 167.366 119.888C167.131 119.523 166.797 119.254 166.364 119.081C165.938 118.902 165.433 118.812 164.852 118.812H163.627ZM177.451 111.418V125H175.734V113.561L172.274 114.823V113.273L177.182 111.418H177.451Z" fill="#211D1C"/>
</g>
</g>
</g>
</g>
</g>
</svg>
