<svg width="375" height="269" viewBox="0 0 375 269" fill="none" xmlns="http://www.w3.org/2000/svg">
<g id="Footer Navigation">
<mask id="path-1-inside-1_620_9442" fill="white">
<path d="M0 0H375V269H0V0Z"/>
</mask>
<path d="M0 0H375V269H0V0Z" fill="#F2F0F0"/>
<path d="M0 0V1H375V0V-1H0V0Z" fill="#7F7F7D" mask="url(#path-1-inside-1_620_9442)"/>
<g id="Frame 14128">
<g id="Footer_LinkItem">
<g id="Link">
<path id="Link / Large Screen / Body Regular / Disabled" d="M25.7598 41.5435V43H19.0059V41.5435H25.7598ZM19.3584 29.4922V43H17.5679V29.4922H19.3584ZM29.415 32.9619V43H27.6895V32.9619H29.415ZM27.5596 30.2993C27.5596 30.021 27.6431 29.786 27.8101 29.5942C27.9832 29.4025 28.2368 29.3066 28.5708 29.3066C28.8986 29.3066 29.1491 29.4025 29.3223 29.5942C29.5016 29.786 29.5913 30.021 29.5913 30.2993C29.5913 30.5653 29.5016 30.7941 29.3223 30.9858C29.1491 31.1714 28.8986 31.2642 28.5708 31.2642C28.2368 31.2642 27.9832 31.1714 27.8101 30.9858C27.6431 30.7941 27.5596 30.5653 27.5596 30.2993ZM33.8867 35.105V43H32.1704V32.9619H33.7939L33.8867 35.105ZM33.4785 37.6006L32.7642 37.5728C32.7703 36.8862 32.8724 36.2523 33.0703 35.6709C33.2682 35.0833 33.5465 34.5731 33.9053 34.1401C34.264 33.7072 34.6908 33.3732 35.1855 33.1382C35.6865 32.897 36.2401 32.7764 36.8462 32.7764C37.341 32.7764 37.7863 32.8444 38.1821 32.9805C38.578 33.1104 38.915 33.3206 39.1934 33.6113C39.4779 33.902 39.6943 34.2793 39.8428 34.7432C39.9912 35.2008 40.0654 35.7606 40.0654 36.4224V43H38.3398V36.4038C38.3398 35.8781 38.2625 35.4575 38.1079 35.1421C37.9533 34.8205 37.7275 34.5885 37.4307 34.4463C37.1338 34.2979 36.7689 34.2236 36.3359 34.2236C35.9092 34.2236 35.5195 34.3133 35.167 34.4927C34.8206 34.672 34.5207 34.9194 34.2671 35.2349C34.0197 35.5503 33.8249 35.9121 33.6826 36.3203C33.5465 36.7223 33.4785 37.1491 33.4785 37.6006ZM44.3979 28.75V43H42.6724V28.75H44.3979ZM50.5303 32.9619L46.1514 37.647L43.7021 40.189L43.563 38.3613L45.3164 36.2646L48.4336 32.9619H50.5303ZM48.9624 43L45.3813 38.2129L46.272 36.6821L50.9849 43H48.9624ZM59.1953 29.4922V43H57.4048V29.4922H59.1953ZM66.3945 32.9619V34.2793H60.9673V32.9619H66.3945ZM62.8042 30.522H64.5205V40.5137C64.5205 40.8538 64.5731 41.1105 64.6782 41.2837C64.7834 41.4569 64.9194 41.5713 65.0864 41.627C65.2534 41.6826 65.4328 41.7104 65.6245 41.7104C65.7668 41.7104 65.9152 41.6981 66.0698 41.6733C66.2306 41.6424 66.3512 41.6177 66.4316 41.5991L66.4409 43C66.3049 43.0433 66.1255 43.0835 65.9028 43.1206C65.6864 43.1639 65.4235 43.1855 65.1143 43.1855C64.6937 43.1855 64.3071 43.1021 63.9546 42.9351C63.6021 42.7681 63.3206 42.4897 63.1104 42.1001C62.9062 41.7043 62.8042 41.1724 62.8042 40.5044V30.522ZM72.5732 43.1855C71.8743 43.1855 71.2404 43.068 70.6714 42.833C70.1086 42.5918 69.623 42.2547 69.2148 41.8218C68.8128 41.3888 68.5036 40.8755 68.2871 40.2817C68.0706 39.688 67.9624 39.0386 67.9624 38.3335V37.9438C67.9624 37.1274 68.083 36.4007 68.3242 35.7637C68.5654 35.1204 68.8932 34.5762 69.3076 34.1309C69.722 33.6855 70.1921 33.3485 70.7178 33.1196C71.2435 32.8908 71.7878 32.7764 72.3506 32.7764C73.068 32.7764 73.6865 32.9001 74.2061 33.1475C74.7318 33.3949 75.1616 33.7412 75.4956 34.1865C75.8296 34.6257 76.077 35.1452 76.2378 35.7451C76.3986 36.3389 76.479 36.9883 76.479 37.6934V38.4634H68.9829V37.0625H74.7627V36.9326C74.738 36.4873 74.6452 36.0544 74.4844 35.6338C74.3298 35.2132 74.0824 34.8669 73.7422 34.5947C73.402 34.3226 72.9382 34.1865 72.3506 34.1865C71.9609 34.1865 71.6022 34.27 71.2744 34.437C70.9466 34.5978 70.6652 34.839 70.4302 35.1606C70.1951 35.4823 70.0127 35.875 69.8828 36.3389C69.7529 36.8027 69.688 37.3377 69.688 37.9438V38.3335C69.688 38.8097 69.7529 39.2581 69.8828 39.6787C70.0189 40.0931 70.2137 40.458 70.4673 40.7734C70.7271 41.0889 71.0394 41.3363 71.4043 41.5156C71.7754 41.695 72.196 41.7847 72.666 41.7847C73.2721 41.7847 73.7855 41.661 74.2061 41.4136C74.6266 41.1662 74.9946 40.8353 75.3101 40.4209L76.3491 41.2466C76.1326 41.5744 75.8574 41.8867 75.5234 42.1836C75.1895 42.4805 74.7782 42.7217 74.2896 42.9072C73.8071 43.0928 73.235 43.1855 72.5732 43.1855ZM80.1899 34.9565V43H78.4644V32.9619H80.0972L80.1899 34.9565ZM79.8374 37.6006L79.0396 37.5728C79.0457 36.8862 79.1354 36.2523 79.3086 35.6709C79.4818 35.0833 79.7384 34.5731 80.0786 34.1401C80.4188 33.7072 80.8424 33.3732 81.3496 33.1382C81.8568 32.897 82.4443 32.7764 83.1123 32.7764C83.5824 32.7764 84.0153 32.8444 84.4111 32.9805C84.807 33.1104 85.1502 33.3175 85.4409 33.6021C85.7316 33.8866 85.9574 34.2515 86.1182 34.6968C86.279 35.1421 86.3594 35.6802 86.3594 36.311V43H84.6431V36.3945C84.6431 35.8688 84.5534 35.4482 84.374 35.1328C84.2008 34.8174 83.9535 34.5885 83.6318 34.4463C83.3102 34.2979 82.9329 34.2236 82.5 34.2236C81.9928 34.2236 81.5692 34.3133 81.229 34.4927C80.8888 34.672 80.6167 34.9194 80.4126 35.2349C80.2085 35.5503 80.0601 35.9121 79.9673 36.3203C79.8807 36.7223 79.8374 37.1491 79.8374 37.6006ZM86.3408 36.6543L85.1904 37.0068C85.1966 36.4564 85.2863 35.9276 85.4595 35.4204C85.6388 34.9132 85.8955 34.4618 86.2295 34.0659C86.5697 33.6701 86.9871 33.3577 87.4819 33.1289C87.9767 32.8939 88.5426 32.7764 89.1797 32.7764C89.7178 32.7764 90.194 32.8475 90.6084 32.9897C91.029 33.132 91.3815 33.3516 91.666 33.6484C91.9567 33.9391 92.1763 34.3133 92.3247 34.771C92.4731 35.2287 92.5474 35.7729 92.5474 36.4038V43H90.8218V36.3853C90.8218 35.8224 90.7321 35.3864 90.5527 35.0771C90.3796 34.7617 90.1322 34.5422 89.8105 34.4185C89.4951 34.2886 89.1178 34.2236 88.6787 34.2236C88.3014 34.2236 87.9674 34.2886 87.6768 34.4185C87.3861 34.5483 87.1418 34.7277 86.9438 34.9565C86.7459 35.1792 86.5944 35.4359 86.4893 35.7266C86.3903 36.0173 86.3408 36.3265 86.3408 36.6543Z" fill="#4D4C4B"/>
</g>
</g>
<g id="Footer_LinkItem_2">
<g id="Link_2">
<path id="Link / Large Screen / Body Regular / Disabled_2" d="M22.5498 86.7026H18.9409V85.2461H22.5498C23.2487 85.2461 23.8146 85.1348 24.2476 84.9121C24.6805 84.6895 24.9959 84.3802 25.1938 83.9844C25.3979 83.5885 25.5 83.137 25.5 82.6299C25.5 82.166 25.3979 81.73 25.1938 81.3218C24.9959 80.9136 24.6805 80.5858 24.2476 80.3384C23.8146 80.0848 23.2487 79.958 22.5498 79.958H19.3584V92H17.5679V78.4922H22.5498C23.5703 78.4922 24.4331 78.6685 25.1382 79.021C25.8433 79.3735 26.3783 79.8621 26.7432 80.4868C27.1081 81.1053 27.2905 81.8135 27.2905 82.6113C27.2905 83.4772 27.1081 84.2163 26.7432 84.8286C26.3783 85.4409 25.8433 85.9079 25.1382 86.2295C24.4331 86.5449 23.5703 86.7026 22.5498 86.7026ZM31.0107 83.5391V92H29.2944V81.9619H30.9644L31.0107 83.5391ZM34.1465 81.9062L34.1372 83.502C33.995 83.471 33.8589 83.4525 33.729 83.4463C33.6053 83.4339 33.4631 83.4277 33.3022 83.4277C32.9064 83.4277 32.557 83.4896 32.2539 83.6133C31.9508 83.737 31.6942 83.9102 31.4839 84.1328C31.2736 84.3555 31.1066 84.6214 30.9829 84.9307C30.8654 85.2337 30.7881 85.5677 30.751 85.9326L30.2686 86.2109C30.2686 85.6048 30.3273 85.0358 30.4448 84.5039C30.5685 83.972 30.7572 83.502 31.0107 83.0938C31.2643 82.6794 31.5859 82.3577 31.9756 82.1289C32.3714 81.8939 32.8415 81.7764 33.3857 81.7764C33.5094 81.7764 33.6517 81.7918 33.8125 81.8228C33.9733 81.8475 34.0846 81.8753 34.1465 81.9062ZM37.5977 81.9619V92H35.8721V81.9619H37.5977ZM35.7422 79.2993C35.7422 79.021 35.8257 78.786 35.9927 78.5942C36.1659 78.4025 36.4194 78.3066 36.7534 78.3066C37.0812 78.3066 37.3317 78.4025 37.5049 78.5942C37.6842 78.786 37.7739 79.021 37.7739 79.2993C37.7739 79.5653 37.6842 79.7941 37.5049 79.9858C37.3317 80.1714 37.0812 80.2642 36.7534 80.2642C36.4194 80.2642 36.1659 80.1714 35.9927 79.9858C35.8257 79.7941 35.7422 79.5653 35.7422 79.2993ZM43.4053 90.4507L46.1514 81.9619H47.9048L44.2959 92H43.1455L43.4053 90.4507ZM41.1138 81.9619L43.9434 90.4971L44.1382 92H42.9878L39.3511 81.9619H41.1138ZM55.3267 90.2837V85.1162C55.3267 84.7204 55.2463 84.3771 55.0854 84.0864C54.9308 83.7896 54.6958 83.5607 54.3804 83.3999C54.0649 83.2391 53.6753 83.1587 53.2114 83.1587C52.7785 83.1587 52.3981 83.2329 52.0703 83.3813C51.7487 83.5298 51.4951 83.7246 51.3096 83.9658C51.1302 84.207 51.0405 84.4668 51.0405 84.7451H49.3242C49.3242 84.3864 49.417 84.0308 49.6025 83.6782C49.7881 83.3257 50.054 83.0072 50.4004 82.7227C50.7529 82.432 51.1735 82.2031 51.6621 82.0361C52.1569 81.863 52.7074 81.7764 53.3135 81.7764C54.0433 81.7764 54.6865 81.9001 55.2432 82.1475C55.806 82.3949 56.2451 82.769 56.5605 83.27C56.8822 83.7648 57.043 84.3864 57.043 85.1348V89.8105C57.043 90.1445 57.0708 90.5002 57.1265 90.8774C57.1883 91.2547 57.278 91.5794 57.3955 91.8516V92H55.605C55.5184 91.8021 55.4504 91.5392 55.4009 91.2114C55.3514 90.8774 55.3267 90.5682 55.3267 90.2837ZM55.6235 85.9141L55.6421 87.1201H53.9072C53.4186 87.1201 52.9826 87.1603 52.5991 87.2407C52.2157 87.3149 51.894 87.4294 51.6343 87.584C51.3745 87.7386 51.1766 87.9334 51.0405 88.1685C50.9045 88.3973 50.8364 88.6663 50.8364 88.9756C50.8364 89.291 50.9076 89.5786 51.0498 89.8384C51.1921 90.0981 51.4054 90.3053 51.6899 90.46C51.9806 90.6084 52.3363 90.6826 52.7568 90.6826C53.2826 90.6826 53.7464 90.5713 54.1484 90.3486C54.5505 90.126 54.869 89.8538 55.104 89.5322C55.3452 89.2106 55.4751 88.8983 55.4937 88.5952L56.2266 89.4209C56.1833 89.6807 56.0658 89.9683 55.874 90.2837C55.6823 90.5991 55.4256 90.9022 55.104 91.1929C54.7886 91.4774 54.4113 91.7155 53.9722 91.9072C53.5392 92.0928 53.0506 92.1855 52.5063 92.1855C51.826 92.1855 51.2292 92.0526 50.7158 91.7866C50.2087 91.5207 49.8128 91.165 49.5283 90.7197C49.25 90.2682 49.1108 89.7642 49.1108 89.2075C49.1108 88.6694 49.216 88.1963 49.4263 87.7881C49.6366 87.3737 49.9396 87.0304 50.3354 86.7583C50.7313 86.48 51.2075 86.2697 51.7642 86.1274C52.3208 85.9852 52.9424 85.9141 53.6289 85.9141H55.6235ZM63.7598 90.7754C64.168 90.7754 64.5452 90.6919 64.8916 90.5249C65.238 90.3579 65.5225 90.1291 65.7451 89.8384C65.9678 89.5415 66.0946 89.2044 66.1255 88.8271H67.7583C67.7274 89.4209 67.5264 89.9744 67.1553 90.4878C66.7904 90.995 66.311 91.4062 65.7173 91.7217C65.1235 92.0309 64.471 92.1855 63.7598 92.1855C63.0052 92.1855 62.3465 92.0526 61.7837 91.7866C61.2271 91.5207 60.7632 91.1558 60.3921 90.6919C60.0272 90.228 59.752 89.6961 59.5664 89.0962C59.387 88.4901 59.2974 87.8499 59.2974 87.1758V86.7861C59.2974 86.112 59.387 85.4749 59.5664 84.875C59.752 84.2689 60.0272 83.7339 60.3921 83.27C60.7632 82.8062 61.2271 82.4412 61.7837 82.1753C62.3465 81.9093 63.0052 81.7764 63.7598 81.7764C64.5452 81.7764 65.2318 81.9372 65.8193 82.2588C66.4069 82.5742 66.8677 83.0072 67.2017 83.5576C67.5418 84.1019 67.7274 84.7204 67.7583 85.4131H66.1255C66.0946 84.9987 65.9771 84.6245 65.7729 84.2905C65.575 83.9565 65.3029 83.6906 64.9565 83.4927C64.6164 83.2886 64.2174 83.1865 63.7598 83.1865C63.234 83.1865 62.7918 83.2917 62.4331 83.502C62.0806 83.7061 61.7992 83.9844 61.5889 84.3369C61.3848 84.6833 61.2363 85.0698 61.1436 85.4966C61.057 85.9172 61.0137 86.347 61.0137 86.7861V87.1758C61.0137 87.6149 61.057 88.0479 61.1436 88.4746C61.2301 88.9014 61.3755 89.2879 61.5796 89.6343C61.7899 89.9806 62.0713 90.259 62.4238 90.4692C62.7826 90.6733 63.2279 90.7754 63.7598 90.7754ZM72.5083 90.9609L75.3008 81.9619H77.1377L73.1113 93.5493C73.0186 93.7967 72.8949 94.0627 72.7402 94.3472C72.5918 94.6379 72.4001 94.9131 72.165 95.1729C71.93 95.4326 71.6455 95.6429 71.3115 95.8037C70.9837 95.9707 70.591 96.0542 70.1333 96.0542C69.9972 96.0542 69.8241 96.0356 69.6138 95.9985C69.4035 95.9614 69.255 95.9305 69.1685 95.9058L69.1592 94.5142C69.2087 94.5203 69.286 94.5265 69.3911 94.5327C69.5024 94.5451 69.5798 94.5513 69.623 94.5513C70.0127 94.5513 70.3436 94.4987 70.6157 94.3936C70.8879 94.2946 71.1167 94.1245 71.3022 93.8833C71.494 93.6483 71.6579 93.3236 71.7939 92.9092L72.5083 90.9609ZM70.458 81.9619L73.0649 89.7549L73.5103 91.564L72.2764 92.1948L68.584 81.9619H70.458Z" fill="#4D4C4B"/>
</g>
</g>
<g id="Footer_LinkItem_3">
<g id="Link_3">
<path id="Link / Large Screen / Body Regular / Disabled_3" d="M22.5684 128.689L18.0967 141H16.269L21.418 127.492H22.5962L22.5684 128.689ZM26.3164 141L21.8354 128.689L21.8076 127.492H22.9858L28.1533 141H26.3164ZM26.0845 136V137.465H18.4956V136H26.0845ZM33.7197 139.775C34.1279 139.775 34.5052 139.692 34.8516 139.525C35.1979 139.358 35.4824 139.129 35.7051 138.838C35.9277 138.542 36.0545 138.204 36.0854 137.827H37.7183C37.6873 138.421 37.4863 138.974 37.1152 139.488C36.7503 139.995 36.271 140.406 35.6772 140.722C35.0835 141.031 34.431 141.186 33.7197 141.186C32.9652 141.186 32.3065 141.053 31.7437 140.787C31.187 140.521 30.7231 140.156 30.3521 139.692C29.9871 139.228 29.7119 138.696 29.5264 138.096C29.347 137.49 29.2573 136.85 29.2573 136.176V135.786C29.2573 135.112 29.347 134.475 29.5264 133.875C29.7119 133.269 29.9871 132.734 30.3521 132.27C30.7231 131.806 31.187 131.441 31.7437 131.175C32.3065 130.909 32.9652 130.776 33.7197 130.776C34.5052 130.776 35.1917 130.937 35.7793 131.259C36.3669 131.574 36.8276 132.007 37.1616 132.558C37.5018 133.102 37.6873 133.72 37.7183 134.413H36.0854C36.0545 133.999 35.937 133.625 35.7329 133.291C35.535 132.957 35.2629 132.691 34.9165 132.493C34.5763 132.289 34.1774 132.187 33.7197 132.187C33.194 132.187 32.7518 132.292 32.3931 132.502C32.0405 132.706 31.7591 132.984 31.5488 133.337C31.3447 133.683 31.1963 134.07 31.1035 134.497C31.0169 134.917 30.9736 135.347 30.9736 135.786V136.176C30.9736 136.615 31.0169 137.048 31.1035 137.475C31.1901 137.901 31.3354 138.288 31.5396 138.634C31.7498 138.981 32.0312 139.259 32.3838 139.469C32.7425 139.673 33.1878 139.775 33.7197 139.775ZM43.665 139.775C44.0732 139.775 44.4505 139.692 44.7969 139.525C45.1432 139.358 45.4277 139.129 45.6504 138.838C45.873 138.542 45.9998 138.204 46.0308 137.827H47.6636C47.6326 138.421 47.4316 138.974 47.0605 139.488C46.6956 139.995 46.2163 140.406 45.6226 140.722C45.0288 141.031 44.3763 141.186 43.665 141.186C42.9105 141.186 42.2518 141.053 41.689 140.787C41.1323 140.521 40.6685 140.156 40.2974 139.692C39.9325 139.228 39.6572 138.696 39.4717 138.096C39.2923 137.49 39.2026 136.85 39.2026 136.176V135.786C39.2026 135.112 39.2923 134.475 39.4717 133.875C39.6572 133.269 39.9325 132.734 40.2974 132.27C40.6685 131.806 41.1323 131.441 41.689 131.175C42.2518 130.909 42.9105 130.776 43.665 130.776C44.4505 130.776 45.137 130.937 45.7246 131.259C46.3122 131.574 46.7729 132.007 47.1069 132.558C47.4471 133.102 47.6326 133.72 47.6636 134.413H46.0308C45.9998 133.999 45.8823 133.625 45.6782 133.291C45.4803 132.957 45.2082 132.691 44.8618 132.493C44.5216 132.289 44.1227 132.187 43.665 132.187C43.1393 132.187 42.6971 132.292 42.3384 132.502C41.9858 132.706 41.7044 132.984 41.4941 133.337C41.29 133.683 41.1416 134.07 41.0488 134.497C40.9622 134.917 40.9189 135.347 40.9189 135.786V136.176C40.9189 136.615 40.9622 137.048 41.0488 137.475C41.1354 137.901 41.2808 138.288 41.4849 138.634C41.6951 138.981 41.9766 139.259 42.3291 139.469C42.6878 139.673 43.1331 139.775 43.665 139.775ZM53.7588 141.186C53.0599 141.186 52.4259 141.068 51.8569 140.833C51.2941 140.592 50.8086 140.255 50.4004 139.822C49.9984 139.389 49.6891 138.875 49.4727 138.282C49.2562 137.688 49.1479 137.039 49.1479 136.333V135.944C49.1479 135.127 49.2686 134.401 49.5098 133.764C49.751 133.12 50.0788 132.576 50.4932 132.131C50.9076 131.686 51.3776 131.348 51.9033 131.12C52.429 130.891 52.9733 130.776 53.5361 130.776C54.2536 130.776 54.8721 130.9 55.3916 131.147C55.9173 131.395 56.3472 131.741 56.6812 132.187C57.0151 132.626 57.2625 133.145 57.4233 133.745C57.5841 134.339 57.6646 134.988 57.6646 135.693V136.463H50.1685V135.062H55.9482V134.933C55.9235 134.487 55.8307 134.054 55.6699 133.634C55.5153 133.213 55.2679 132.867 54.9277 132.595C54.5876 132.323 54.1237 132.187 53.5361 132.187C53.1465 132.187 52.7878 132.27 52.46 132.437C52.1322 132.598 51.8507 132.839 51.6157 133.161C51.3807 133.482 51.1982 133.875 51.0684 134.339C50.9385 134.803 50.8735 135.338 50.8735 135.944V136.333C50.8735 136.81 50.9385 137.258 51.0684 137.679C51.2044 138.093 51.3993 138.458 51.6528 138.773C51.9126 139.089 52.2249 139.336 52.5898 139.516C52.9609 139.695 53.3815 139.785 53.8516 139.785C54.4577 139.785 54.971 139.661 55.3916 139.414C55.8122 139.166 56.1802 138.835 56.4956 138.421L57.5347 139.247C57.3182 139.574 57.043 139.887 56.709 140.184C56.375 140.48 55.9637 140.722 55.4751 140.907C54.9927 141.093 54.4206 141.186 53.7588 141.186ZM65.5132 138.337C65.5132 138.09 65.4575 137.861 65.3462 137.651C65.241 137.434 65.0215 137.24 64.6875 137.066C64.3597 136.887 63.8649 136.732 63.2031 136.603C62.6465 136.485 62.1424 136.346 61.6909 136.185C61.2456 136.024 60.8652 135.829 60.5498 135.601C60.2406 135.372 60.0024 135.103 59.8354 134.793C59.6685 134.484 59.585 134.122 59.585 133.708C59.585 133.312 59.6715 132.938 59.8447 132.585C60.0241 132.233 60.2746 131.921 60.5962 131.648C60.924 131.376 61.3167 131.163 61.7744 131.008C62.2321 130.854 62.7424 130.776 63.3052 130.776C64.1092 130.776 64.7957 130.919 65.3647 131.203C65.9338 131.488 66.3698 131.868 66.6729 132.344C66.9759 132.814 67.1274 133.337 67.1274 133.912H65.4111C65.4111 133.634 65.3276 133.365 65.1606 133.105C64.9998 132.839 64.7617 132.619 64.4463 132.446C64.137 132.273 63.7567 132.187 63.3052 132.187C62.8289 132.187 62.4424 132.261 62.1455 132.409C61.8548 132.551 61.6414 132.734 61.5054 132.957C61.3755 133.179 61.3105 133.414 61.3105 133.662C61.3105 133.847 61.3415 134.014 61.4033 134.163C61.4714 134.305 61.5889 134.438 61.7559 134.562C61.9229 134.679 62.1579 134.79 62.4609 134.896C62.764 135.001 63.1506 135.106 63.6206 135.211C64.4432 135.396 65.1204 135.619 65.6523 135.879C66.1842 136.139 66.5801 136.457 66.8398 136.834C67.0996 137.212 67.2295 137.669 67.2295 138.208C67.2295 138.647 67.1367 139.049 66.9512 139.414C66.7718 139.778 66.509 140.094 66.1626 140.36C65.8224 140.62 65.4142 140.824 64.938 140.972C64.4679 141.114 63.9391 141.186 63.3516 141.186C62.4671 141.186 61.7188 141.028 61.1064 140.712C60.4941 140.397 60.0303 139.989 59.7148 139.488C59.3994 138.987 59.2417 138.458 59.2417 137.901H60.9673C60.992 138.371 61.1281 138.746 61.3755 139.024C61.6229 139.296 61.9259 139.491 62.2847 139.608C62.6434 139.72 62.999 139.775 63.3516 139.775C63.8216 139.775 64.2144 139.714 64.5298 139.59C64.8514 139.466 65.0957 139.296 65.2627 139.08C65.4297 138.863 65.5132 138.616 65.5132 138.337ZM75.3286 138.337C75.3286 138.09 75.2729 137.861 75.1616 137.651C75.0565 137.434 74.8369 137.24 74.5029 137.066C74.1751 136.887 73.6803 136.732 73.0186 136.603C72.4619 136.485 71.9578 136.346 71.5063 136.185C71.061 136.024 70.6807 135.829 70.3652 135.601C70.056 135.372 69.8179 135.103 69.6509 134.793C69.4839 134.484 69.4004 134.122 69.4004 133.708C69.4004 133.312 69.487 132.938 69.6602 132.585C69.8395 132.233 70.09 131.921 70.4116 131.648C70.7394 131.376 71.1322 131.163 71.5898 131.008C72.0475 130.854 72.5578 130.776 73.1206 130.776C73.9246 130.776 74.6112 130.919 75.1802 131.203C75.7492 131.488 76.1852 131.868 76.4883 132.344C76.7913 132.814 76.9429 133.337 76.9429 133.912H75.2266C75.2266 133.634 75.1431 133.365 74.9761 133.105C74.8153 132.839 74.5771 132.619 74.2617 132.446C73.9525 132.273 73.5721 132.187 73.1206 132.187C72.6444 132.187 72.2578 132.261 71.9609 132.409C71.6702 132.551 71.4569 132.734 71.3208 132.957C71.1909 133.179 71.126 133.414 71.126 133.662C71.126 133.847 71.1569 134.014 71.2188 134.163C71.2868 134.305 71.4043 134.438 71.5713 134.562C71.7383 134.679 71.9733 134.79 72.2764 134.896C72.5794 135.001 72.966 135.106 73.436 135.211C74.2586 135.396 74.9359 135.619 75.4678 135.879C75.9997 136.139 76.3955 136.457 76.6553 136.834C76.915 137.212 77.0449 137.669 77.0449 138.208C77.0449 138.647 76.9521 139.049 76.7666 139.414C76.5872 139.778 76.3244 140.094 75.978 140.36C75.6379 140.62 75.2297 140.824 74.7534 140.972C74.2834 141.114 73.7546 141.186 73.167 141.186C72.2826 141.186 71.5342 141.028 70.9219 140.712C70.3096 140.397 69.8457 139.989 69.5303 139.488C69.2148 138.987 69.0571 138.458 69.0571 137.901H70.7827C70.8075 138.371 70.9435 138.746 71.1909 139.024C71.4383 139.296 71.7414 139.491 72.1001 139.608C72.4588 139.72 72.8145 139.775 73.167 139.775C73.637 139.775 74.0298 139.714 74.3452 139.59C74.6668 139.466 74.9111 139.296 75.0781 139.08C75.2451 138.863 75.3286 138.616 75.3286 138.337ZM81.1641 130.962V141H79.4385V130.962H81.1641ZM79.3086 128.299C79.3086 128.021 79.3921 127.786 79.5591 127.594C79.7323 127.403 79.9858 127.307 80.3198 127.307C80.6476 127.307 80.8981 127.403 81.0713 127.594C81.2507 127.786 81.3403 128.021 81.3403 128.299C81.3403 128.565 81.2507 128.794 81.0713 128.986C80.8981 129.171 80.6476 129.264 80.3198 129.264C79.9858 129.264 79.7323 129.171 79.5591 128.986C79.3921 128.794 79.3086 128.565 79.3086 128.299ZM83.9102 126.75H85.6357V139.052L85.4873 141H83.9102V126.75ZM92.4175 135.897V136.092C92.4175 136.822 92.3309 137.499 92.1577 138.124C91.9845 138.743 91.731 139.281 91.397 139.738C91.063 140.196 90.6548 140.552 90.1724 140.805C89.6899 141.059 89.1364 141.186 88.5117 141.186C87.8747 141.186 87.3149 141.077 86.8325 140.861C86.3563 140.638 85.9543 140.32 85.6265 139.905C85.2987 139.491 85.0358 138.99 84.8379 138.402C84.6462 137.815 84.5132 137.153 84.439 136.417V135.563C84.5132 134.821 84.6462 134.156 84.8379 133.569C85.0358 132.981 85.2987 132.48 85.6265 132.066C85.9543 131.645 86.3563 131.327 86.8325 131.11C87.3088 130.888 87.8623 130.776 88.4932 130.776C89.124 130.776 89.6838 130.9 90.1724 131.147C90.661 131.389 91.0692 131.735 91.397 132.187C91.731 132.638 91.9845 133.179 92.1577 133.81C92.3309 134.435 92.4175 135.131 92.4175 135.897ZM90.6919 136.092V135.897C90.6919 135.396 90.6455 134.926 90.5527 134.487C90.46 134.042 90.3115 133.652 90.1074 133.318C89.9033 132.978 89.6343 132.712 89.3003 132.521C88.9663 132.323 88.555 132.224 88.0664 132.224C87.6335 132.224 87.2562 132.298 86.9346 132.446C86.6191 132.595 86.3501 132.796 86.1274 133.049C85.9048 133.297 85.7223 133.581 85.5801 133.903C85.444 134.218 85.342 134.546 85.2739 134.886V137.122C85.3729 137.555 85.5337 137.972 85.7563 138.375C85.9852 138.77 86.2882 139.095 86.6655 139.349C87.049 139.602 87.5221 139.729 88.085 139.729C88.5488 139.729 88.9447 139.636 89.2725 139.451C89.6064 139.259 89.8755 138.996 90.0796 138.662C90.2899 138.328 90.4445 137.942 90.5435 137.502C90.6424 137.063 90.6919 136.593 90.6919 136.092ZM96.4531 130.962V141H94.7275V130.962H96.4531ZM94.5977 128.299C94.5977 128.021 94.6812 127.786 94.8481 127.594C95.0213 127.403 95.2749 127.307 95.6089 127.307C95.9367 127.307 96.1872 127.403 96.3604 127.594C96.5397 127.786 96.6294 128.021 96.6294 128.299C96.6294 128.565 96.5397 128.794 96.3604 128.986C96.1872 129.171 95.9367 129.264 95.6089 129.264C95.2749 129.264 95.0213 129.171 94.8481 128.986C94.6812 128.794 94.5977 128.565 94.5977 128.299ZM101.073 126.75V141H99.3477V126.75H101.073ZM105.693 130.962V141H103.968V130.962H105.693ZM103.838 128.299C103.838 128.021 103.921 127.786 104.088 127.594C104.262 127.403 104.515 127.307 104.849 127.307C105.177 127.307 105.427 127.403 105.601 127.594C105.78 127.786 105.87 128.021 105.87 128.299C105.87 128.565 105.78 128.794 105.601 128.986C105.427 129.171 105.177 129.264 104.849 129.264C104.515 129.264 104.262 129.171 104.088 128.986C103.921 128.794 103.838 128.565 103.838 128.299ZM112.651 130.962V132.279H107.224V130.962H112.651ZM109.061 128.522H110.777V138.514C110.777 138.854 110.83 139.111 110.935 139.284C111.04 139.457 111.176 139.571 111.343 139.627C111.51 139.683 111.69 139.71 111.881 139.71C112.024 139.71 112.172 139.698 112.327 139.673C112.487 139.642 112.608 139.618 112.688 139.599L112.698 141C112.562 141.043 112.382 141.083 112.16 141.121C111.943 141.164 111.68 141.186 111.371 141.186C110.951 141.186 110.564 141.102 110.211 140.935C109.859 140.768 109.577 140.49 109.367 140.1C109.163 139.704 109.061 139.172 109.061 138.504V128.522ZM117.485 139.961L120.277 130.962H122.114L118.088 142.549C117.995 142.797 117.871 143.063 117.717 143.347C117.568 143.638 117.377 143.913 117.142 144.173C116.907 144.433 116.622 144.643 116.288 144.804C115.96 144.971 115.568 145.054 115.11 145.054C114.974 145.054 114.801 145.036 114.59 144.999C114.38 144.961 114.232 144.931 114.145 144.906L114.136 143.514C114.185 143.52 114.263 143.527 114.368 143.533C114.479 143.545 114.556 143.551 114.6 143.551C114.989 143.551 115.32 143.499 115.592 143.394C115.864 143.295 116.093 143.125 116.279 142.883C116.471 142.648 116.634 142.324 116.771 141.909L117.485 139.961ZM115.435 130.962L118.042 138.755L118.487 140.564L117.253 141.195L113.561 130.962H115.435Z" fill="#4D4C4B"/>
</g>
</g>
<g id="Footer_LinkItem_4">
<g id="Link_4">
<path id="Link / Large Screen / Body Regular / Disabled_4" d="M25.7227 185.705H27.5039C27.4111 186.558 27.1668 187.322 26.771 187.996C26.3752 188.67 25.8154 189.205 25.0918 189.601C24.3682 189.991 23.4652 190.186 22.3828 190.186C21.5911 190.186 20.8706 190.037 20.2212 189.74C19.578 189.443 19.0244 189.023 18.5605 188.479C18.0967 187.928 17.738 187.269 17.4844 186.502C17.237 185.729 17.1133 184.87 17.1133 183.923V182.578C17.1133 181.632 17.237 180.775 17.4844 180.008C17.738 179.235 18.0998 178.573 18.5698 178.023C19.0461 177.472 19.6182 177.049 20.2861 176.752C20.9541 176.455 21.7056 176.307 22.5405 176.307C23.561 176.307 24.4238 176.498 25.1289 176.882C25.834 177.265 26.3813 177.797 26.771 178.478C27.1668 179.152 27.4111 179.934 27.5039 180.825H25.7227C25.6361 180.194 25.4753 179.653 25.2402 179.201C25.0052 178.743 24.6712 178.391 24.2383 178.144C23.8053 177.896 23.2394 177.772 22.5405 177.772C21.9406 177.772 21.4118 177.887 20.9541 178.116C20.5026 178.345 20.1222 178.669 19.813 179.09C19.5099 179.51 19.2811 180.014 19.1265 180.602C18.9718 181.19 18.8945 181.842 18.8945 182.56V183.923C18.8945 184.585 18.9626 185.207 19.0986 185.788C19.2409 186.369 19.4543 186.88 19.7388 187.319C20.0233 187.758 20.3851 188.104 20.8242 188.358C21.2633 188.605 21.7829 188.729 22.3828 188.729C23.1436 188.729 23.7497 188.608 24.2012 188.367C24.6527 188.126 24.9928 187.78 25.2217 187.328C25.4567 186.877 25.6237 186.335 25.7227 185.705ZM29.2295 185.092V184.879C29.2295 184.155 29.3346 183.484 29.5449 182.866C29.7552 182.241 30.0583 181.7 30.4541 181.242C30.8499 180.778 31.3293 180.42 31.8921 180.166C32.4549 179.906 33.0858 179.776 33.7847 179.776C34.4897 179.776 35.1237 179.906 35.6865 180.166C36.2555 180.42 36.738 180.778 37.1338 181.242C37.5358 181.7 37.842 182.241 38.0522 182.866C38.2625 183.484 38.3677 184.155 38.3677 184.879V185.092C38.3677 185.816 38.2625 186.487 38.0522 187.105C37.842 187.724 37.5358 188.265 37.1338 188.729C36.738 189.187 36.2586 189.545 35.6958 189.805C35.1392 190.059 34.5083 190.186 33.8032 190.186C33.0981 190.186 32.4642 190.059 31.9014 189.805C31.3385 189.545 30.8561 189.187 30.4541 188.729C30.0583 188.265 29.7552 187.724 29.5449 187.105C29.3346 186.487 29.2295 185.816 29.2295 185.092ZM30.9458 184.879V185.092C30.9458 185.593 31.0046 186.066 31.1221 186.512C31.2396 186.951 31.4159 187.34 31.6509 187.681C31.8921 188.021 32.1921 188.29 32.5508 188.488C32.9095 188.68 33.327 188.775 33.8032 188.775C34.2733 188.775 34.6846 188.68 35.0371 188.488C35.3958 188.29 35.6927 188.021 35.9277 187.681C36.1628 187.34 36.339 186.951 36.4565 186.512C36.5802 186.066 36.6421 185.593 36.6421 185.092V184.879C36.6421 184.384 36.5802 183.917 36.4565 183.478C36.339 183.033 36.1597 182.64 35.9185 182.3C35.6834 181.953 35.3866 181.681 35.0278 181.483C34.6753 181.285 34.2609 181.187 33.7847 181.187C33.3146 181.187 32.9002 181.285 32.5415 181.483C32.189 181.681 31.8921 181.953 31.6509 182.3C31.4159 182.64 31.2396 183.033 31.1221 183.478C31.0046 183.917 30.9458 184.384 30.9458 184.879ZM40.0654 185.092V184.879C40.0654 184.155 40.1706 183.484 40.3809 182.866C40.5911 182.241 40.8942 181.7 41.29 181.242C41.6859 180.778 42.1652 180.42 42.728 180.166C43.2909 179.906 43.9217 179.776 44.6206 179.776C45.3257 179.776 45.9596 179.906 46.5225 180.166C47.0915 180.42 47.5739 180.778 47.9697 181.242C48.3717 181.7 48.6779 182.241 48.8882 182.866C49.0985 183.484 49.2036 184.155 49.2036 184.879V185.092C49.2036 185.816 49.0985 186.487 48.8882 187.105C48.6779 187.724 48.3717 188.265 47.9697 188.729C47.5739 189.187 47.0946 189.545 46.5317 189.805C45.9751 190.059 45.3442 190.186 44.6392 190.186C43.9341 190.186 43.3001 190.059 42.7373 189.805C42.1745 189.545 41.6921 189.187 41.29 188.729C40.8942 188.265 40.5911 187.724 40.3809 187.105C40.1706 186.487 40.0654 185.816 40.0654 185.092ZM41.7817 184.879V185.092C41.7817 185.593 41.8405 186.066 41.958 186.512C42.0755 186.951 42.2518 187.34 42.4868 187.681C42.728 188.021 43.028 188.29 43.3867 188.488C43.7454 188.68 44.1629 188.775 44.6392 188.775C45.1092 188.775 45.5205 188.68 45.873 188.488C46.2318 188.29 46.5286 188.021 46.7637 187.681C46.9987 187.34 47.175 186.951 47.2925 186.512C47.4162 186.066 47.478 185.593 47.478 185.092V184.879C47.478 184.384 47.4162 183.917 47.2925 183.478C47.175 183.033 46.9956 182.64 46.7544 182.3C46.5194 181.953 46.2225 181.681 45.8638 181.483C45.5112 181.285 45.0968 181.187 44.6206 181.187C44.1506 181.187 43.7362 181.285 43.3774 181.483C43.0249 181.681 42.728 181.953 42.4868 182.3C42.2518 182.64 42.0755 183.033 41.958 183.478C41.8405 183.917 41.7817 184.384 41.7817 184.879ZM53.0815 175.75V190H51.356V175.75H53.0815ZM59.2139 179.962L54.835 184.647L52.3857 187.189L52.2466 185.361L54 183.265L57.1172 179.962H59.2139ZM57.646 190L54.0649 185.213L54.9556 183.682L59.6685 190H57.646ZM62.8506 179.962V190H61.125V179.962H62.8506ZM60.9951 177.299C60.9951 177.021 61.0786 176.786 61.2456 176.594C61.4188 176.403 61.6724 176.307 62.0063 176.307C62.3341 176.307 62.5846 176.403 62.7578 176.594C62.9372 176.786 63.0269 177.021 63.0269 177.299C63.0269 177.565 62.9372 177.794 62.7578 177.986C62.5846 178.171 62.3341 178.264 62.0063 178.264C61.6724 178.264 61.4188 178.171 61.2456 177.986C61.0786 177.794 60.9951 177.565 60.9951 177.299ZM69.7715 190.186C69.0726 190.186 68.4386 190.068 67.8696 189.833C67.3068 189.592 66.8213 189.255 66.4131 188.822C66.0111 188.389 65.7018 187.875 65.4854 187.282C65.2689 186.688 65.1606 186.039 65.1606 185.333V184.944C65.1606 184.127 65.2812 183.401 65.5225 182.764C65.7637 182.12 66.0915 181.576 66.5059 181.131C66.9202 180.686 67.3903 180.348 67.916 180.12C68.4417 179.891 68.986 179.776 69.5488 179.776C70.2663 179.776 70.8848 179.9 71.4043 180.147C71.93 180.395 72.3599 180.741 72.6938 181.187C73.0278 181.626 73.2752 182.145 73.436 182.745C73.5968 183.339 73.6772 183.988 73.6772 184.693V185.463H66.1812V184.062H71.9609V183.933C71.9362 183.487 71.8434 183.054 71.6826 182.634C71.528 182.213 71.2806 181.867 70.9404 181.595C70.6003 181.323 70.1364 181.187 69.5488 181.187C69.1592 181.187 68.8005 181.27 68.4727 181.437C68.1449 181.598 67.8634 181.839 67.6284 182.161C67.3934 182.482 67.2109 182.875 67.0811 183.339C66.9512 183.803 66.8862 184.338 66.8862 184.944V185.333C66.8862 185.81 66.9512 186.258 67.0811 186.679C67.2171 187.093 67.4119 187.458 67.6655 187.773C67.9253 188.089 68.2376 188.336 68.6025 188.516C68.9736 188.695 69.3942 188.785 69.8643 188.785C70.4704 188.785 70.9837 188.661 71.4043 188.414C71.8249 188.166 72.1929 187.835 72.5083 187.421L73.5474 188.247C73.3309 188.574 73.0557 188.887 72.7217 189.184C72.3877 189.48 71.9764 189.722 71.4878 189.907C71.0054 190.093 70.4333 190.186 69.7715 190.186ZM81.5259 187.337C81.5259 187.09 81.4702 186.861 81.3589 186.651C81.2537 186.434 81.0342 186.24 80.7002 186.066C80.3724 185.887 79.8776 185.732 79.2158 185.603C78.6592 185.485 78.1551 185.346 77.7036 185.185C77.2583 185.024 76.8779 184.829 76.5625 184.601C76.2533 184.372 76.0151 184.103 75.8481 183.793C75.6812 183.484 75.5977 183.122 75.5977 182.708C75.5977 182.312 75.6842 181.938 75.8574 181.585C76.0368 181.233 76.2873 180.921 76.6089 180.648C76.9367 180.376 77.3294 180.163 77.7871 180.008C78.2448 179.854 78.755 179.776 79.3179 179.776C80.1219 179.776 80.8084 179.919 81.3774 180.203C81.9465 180.488 82.3825 180.868 82.6855 181.344C82.9886 181.814 83.1401 182.337 83.1401 182.912H81.4238C81.4238 182.634 81.3403 182.365 81.1733 182.105C81.0125 181.839 80.7744 181.619 80.459 181.446C80.1497 181.273 79.7694 181.187 79.3179 181.187C78.8416 181.187 78.4551 181.261 78.1582 181.409C77.8675 181.551 77.6541 181.734 77.5181 181.957C77.3882 182.179 77.3232 182.414 77.3232 182.662C77.3232 182.847 77.3542 183.014 77.416 183.163C77.484 183.305 77.6016 183.438 77.7686 183.562C77.9355 183.679 78.1706 183.79 78.4736 183.896C78.7767 184.001 79.1632 184.106 79.6333 184.211C80.4559 184.396 81.1331 184.619 81.665 184.879C82.1969 185.139 82.5928 185.457 82.8525 185.834C83.1123 186.212 83.2422 186.669 83.2422 187.208C83.2422 187.647 83.1494 188.049 82.9639 188.414C82.7845 188.778 82.5216 189.094 82.1753 189.36C81.8351 189.62 81.4269 189.824 80.9507 189.972C80.4806 190.114 79.9518 190.186 79.3643 190.186C78.4798 190.186 77.7314 190.028 77.1191 189.712C76.5068 189.397 76.043 188.989 75.7275 188.488C75.4121 187.987 75.2544 187.458 75.2544 186.901H76.98C77.0047 187.371 77.1408 187.746 77.3882 188.024C77.6356 188.296 77.9386 188.491 78.2974 188.608C78.6561 188.72 79.0117 188.775 79.3643 188.775C79.8343 188.775 80.2271 188.714 80.5425 188.59C80.8641 188.466 81.1084 188.296 81.2754 188.08C81.4424 187.863 81.5259 187.616 81.5259 187.337Z" fill="#4D4C4B"/>
</g>
</g>
<g id="Footer_LinkItem_5">
<g id="Link_5">
<path id="Link / Large Screen / Body Regular / Disabled_5" d="M22.5591 225.492V239H20.7964V225.492H22.5591ZM26.9009 225.492V226.958H16.4639V225.492H26.9009ZM31.8828 239.186C31.1839 239.186 30.55 239.068 29.981 238.833C29.4181 238.592 28.9326 238.255 28.5244 237.822C28.1224 237.389 27.8132 236.875 27.5967 236.282C27.3802 235.688 27.272 235.039 27.272 234.333V233.944C27.272 233.127 27.3926 232.401 27.6338 231.764C27.875 231.12 28.2028 230.576 28.6172 230.131C29.0316 229.686 29.5016 229.348 30.0273 229.12C30.5531 228.891 31.0973 228.776 31.6602 228.776C32.3776 228.776 32.9961 228.9 33.5156 229.147C34.0413 229.395 34.4712 229.741 34.8052 230.187C35.1392 230.626 35.3866 231.145 35.5474 231.745C35.7082 232.339 35.7886 232.988 35.7886 233.693V234.463H28.2925V233.062H34.0723V232.933C34.0475 232.487 33.9548 232.054 33.7939 231.634C33.6393 231.213 33.3919 230.867 33.0518 230.595C32.7116 230.323 32.2477 230.187 31.6602 230.187C31.2705 230.187 30.9118 230.27 30.584 230.437C30.2562 230.598 29.9748 230.839 29.7397 231.161C29.5047 231.482 29.3223 231.875 29.1924 232.339C29.0625 232.803 28.9976 233.338 28.9976 233.944V234.333C28.9976 234.81 29.0625 235.258 29.1924 235.679C29.3285 236.093 29.5233 236.458 29.7769 236.773C30.0366 237.089 30.349 237.336 30.7139 237.516C31.085 237.695 31.5055 237.785 31.9756 237.785C32.5817 237.785 33.0951 237.661 33.5156 237.414C33.9362 237.166 34.3042 236.835 34.6196 236.421L35.6587 237.247C35.4422 237.574 35.167 237.887 34.833 238.184C34.499 238.48 34.0877 238.722 33.5991 238.907C33.1167 239.093 32.5446 239.186 31.8828 239.186ZM39.5088 230.539V239H37.7925V228.962H39.4624L39.5088 230.539ZM42.6445 228.906L42.6353 230.502C42.493 230.471 42.3569 230.452 42.2271 230.446C42.1034 230.434 41.9611 230.428 41.8003 230.428C41.4045 230.428 41.055 230.49 40.752 230.613C40.4489 230.737 40.1922 230.91 39.9819 231.133C39.7716 231.355 39.6047 231.621 39.481 231.931C39.3634 232.234 39.2861 232.568 39.249 232.933L38.7666 233.211C38.7666 232.605 38.8254 232.036 38.9429 231.504C39.0666 230.972 39.2552 230.502 39.5088 230.094C39.7624 229.679 40.084 229.358 40.4736 229.129C40.8695 228.894 41.3395 228.776 41.8838 228.776C42.0075 228.776 42.1497 228.792 42.3105 228.823C42.4714 228.847 42.5827 228.875 42.6445 228.906ZM45.938 230.957V239H44.2124V228.962H45.8452L45.938 230.957ZM45.5854 233.601L44.7876 233.573C44.7938 232.886 44.8835 232.252 45.0566 231.671C45.2298 231.083 45.4865 230.573 45.8267 230.14C46.1668 229.707 46.5905 229.373 47.0977 229.138C47.6048 228.897 48.1924 228.776 48.8604 228.776C49.3304 228.776 49.7633 228.844 50.1592 228.98C50.555 229.11 50.8983 229.318 51.189 229.602C51.4797 229.887 51.7054 230.251 51.8662 230.697C52.027 231.142 52.1074 231.68 52.1074 232.311V239H50.3911V232.395C50.3911 231.869 50.3014 231.448 50.1221 231.133C49.9489 230.817 49.7015 230.589 49.3799 230.446C49.0583 230.298 48.681 230.224 48.248 230.224C47.7409 230.224 47.3172 230.313 46.9771 230.493C46.6369 230.672 46.3647 230.919 46.1606 231.235C45.9565 231.55 45.8081 231.912 45.7153 232.32C45.6287 232.722 45.5854 233.149 45.5854 233.601ZM52.0889 232.654L50.9385 233.007C50.9447 232.456 51.0343 231.928 51.2075 231.42C51.3869 230.913 51.6436 230.462 51.9775 230.066C52.3177 229.67 52.7352 229.358 53.23 229.129C53.7248 228.894 54.2907 228.776 54.9277 228.776C55.4658 228.776 55.9421 228.847 56.3564 228.99C56.777 229.132 57.1296 229.352 57.4141 229.648C57.7048 229.939 57.9243 230.313 58.0728 230.771C58.2212 231.229 58.2954 231.773 58.2954 232.404V239H56.5698V232.385C56.5698 231.822 56.4801 231.386 56.3008 231.077C56.1276 230.762 55.8802 230.542 55.5586 230.418C55.2432 230.289 54.8659 230.224 54.4268 230.224C54.0495 230.224 53.7155 230.289 53.4248 230.418C53.1341 230.548 52.8898 230.728 52.6919 230.957C52.494 231.179 52.3424 231.436 52.2373 231.727C52.1383 232.017 52.0889 232.326 52.0889 232.654ZM66.7378 236.337C66.7378 236.09 66.6821 235.861 66.5708 235.651C66.4657 235.434 66.2461 235.24 65.9121 235.066C65.5843 234.887 65.0895 234.732 64.4277 234.603C63.8711 234.485 63.367 234.346 62.9155 234.185C62.4702 234.024 62.0898 233.829 61.7744 233.601C61.4652 233.372 61.2271 233.103 61.0601 232.793C60.8931 232.484 60.8096 232.122 60.8096 231.708C60.8096 231.312 60.8962 230.938 61.0693 230.585C61.2487 230.233 61.4992 229.921 61.8208 229.648C62.1486 229.376 62.5413 229.163 62.999 229.008C63.4567 228.854 63.967 228.776 64.5298 228.776C65.3338 228.776 66.0203 228.919 66.5894 229.203C67.1584 229.488 67.5944 229.868 67.8975 230.344C68.2005 230.814 68.3521 231.337 68.3521 231.912H66.6357C66.6357 231.634 66.5522 231.365 66.3853 231.105C66.2244 230.839 65.9863 230.619 65.6709 230.446C65.3617 230.273 64.9813 230.187 64.5298 230.187C64.0535 230.187 63.667 230.261 63.3701 230.409C63.0794 230.551 62.866 230.734 62.73 230.957C62.6001 231.179 62.5352 231.414 62.5352 231.662C62.5352 231.847 62.5661 232.014 62.6279 232.163C62.696 232.305 62.8135 232.438 62.9805 232.562C63.1475 232.679 63.3825 232.79 63.6855 232.896C63.9886 233.001 64.3752 233.106 64.8452 233.211C65.6678 233.396 66.3451 233.619 66.877 233.879C67.4089 234.139 67.8047 234.457 68.0645 234.834C68.3242 235.212 68.4541 235.669 68.4541 236.208C68.4541 236.647 68.3613 237.049 68.1758 237.414C67.9964 237.778 67.7336 238.094 67.3872 238.36C67.047 238.62 66.6388 238.824 66.1626 238.972C65.6925 239.114 65.1637 239.186 64.5762 239.186C63.6917 239.186 62.9434 239.028 62.3311 238.712C61.7188 238.397 61.2549 237.989 60.9395 237.488C60.624 236.987 60.4663 236.458 60.4663 235.901H62.1919C62.2166 236.371 62.3527 236.746 62.6001 237.024C62.8475 237.296 63.1506 237.491 63.5093 237.608C63.868 237.72 64.2236 237.775 64.5762 237.775C65.0462 237.775 65.439 237.714 65.7544 237.59C66.076 237.466 66.3203 237.296 66.4873 237.08C66.6543 236.863 66.7378 236.616 66.7378 236.337ZM81.3403 237.284V232.116C81.3403 231.72 81.2599 231.377 81.0991 231.086C80.9445 230.79 80.7095 230.561 80.394 230.4C80.0786 230.239 79.689 230.159 79.2251 230.159C78.7922 230.159 78.4118 230.233 78.084 230.381C77.7624 230.53 77.5088 230.725 77.3232 230.966C77.1439 231.207 77.0542 231.467 77.0542 231.745H75.3379C75.3379 231.386 75.4307 231.031 75.6162 230.678C75.8018 230.326 76.0677 230.007 76.4141 229.723C76.7666 229.432 77.1872 229.203 77.6758 229.036C78.1706 228.863 78.721 228.776 79.3271 228.776C80.057 228.776 80.7002 228.9 81.2568 229.147C81.8197 229.395 82.2588 229.769 82.5742 230.27C82.8958 230.765 83.0566 231.386 83.0566 232.135V236.811C83.0566 237.145 83.0845 237.5 83.1401 237.877C83.202 238.255 83.2917 238.579 83.4092 238.852V239H81.6187C81.5321 238.802 81.464 238.539 81.4146 238.211C81.3651 237.877 81.3403 237.568 81.3403 237.284ZM81.6372 232.914L81.6558 234.12H79.9209C79.4323 234.12 78.9963 234.16 78.6128 234.241C78.2293 234.315 77.9077 234.429 77.6479 234.584C77.3882 234.739 77.1903 234.933 77.0542 235.168C76.9181 235.397 76.8501 235.666 76.8501 235.976C76.8501 236.291 76.9212 236.579 77.0635 236.838C77.2057 237.098 77.4191 237.305 77.7036 237.46C77.9943 237.608 78.3499 237.683 78.7705 237.683C79.2962 237.683 79.7601 237.571 80.1621 237.349C80.5641 237.126 80.8826 236.854 81.1177 236.532C81.3589 236.211 81.4888 235.898 81.5073 235.595L82.2402 236.421C82.1969 236.681 82.0794 236.968 81.8877 237.284C81.696 237.599 81.4393 237.902 81.1177 238.193C80.8022 238.477 80.425 238.715 79.9858 238.907C79.5529 239.093 79.0643 239.186 78.52 239.186C77.8397 239.186 77.2428 239.053 76.7295 238.787C76.2223 238.521 75.8265 238.165 75.542 237.72C75.2637 237.268 75.1245 236.764 75.1245 236.208C75.1245 235.669 75.2297 235.196 75.4399 234.788C75.6502 234.374 75.9533 234.03 76.3491 233.758C76.745 233.48 77.2212 233.27 77.7778 233.127C78.3345 232.985 78.9561 232.914 79.6426 232.914H81.6372ZM87.4727 231.105V239H85.7563V228.962H87.3799L87.4727 231.105ZM87.0645 233.601L86.3501 233.573C86.3563 232.886 86.4583 232.252 86.6562 231.671C86.8542 231.083 87.1325 230.573 87.4912 230.14C87.8499 229.707 88.2767 229.373 88.7715 229.138C89.2725 228.897 89.826 228.776 90.4321 228.776C90.9269 228.776 91.3722 228.844 91.7681 228.98C92.1639 229.11 92.501 229.321 92.7793 229.611C93.0638 229.902 93.2803 230.279 93.4287 230.743C93.5771 231.201 93.6514 231.761 93.6514 232.422V239H91.9258V232.404C91.9258 231.878 91.8485 231.458 91.6938 231.142C91.5392 230.82 91.3135 230.589 91.0166 230.446C90.7197 230.298 90.3548 230.224 89.9219 230.224C89.4951 230.224 89.1055 230.313 88.7529 230.493C88.4066 230.672 88.1066 230.919 87.853 231.235C87.6056 231.55 87.4108 231.912 87.2686 232.32C87.1325 232.722 87.0645 233.149 87.0645 233.601ZM102.585 237.052V224.75H104.311V239H102.734L102.585 237.052ZM95.8315 234.092V233.897C95.8315 233.131 95.9243 232.435 96.1099 231.81C96.3016 231.179 96.5706 230.638 96.917 230.187C97.2695 229.735 97.687 229.389 98.1694 229.147C98.658 228.9 99.2023 228.776 99.8022 228.776C100.433 228.776 100.984 228.888 101.454 229.11C101.93 229.327 102.332 229.645 102.66 230.066C102.994 230.48 103.257 230.981 103.448 231.569C103.64 232.156 103.773 232.821 103.847 233.563V234.417C103.779 235.153 103.646 235.815 103.448 236.402C103.257 236.99 102.994 237.491 102.66 237.905C102.332 238.32 101.93 238.638 101.454 238.861C100.977 239.077 100.421 239.186 99.7837 239.186C99.1961 239.186 98.658 239.059 98.1694 238.805C97.687 238.552 97.2695 238.196 96.917 237.738C96.5706 237.281 96.3016 236.743 96.1099 236.124C95.9243 235.499 95.8315 234.822 95.8315 234.092ZM97.5571 233.897V234.092C97.5571 234.593 97.6066 235.063 97.7056 235.502C97.8107 235.942 97.9715 236.328 98.188 236.662C98.4045 236.996 98.6797 237.259 99.0137 237.451C99.3477 237.636 99.7466 237.729 100.21 237.729C100.779 237.729 101.246 237.608 101.611 237.367C101.982 237.126 102.279 236.807 102.502 236.412C102.725 236.016 102.898 235.586 103.021 235.122V232.886C102.947 232.546 102.839 232.218 102.697 231.903C102.561 231.581 102.381 231.297 102.159 231.049C101.942 230.796 101.673 230.595 101.352 230.446C101.036 230.298 100.662 230.224 100.229 230.224C99.759 230.224 99.3538 230.323 99.0137 230.521C98.6797 230.712 98.4045 230.978 98.188 231.318C97.9715 231.652 97.8107 232.042 97.7056 232.487C97.6066 232.926 97.5571 233.396 97.5571 233.897ZM115.713 237.775C116.121 237.775 116.498 237.692 116.845 237.525C117.191 237.358 117.476 237.129 117.698 236.838C117.921 236.542 118.048 236.204 118.079 235.827H119.711C119.681 236.421 119.479 236.974 119.108 237.488C118.743 237.995 118.264 238.406 117.67 238.722C117.077 239.031 116.424 239.186 115.713 239.186C114.958 239.186 114.3 239.053 113.737 238.787C113.18 238.521 112.716 238.156 112.345 237.692C111.98 237.228 111.705 236.696 111.52 236.096C111.34 235.49 111.25 234.85 111.25 234.176V233.786C111.25 233.112 111.34 232.475 111.52 231.875C111.705 231.269 111.98 230.734 112.345 230.27C112.716 229.806 113.18 229.441 113.737 229.175C114.3 228.909 114.958 228.776 115.713 228.776C116.498 228.776 117.185 228.937 117.772 229.259C118.36 229.574 118.821 230.007 119.155 230.558C119.495 231.102 119.681 231.72 119.711 232.413H118.079C118.048 231.999 117.93 231.625 117.726 231.291C117.528 230.957 117.256 230.691 116.91 230.493C116.569 230.289 116.171 230.187 115.713 230.187C115.187 230.187 114.745 230.292 114.386 230.502C114.034 230.706 113.752 230.984 113.542 231.337C113.338 231.683 113.189 232.07 113.097 232.497C113.01 232.917 112.967 233.347 112.967 233.786V234.176C112.967 234.615 113.01 235.048 113.097 235.475C113.183 235.901 113.329 236.288 113.533 236.634C113.743 236.981 114.024 237.259 114.377 237.469C114.736 237.673 115.181 237.775 115.713 237.775ZM121.187 234.092V233.879C121.187 233.155 121.292 232.484 121.502 231.866C121.712 231.241 122.015 230.7 122.411 230.242C122.807 229.778 123.286 229.42 123.849 229.166C124.412 228.906 125.043 228.776 125.742 228.776C126.447 228.776 127.081 228.906 127.644 229.166C128.213 229.42 128.695 229.778 129.091 230.242C129.493 230.7 129.799 231.241 130.009 231.866C130.22 232.484 130.325 233.155 130.325 233.879V234.092C130.325 234.816 130.22 235.487 130.009 236.105C129.799 236.724 129.493 237.265 129.091 237.729C128.695 238.187 128.216 238.545 127.653 238.805C127.096 239.059 126.465 239.186 125.76 239.186C125.055 239.186 124.421 239.059 123.858 238.805C123.296 238.545 122.813 238.187 122.411 237.729C122.015 237.265 121.712 236.724 121.502 236.105C121.292 235.487 121.187 234.816 121.187 234.092ZM122.903 233.879V234.092C122.903 234.593 122.962 235.066 123.079 235.512C123.197 235.951 123.373 236.34 123.608 236.681C123.849 237.021 124.149 237.29 124.508 237.488C124.867 237.68 125.284 237.775 125.76 237.775C126.23 237.775 126.642 237.68 126.994 237.488C127.353 237.29 127.65 237.021 127.885 236.681C128.12 236.34 128.296 235.951 128.414 235.512C128.537 235.066 128.599 234.593 128.599 234.092V233.879C128.599 233.384 128.537 232.917 128.414 232.478C128.296 232.033 128.117 231.64 127.875 231.3C127.64 230.953 127.344 230.681 126.985 230.483C126.632 230.285 126.218 230.187 125.742 230.187C125.272 230.187 124.857 230.285 124.499 230.483C124.146 230.681 123.849 230.953 123.608 231.3C123.373 231.64 123.197 232.033 123.079 232.478C122.962 232.917 122.903 233.384 122.903 233.879ZM134.193 231.105V239H132.477V228.962H134.101L134.193 231.105ZM133.785 233.601L133.071 233.573C133.077 232.886 133.179 232.252 133.377 231.671C133.575 231.083 133.853 230.573 134.212 230.14C134.571 229.707 134.997 229.373 135.492 229.138C135.993 228.897 136.547 228.776 137.153 228.776C137.648 228.776 138.093 228.844 138.489 228.98C138.885 229.11 139.222 229.321 139.5 229.611C139.785 229.902 140.001 230.279 140.149 230.743C140.298 231.201 140.372 231.761 140.372 232.422V239H138.646V232.404C138.646 231.878 138.569 231.458 138.415 231.142C138.26 230.82 138.034 230.589 137.737 230.446C137.44 230.298 137.076 230.224 136.643 230.224C136.216 230.224 135.826 230.313 135.474 230.493C135.127 230.672 134.827 230.919 134.574 231.235C134.326 231.55 134.132 231.912 133.989 232.32C133.853 232.722 133.785 233.149 133.785 233.601ZM149.306 237.052V224.75H151.032V239H149.455L149.306 237.052ZM142.552 234.092V233.897C142.552 233.131 142.645 232.435 142.831 231.81C143.022 231.179 143.291 230.638 143.638 230.187C143.99 229.735 144.408 229.389 144.89 229.147C145.379 228.9 145.923 228.776 146.523 228.776C147.154 228.776 147.704 228.888 148.174 229.11C148.651 229.327 149.053 229.645 149.38 230.066C149.714 230.48 149.977 230.981 150.169 231.569C150.361 232.156 150.494 232.821 150.568 233.563V234.417C150.5 235.153 150.367 235.815 150.169 236.402C149.977 236.99 149.714 237.491 149.38 237.905C149.053 238.32 148.651 238.638 148.174 238.861C147.698 239.077 147.141 239.186 146.504 239.186C145.917 239.186 145.379 239.059 144.89 238.805C144.408 238.552 143.99 238.196 143.638 237.738C143.291 237.281 143.022 236.743 142.831 236.124C142.645 235.499 142.552 234.822 142.552 234.092ZM144.278 233.897V234.092C144.278 234.593 144.327 235.063 144.426 235.502C144.531 235.942 144.692 236.328 144.909 236.662C145.125 236.996 145.4 237.259 145.734 237.451C146.068 237.636 146.467 237.729 146.931 237.729C147.5 237.729 147.967 237.608 148.332 237.367C148.703 237.126 149 236.807 149.223 236.412C149.445 236.016 149.618 235.586 149.742 235.122V232.886C149.668 232.546 149.56 232.218 149.417 231.903C149.281 231.581 149.102 231.297 148.879 231.049C148.663 230.796 148.394 230.595 148.072 230.446C147.757 230.298 147.383 230.224 146.95 230.224C146.48 230.224 146.075 230.323 145.734 230.521C145.4 230.712 145.125 230.978 144.909 231.318C144.692 231.652 144.531 232.042 144.426 232.487C144.327 232.926 144.278 233.396 144.278 233.897ZM155.568 228.962V239H153.843V228.962H155.568ZM153.713 226.299C153.713 226.021 153.796 225.786 153.963 225.594C154.137 225.403 154.39 225.307 154.724 225.307C155.052 225.307 155.302 225.403 155.476 225.594C155.655 225.786 155.745 226.021 155.745 226.299C155.745 226.565 155.655 226.794 155.476 226.986C155.302 227.171 155.052 227.264 154.724 227.264C154.39 227.264 154.137 227.171 153.963 226.986C153.796 226.794 153.713 226.565 153.713 226.299ZM162.526 228.962V230.279H157.099V228.962H162.526ZM158.936 226.522H160.652V236.514C160.652 236.854 160.705 237.111 160.81 237.284C160.915 237.457 161.051 237.571 161.218 237.627C161.385 237.683 161.565 237.71 161.756 237.71C161.899 237.71 162.047 237.698 162.202 237.673C162.362 237.642 162.483 237.618 162.563 237.599L162.573 239C162.437 239.043 162.257 239.083 162.035 239.121C161.818 239.164 161.555 239.186 161.246 239.186C160.826 239.186 160.439 239.102 160.086 238.935C159.734 238.768 159.452 238.49 159.242 238.1C159.038 237.704 158.936 237.172 158.936 236.504V226.522ZM166.404 228.962V239H164.679V228.962H166.404ZM164.549 226.299C164.549 226.021 164.632 225.786 164.799 225.594C164.972 225.403 165.226 225.307 165.56 225.307C165.888 225.307 166.138 225.403 166.312 225.594C166.491 225.786 166.581 226.021 166.581 226.299C166.581 226.565 166.491 226.794 166.312 226.986C166.138 227.171 165.888 227.264 165.56 227.264C165.226 227.264 164.972 227.171 164.799 226.986C164.632 226.794 164.549 226.565 164.549 226.299ZM168.705 234.092V233.879C168.705 233.155 168.81 232.484 169.021 231.866C169.231 231.241 169.534 230.7 169.93 230.242C170.326 229.778 170.805 229.42 171.368 229.166C171.931 228.906 172.561 228.776 173.26 228.776C173.965 228.776 174.599 228.906 175.162 229.166C175.731 229.42 176.214 229.778 176.609 230.242C177.011 230.7 177.318 231.241 177.528 231.866C177.738 232.484 177.843 233.155 177.843 233.879V234.092C177.843 234.816 177.738 235.487 177.528 236.105C177.318 236.724 177.011 237.265 176.609 237.729C176.214 238.187 175.734 238.545 175.171 238.805C174.615 239.059 173.984 239.186 173.279 239.186C172.574 239.186 171.94 239.059 171.377 238.805C170.814 238.545 170.332 238.187 169.93 237.729C169.534 237.265 169.231 236.724 169.021 236.105C168.81 235.487 168.705 234.816 168.705 234.092ZM170.421 233.879V234.092C170.421 234.593 170.48 235.066 170.598 235.512C170.715 235.951 170.891 236.34 171.126 236.681C171.368 237.021 171.668 237.29 172.026 237.488C172.385 237.68 172.803 237.775 173.279 237.775C173.749 237.775 174.16 237.68 174.513 237.488C174.871 237.29 175.168 237.021 175.403 236.681C175.638 236.34 175.815 235.951 175.932 235.512C176.056 235.066 176.118 234.593 176.118 234.092V233.879C176.118 233.384 176.056 232.917 175.932 232.478C175.815 232.033 175.635 231.64 175.394 231.3C175.159 230.953 174.862 230.681 174.503 230.483C174.151 230.285 173.736 230.187 173.26 230.187C172.79 230.187 172.376 230.285 172.017 230.483C171.665 230.681 171.368 230.953 171.126 231.3C170.891 231.64 170.715 232.033 170.598 232.478C170.48 232.917 170.421 233.384 170.421 233.879ZM181.712 231.105V239H179.996V228.962H181.619L181.712 231.105ZM181.304 233.601L180.589 233.573C180.596 232.886 180.698 232.252 180.896 231.671C181.093 231.083 181.372 230.573 181.73 230.14C182.089 229.707 182.516 229.373 183.011 229.138C183.512 228.897 184.065 228.776 184.671 228.776C185.166 228.776 185.611 228.844 186.007 228.98C186.403 229.11 186.74 229.321 187.019 229.611C187.303 229.902 187.52 230.279 187.668 230.743C187.816 231.201 187.891 231.761 187.891 232.422V239H186.165V232.404C186.165 231.878 186.088 231.458 185.933 231.142C185.778 230.82 185.553 230.589 185.256 230.446C184.959 230.298 184.594 230.224 184.161 230.224C183.734 230.224 183.345 230.313 182.992 230.493C182.646 230.672 182.346 230.919 182.092 231.235C181.845 231.55 181.65 231.912 181.508 232.32C181.372 232.722 181.304 233.149 181.304 233.601ZM196.342 236.337C196.342 236.09 196.287 235.861 196.175 235.651C196.07 235.434 195.851 235.24 195.517 235.066C195.189 234.887 194.694 234.732 194.032 234.603C193.476 234.485 192.972 234.346 192.52 234.185C192.075 234.024 191.694 233.829 191.379 233.601C191.07 233.372 190.832 233.103 190.665 232.793C190.498 232.484 190.414 232.122 190.414 231.708C190.414 231.312 190.501 230.938 190.674 230.585C190.853 230.233 191.104 229.921 191.425 229.648C191.753 229.376 192.146 229.163 192.604 229.008C193.061 228.854 193.571 228.776 194.134 228.776C194.938 228.776 195.625 228.919 196.194 229.203C196.763 229.488 197.199 229.868 197.502 230.344C197.805 230.814 197.957 231.337 197.957 231.912H196.24C196.24 231.634 196.157 231.365 195.99 231.105C195.829 230.839 195.591 230.619 195.275 230.446C194.966 230.273 194.586 230.187 194.134 230.187C193.658 230.187 193.271 230.261 192.975 230.409C192.684 230.551 192.471 230.734 192.334 230.957C192.205 231.179 192.14 231.414 192.14 231.662C192.14 231.847 192.171 232.014 192.232 232.163C192.3 232.305 192.418 232.438 192.585 232.562C192.752 232.679 192.987 232.79 193.29 232.896C193.593 233.001 193.98 233.106 194.45 233.211C195.272 233.396 195.95 233.619 196.481 233.879C197.013 234.139 197.409 234.457 197.669 234.834C197.929 235.212 198.059 235.669 198.059 236.208C198.059 236.647 197.966 237.049 197.78 237.414C197.601 237.778 197.338 238.094 196.992 238.36C196.652 238.62 196.243 238.824 195.767 238.972C195.297 239.114 194.768 239.186 194.181 239.186C193.296 239.186 192.548 239.028 191.936 238.712C191.323 238.397 190.859 237.989 190.544 237.488C190.229 236.987 190.071 236.458 190.071 235.901H191.796C191.821 236.371 191.957 236.746 192.205 237.024C192.452 237.296 192.755 237.491 193.114 237.608C193.472 237.72 193.828 237.775 194.181 237.775C194.651 237.775 195.043 237.714 195.359 237.59C195.681 237.466 195.925 237.296 196.092 237.08C196.259 236.863 196.342 236.616 196.342 236.337Z" fill="#4D4C4B"/>
</g>
</g>
</g>
</g>
</svg>
