<svg width="375" height="148" viewBox="0 0 375 148" fill="none" xmlns="http://www.w3.org/2000/svg">
<g id="Header">
<g id="Header_2">
<rect width="375" height="136" fill="white"/>
<g id="Layout">
<g id="Header Name + Spacer + Menu">
<g id="Header Name + Spacer">
<g id="Header Name">
<g id="Generic Logo">
<rect id="Rectangle 103" x="16" y="16" width="64" height="48" fill="#D9D8D6"/>
<path id="Logo" d="M35.7598 44.5435V46H29.0059V44.5435H35.7598ZM29.3584 32.4922V46H27.5679V32.4922H29.3584ZM37.0957 41.0923V40.8789C37.0957 40.1553 37.2008 39.4842 37.4111 38.8657C37.6214 38.241 37.9245 37.6999 38.3203 37.2422C38.7161 36.7783 39.1955 36.4196 39.7583 36.166C40.3211 35.9062 40.952 35.7764 41.6509 35.7764C42.356 35.7764 42.9899 35.9062 43.5527 36.166C44.1217 36.4196 44.6042 36.7783 45 37.2422C45.402 37.6999 45.7082 38.241 45.9185 38.8657C46.1287 39.4842 46.2339 40.1553 46.2339 40.8789V41.0923C46.2339 41.8159 46.1287 42.487 45.9185 43.1055C45.7082 43.724 45.402 44.2651 45 44.729C44.6042 45.1867 44.1248 45.5454 43.562 45.8052C43.0054 46.0588 42.3745 46.1855 41.6694 46.1855C40.9644 46.1855 40.3304 46.0588 39.7676 45.8052C39.2048 45.5454 38.7223 45.1867 38.3203 44.729C37.9245 44.2651 37.6214 43.724 37.4111 43.1055C37.2008 42.487 37.0957 41.8159 37.0957 41.0923ZM38.812 40.8789V41.0923C38.812 41.5933 38.8708 42.0664 38.9883 42.5117C39.1058 42.9508 39.2821 43.3405 39.5171 43.6807C39.7583 44.0208 40.0583 44.2899 40.417 44.4878C40.7757 44.6795 41.1932 44.7754 41.6694 44.7754C42.1395 44.7754 42.5508 44.6795 42.9033 44.4878C43.262 44.2899 43.5589 44.0208 43.7939 43.6807C44.029 43.3405 44.2052 42.9508 44.3228 42.5117C44.4465 42.0664 44.5083 41.5933 44.5083 41.0923V40.8789C44.5083 40.3841 44.4465 39.9172 44.3228 39.478C44.2052 39.0327 44.0259 38.64 43.7847 38.2998C43.5496 37.9535 43.2528 37.6813 42.894 37.4834C42.5415 37.2855 42.1271 37.1865 41.6509 37.1865C41.1808 37.1865 40.7664 37.2855 40.4077 37.4834C40.0552 37.6813 39.7583 37.9535 39.5171 38.2998C39.2821 38.64 39.1058 39.0327 38.9883 39.478C38.8708 39.9172 38.812 40.3841 38.812 40.8789ZM54.8896 35.9619H56.4482V45.7866C56.4482 46.6711 56.2689 47.4256 55.9102 48.0503C55.5514 48.675 55.0505 49.1481 54.4072 49.4697C53.7702 49.7975 53.0342 49.9614 52.1992 49.9614C51.8529 49.9614 51.4447 49.9058 50.9746 49.7944C50.5107 49.6893 50.0531 49.5068 49.6016 49.2471C49.1562 48.9935 48.7821 48.6502 48.479 48.2173L49.3789 47.1968C49.7995 47.7039 50.2386 48.0565 50.6963 48.2544C51.1602 48.4523 51.6178 48.5513 52.0693 48.5513C52.6136 48.5513 53.0837 48.4492 53.4795 48.2451C53.8753 48.041 54.1815 47.738 54.3979 47.3359C54.6206 46.9401 54.7319 46.4515 54.7319 45.8701V38.1699L54.8896 35.9619ZM47.978 41.0923V40.8975C47.978 40.1305 48.0677 39.4347 48.2471 38.8101C48.4326 38.1792 48.6955 37.638 49.0356 37.1865C49.382 36.735 49.7995 36.3887 50.2881 36.1475C50.7767 35.9001 51.3271 35.7764 51.9395 35.7764C52.5703 35.7764 53.1208 35.8877 53.5908 36.1104C54.0671 36.3268 54.4691 36.6453 54.7969 37.0659C55.1309 37.4803 55.3937 37.9813 55.5854 38.5688C55.7772 39.1564 55.9102 39.8213 55.9844 40.5635V41.417C55.9163 42.153 55.7834 42.8148 55.5854 43.4023C55.3937 43.9899 55.1309 44.4909 54.7969 44.9053C54.4691 45.3197 54.0671 45.6382 53.5908 45.8608C53.1146 46.0773 52.5579 46.1855 51.9209 46.1855C51.321 46.1855 50.7767 46.0588 50.2881 45.8052C49.8057 45.5516 49.3913 45.196 49.0449 44.7383C48.6986 44.2806 48.4326 43.7425 48.2471 43.124C48.0677 42.4993 47.978 41.8221 47.978 41.0923ZM49.6943 40.8975V41.0923C49.6943 41.5933 49.7438 42.0633 49.8428 42.5024C49.9479 42.9416 50.1056 43.3281 50.3159 43.6621C50.5324 43.9961 50.8076 44.259 51.1416 44.4507C51.4756 44.6362 51.8745 44.729 52.3384 44.729C52.9074 44.729 53.3774 44.6084 53.7485 44.3672C54.1196 44.126 54.4134 43.8075 54.6299 43.4116C54.8525 43.0158 55.0257 42.5859 55.1494 42.1221V39.8862C55.0814 39.5461 54.9762 39.2183 54.834 38.9028C54.6979 38.5812 54.5186 38.2967 54.2959 38.0493C54.0794 37.7957 53.8104 37.5947 53.4888 37.4463C53.1672 37.2979 52.7899 37.2236 52.3569 37.2236C51.8869 37.2236 51.4818 37.3226 51.1416 37.5205C50.8076 37.7122 50.5324 37.9782 50.3159 38.3184C50.1056 38.6523 49.9479 39.042 49.8428 39.4873C49.7438 39.9264 49.6943 40.3965 49.6943 40.8975ZM58.6006 41.0923V40.8789C58.6006 40.1553 58.7057 39.4842 58.916 38.8657C59.1263 38.241 59.4294 37.6999 59.8252 37.2422C60.221 36.7783 60.7004 36.4196 61.2632 36.166C61.826 35.9062 62.4569 35.7764 63.1558 35.7764C63.8608 35.7764 64.4948 35.9062 65.0576 36.166C65.6266 36.4196 66.109 36.7783 66.5049 37.2422C66.9069 37.6999 67.2131 38.241 67.4233 38.8657C67.6336 39.4842 67.7388 40.1553 67.7388 40.8789V41.0923C67.7388 41.8159 67.6336 42.487 67.4233 43.1055C67.2131 43.724 66.9069 44.2651 66.5049 44.729C66.109 45.1867 65.6297 45.5454 65.0669 45.8052C64.5103 46.0588 63.8794 46.1855 63.1743 46.1855C62.4692 46.1855 61.8353 46.0588 61.2725 45.8052C60.7096 45.5454 60.2272 45.1867 59.8252 44.729C59.4294 44.2651 59.1263 43.724 58.916 43.1055C58.7057 42.487 58.6006 41.8159 58.6006 41.0923ZM60.3169 40.8789V41.0923C60.3169 41.5933 60.3757 42.0664 60.4932 42.5117C60.6107 42.9508 60.7869 43.3405 61.022 43.6807C61.2632 44.0208 61.5632 44.2899 61.9219 44.4878C62.2806 44.6795 62.6981 44.7754 63.1743 44.7754C63.6444 44.7754 64.0557 44.6795 64.4082 44.4878C64.7669 44.2899 65.0638 44.0208 65.2988 43.6807C65.5339 43.3405 65.7101 42.9508 65.8276 42.5117C65.9513 42.0664 66.0132 41.5933 66.0132 41.0923V40.8789C66.0132 40.3841 65.9513 39.9172 65.8276 39.478C65.7101 39.0327 65.5308 38.64 65.2896 38.2998C65.0545 37.9535 64.7576 37.6813 64.3989 37.4834C64.0464 37.2855 63.632 37.1865 63.1558 37.1865C62.6857 37.1865 62.2713 37.2855 61.9126 37.4834C61.5601 37.6813 61.2632 37.9535 61.022 38.2998C60.7869 38.64 60.6107 39.0327 60.4932 39.478C60.3757 39.9172 60.3169 40.3841 60.3169 40.8789Z" fill="#211D1C"/>
</g>
<path id="Service Name" d="M101.69 43.7266C101.69 43.3779 101.635 43.0703 101.526 42.8037C101.423 42.5303 101.239 42.2842 100.972 42.0654C100.712 41.8467 100.35 41.6382 99.8853 41.4399C99.4272 41.2417 98.8462 41.04 98.1421 40.835C97.4038 40.6162 96.7373 40.3735 96.1426 40.1069C95.5479 39.8335 95.0386 39.5225 94.6147 39.1738C94.1909 38.8252 93.8662 38.4253 93.6406 37.9741C93.415 37.5229 93.3022 37.0068 93.3022 36.4258C93.3022 35.8447 93.4219 35.3081 93.6611 34.8159C93.9004 34.3237 94.2422 33.8965 94.6865 33.5342C95.1377 33.165 95.6743 32.8779 96.2964 32.6729C96.9185 32.4678 97.6123 32.3652 98.3779 32.3652C99.499 32.3652 100.449 32.5806 101.229 33.0112C102.015 33.4351 102.613 33.9922 103.023 34.6826C103.433 35.3662 103.638 36.0977 103.638 36.877H101.669C101.669 36.3164 101.55 35.8208 101.311 35.3901C101.071 34.9526 100.709 34.6108 100.224 34.3647C99.7383 34.1118 99.123 33.9854 98.3779 33.9854C97.6738 33.9854 97.0928 34.0913 96.6348 34.3032C96.1768 34.5151 95.835 34.8022 95.6094 35.1646C95.3906 35.5269 95.2812 35.9404 95.2812 36.4053C95.2812 36.7197 95.3462 37.0068 95.4761 37.2666C95.6128 37.5195 95.8213 37.7554 96.1016 37.9741C96.3887 38.1929 96.751 38.3945 97.1885 38.5791C97.6328 38.7637 98.1626 38.9414 98.7778 39.1123C99.6255 39.3516 100.357 39.6182 100.972 39.9121C101.587 40.2061 102.093 40.5376 102.49 40.9067C102.893 41.269 103.19 41.6826 103.382 42.1475C103.58 42.6055 103.679 43.125 103.679 43.7061C103.679 44.3145 103.556 44.8647 103.31 45.3569C103.064 45.8491 102.712 46.2695 102.254 46.6182C101.796 46.9668 101.246 47.2368 100.603 47.4282C99.9673 47.6128 99.2563 47.7051 98.4702 47.7051C97.7798 47.7051 97.0996 47.6094 96.4297 47.418C95.7666 47.2266 95.1616 46.9395 94.6147 46.5566C94.0747 46.1738 93.6406 45.7021 93.3125 45.1416C92.9912 44.5742 92.8306 43.918 92.8306 43.1729H94.7993C94.7993 43.6855 94.8984 44.1265 95.0967 44.4956C95.2949 44.8579 95.5649 45.1587 95.9067 45.3979C96.2554 45.6372 96.6484 45.8149 97.0859 45.9312C97.5303 46.0405 97.9917 46.0952 98.4702 46.0952C99.1606 46.0952 99.7451 45.9995 100.224 45.8081C100.702 45.6167 101.064 45.3433 101.311 44.9878C101.563 44.6323 101.69 44.2119 101.69 43.7266ZM110.519 47.7051C109.746 47.7051 109.045 47.5752 108.417 47.3154C107.794 47.0488 107.258 46.6763 106.807 46.1978C106.362 45.7192 106.021 45.1519 105.781 44.4956C105.542 43.8394 105.422 43.1216 105.422 42.3423V41.9116C105.422 41.0093 105.556 40.2061 105.822 39.502C106.089 38.791 106.451 38.1895 106.909 37.6973C107.367 37.2051 107.887 36.8325 108.468 36.5796C109.049 36.3267 109.65 36.2002 110.272 36.2002C111.065 36.2002 111.749 36.3369 112.323 36.6104C112.904 36.8838 113.379 37.2666 113.749 37.7588C114.118 38.2441 114.391 38.8184 114.569 39.4814C114.747 40.1377 114.835 40.8555 114.835 41.6348V42.4858H106.55V40.9375H112.938V40.7939C112.911 40.3018 112.809 39.8232 112.631 39.3584C112.46 38.8936 112.187 38.5107 111.811 38.21C111.435 37.9092 110.922 37.7588 110.272 37.7588C109.842 37.7588 109.445 37.8511 109.083 38.0356C108.721 38.2134 108.41 38.48 108.15 38.8354C107.89 39.1909 107.688 39.625 107.545 40.1377C107.401 40.6504 107.33 41.2417 107.33 41.9116V42.3423C107.33 42.8687 107.401 43.3643 107.545 43.8291C107.695 44.2871 107.911 44.6904 108.191 45.0391C108.478 45.3877 108.823 45.6611 109.227 45.8594C109.637 46.0576 110.102 46.1567 110.621 46.1567C111.291 46.1567 111.858 46.02 112.323 45.7466C112.788 45.4731 113.195 45.1074 113.543 44.6494L114.692 45.562C114.453 45.9243 114.148 46.2695 113.779 46.5977C113.41 46.9258 112.956 47.1924 112.416 47.3975C111.882 47.6025 111.25 47.7051 110.519 47.7051ZM118.947 38.1484V47.5H117.05V36.4053H118.896L118.947 38.1484ZM122.413 36.3438L122.403 38.1074C122.246 38.0732 122.095 38.0527 121.952 38.0459C121.815 38.0322 121.658 38.0254 121.48 38.0254C121.042 38.0254 120.656 38.0938 120.321 38.2305C119.986 38.3672 119.703 38.5586 119.47 38.8047C119.238 39.0508 119.053 39.3447 118.917 39.6865C118.787 40.0215 118.701 40.3906 118.66 40.7939L118.127 41.1016C118.127 40.4316 118.192 39.8027 118.322 39.2148C118.458 38.627 118.667 38.1074 118.947 37.6562C119.228 37.1982 119.583 36.8428 120.014 36.5898C120.451 36.3301 120.971 36.2002 121.572 36.2002C121.709 36.2002 121.866 36.2173 122.044 36.2515C122.222 36.2788 122.345 36.3096 122.413 36.3438ZM127.725 45.7876L130.76 36.4053H132.698L128.709 47.5H127.438L127.725 45.7876ZM125.192 36.4053L128.319 45.8389L128.535 47.5H127.263L123.244 36.4053H125.192ZM136.584 36.4053V47.5H134.677V36.4053H136.584ZM134.533 33.4624C134.533 33.1548 134.625 32.895 134.81 32.6831C135.001 32.4712 135.282 32.3652 135.651 32.3652C136.013 32.3652 136.29 32.4712 136.481 32.6831C136.68 32.895 136.779 33.1548 136.779 33.4624C136.779 33.7563 136.68 34.0093 136.481 34.2212C136.29 34.4263 136.013 34.5288 135.651 34.5288C135.282 34.5288 135.001 34.4263 134.81 34.2212C134.625 34.0093 134.533 33.7563 134.533 33.4624ZM144.069 46.1465C144.521 46.1465 144.938 46.0542 145.32 45.8696C145.703 45.6851 146.018 45.4321 146.264 45.1108C146.51 44.7827 146.65 44.4102 146.684 43.9932H148.489C148.455 44.6494 148.232 45.2612 147.822 45.8286C147.419 46.3892 146.889 46.8438 146.233 47.1924C145.577 47.5342 144.855 47.7051 144.069 47.7051C143.235 47.7051 142.507 47.5581 141.885 47.2642C141.27 46.9702 140.757 46.5669 140.347 46.0542C139.944 45.5415 139.64 44.9536 139.435 44.2905C139.236 43.6206 139.137 42.9131 139.137 42.168V41.7373C139.137 40.9922 139.236 40.2881 139.435 39.625C139.64 38.9551 139.944 38.3638 140.347 37.8511C140.757 37.3384 141.27 36.9351 141.885 36.6411C142.507 36.3472 143.235 36.2002 144.069 36.2002C144.938 36.2002 145.696 36.3779 146.346 36.7334C146.995 37.082 147.504 37.5605 147.874 38.1689C148.25 38.7705 148.455 39.4541 148.489 40.2197H146.684C146.65 39.7617 146.52 39.3481 146.294 38.979C146.076 38.6099 145.775 38.3159 145.392 38.0972C145.016 37.8716 144.575 37.7588 144.069 37.7588C143.488 37.7588 143 37.875 142.603 38.1074C142.213 38.333 141.902 38.6406 141.67 39.0303C141.444 39.4131 141.28 39.8403 141.178 40.312C141.082 40.7769 141.034 41.252 141.034 41.7373V42.168C141.034 42.6533 141.082 43.1318 141.178 43.6035C141.273 44.0752 141.434 44.5024 141.66 44.8853C141.892 45.2681 142.203 45.5757 142.593 45.8081C142.989 46.0337 143.481 46.1465 144.069 46.1465ZM155.226 47.7051C154.453 47.7051 153.752 47.5752 153.124 47.3154C152.501 47.0488 151.965 46.6763 151.514 46.1978C151.069 45.7192 150.728 45.1519 150.488 44.4956C150.249 43.8394 150.129 43.1216 150.129 42.3423V41.9116C150.129 41.0093 150.263 40.2061 150.529 39.502C150.796 38.791 151.158 38.1895 151.616 37.6973C152.074 37.2051 152.594 36.8325 153.175 36.5796C153.756 36.3267 154.357 36.2002 154.979 36.2002C155.772 36.2002 156.456 36.3369 157.03 36.6104C157.611 36.8838 158.086 37.2666 158.456 37.7588C158.825 38.2441 159.098 38.8184 159.276 39.4814C159.454 40.1377 159.542 40.8555 159.542 41.6348V42.4858H151.257V40.9375H157.646V40.7939C157.618 40.3018 157.516 39.8232 157.338 39.3584C157.167 38.8936 156.894 38.5107 156.518 38.21C156.142 37.9092 155.629 37.7588 154.979 37.7588C154.549 37.7588 154.152 37.8511 153.79 38.0356C153.428 38.2134 153.117 38.48 152.857 38.8354C152.597 39.1909 152.396 39.625 152.252 40.1377C152.108 40.6504 152.037 41.2417 152.037 41.9116V42.3423C152.037 42.8687 152.108 43.3643 152.252 43.8291C152.402 44.2871 152.618 44.6904 152.898 45.0391C153.185 45.3877 153.53 45.6611 153.934 45.8594C154.344 46.0576 154.809 46.1567 155.328 46.1567C155.998 46.1567 156.565 46.02 157.03 45.7466C157.495 45.4731 157.902 45.1074 158.25 44.6494L159.399 45.562C159.16 45.9243 158.855 46.2695 158.486 46.5977C158.117 46.9258 157.663 47.1924 157.123 47.3975C156.589 47.6025 155.957 47.7051 155.226 47.7051ZM178.738 32.5703V47.5H176.749L169.232 35.9849V47.5H167.253V32.5703H169.232L176.779 44.1162V32.5703H178.738ZM188.5 45.603V39.8916C188.5 39.4541 188.411 39.0747 188.233 38.7534C188.062 38.4253 187.802 38.1724 187.454 37.9946C187.105 37.8169 186.674 37.728 186.162 37.728C185.683 37.728 185.263 37.8101 184.9 37.9741C184.545 38.1382 184.265 38.3535 184.06 38.6201C183.861 38.8867 183.762 39.1738 183.762 39.4814H181.865C181.865 39.085 181.968 38.6919 182.173 38.3022C182.378 37.9126 182.672 37.5605 183.055 37.2461C183.444 36.9248 183.909 36.6719 184.449 36.4873C184.996 36.2959 185.604 36.2002 186.274 36.2002C187.081 36.2002 187.792 36.3369 188.407 36.6104C189.029 36.8838 189.515 37.2974 189.863 37.8511C190.219 38.3979 190.396 39.085 190.396 39.9121V45.0801C190.396 45.4492 190.427 45.8423 190.489 46.2593C190.557 46.6763 190.656 47.0352 190.786 47.3359V47.5H188.807C188.711 47.2812 188.636 46.9907 188.582 46.6284C188.527 46.2593 188.5 45.9175 188.5 45.603ZM188.828 40.7734L188.848 42.1064H186.931C186.391 42.1064 185.909 42.1509 185.485 42.2397C185.061 42.3218 184.706 42.4482 184.418 42.6191C184.131 42.79 183.913 43.0054 183.762 43.2651C183.612 43.5181 183.537 43.8154 183.537 44.1572C183.537 44.5059 183.615 44.8237 183.772 45.1108C183.93 45.3979 184.166 45.627 184.48 45.7979C184.801 45.9619 185.194 46.0439 185.659 46.0439C186.24 46.0439 186.753 45.9209 187.197 45.6748C187.642 45.4287 187.994 45.1279 188.253 44.7725C188.52 44.417 188.664 44.0718 188.684 43.7368L189.494 44.6494C189.446 44.9365 189.316 45.2544 189.104 45.603C188.893 45.9517 188.609 46.2866 188.253 46.6079C187.905 46.9224 187.488 47.1855 187.002 47.3975C186.524 47.6025 185.984 47.7051 185.382 47.7051C184.63 47.7051 183.971 47.5581 183.403 47.2642C182.843 46.9702 182.405 46.5771 182.091 46.085C181.783 45.5859 181.629 45.0288 181.629 44.4136C181.629 43.8188 181.746 43.2959 181.978 42.8447C182.21 42.3867 182.545 42.0073 182.983 41.7065C183.42 41.3989 183.947 41.1665 184.562 41.0093C185.177 40.8521 185.864 40.7734 186.623 40.7734H188.828ZM195.267 38.6099V47.5H193.36V36.4053H195.165L195.267 38.6099ZM194.877 41.5322L193.996 41.5015C194.002 40.7427 194.102 40.042 194.293 39.3994C194.484 38.75 194.768 38.186 195.144 37.7075C195.52 37.229 195.988 36.8599 196.549 36.6001C197.109 36.3335 197.759 36.2002 198.497 36.2002C199.017 36.2002 199.495 36.2754 199.933 36.4258C200.37 36.5693 200.75 36.7983 201.071 37.1128C201.392 37.4272 201.642 37.8306 201.819 38.3228C201.997 38.8149 202.086 39.4097 202.086 40.1069V47.5H200.189V40.1992C200.189 39.6182 200.09 39.1533 199.892 38.8047C199.7 38.4561 199.427 38.2031 199.071 38.0459C198.716 37.8818 198.299 37.7998 197.82 37.7998C197.26 37.7998 196.792 37.8989 196.416 38.0972C196.04 38.2954 195.739 38.5688 195.513 38.9175C195.288 39.2661 195.124 39.666 195.021 40.1172C194.925 40.5615 194.877 41.0332 194.877 41.5322ZM202.065 40.4863L200.794 40.876C200.801 40.2676 200.9 39.6831 201.091 39.1226C201.29 38.562 201.573 38.063 201.942 37.6255C202.318 37.188 202.78 36.8428 203.327 36.5898C203.874 36.3301 204.499 36.2002 205.203 36.2002C205.798 36.2002 206.324 36.2788 206.782 36.436C207.247 36.5933 207.637 36.8359 207.951 37.1641C208.272 37.4854 208.515 37.8989 208.679 38.4048C208.843 38.9106 208.925 39.5122 208.925 40.2095V47.5H207.018V40.189C207.018 39.5669 206.919 39.085 206.721 38.7432C206.529 38.3945 206.256 38.1519 205.9 38.0151C205.552 37.8716 205.135 37.7998 204.649 37.7998C204.232 37.7998 203.863 37.8716 203.542 38.0151C203.221 38.1587 202.951 38.3569 202.732 38.6099C202.513 38.856 202.346 39.1396 202.229 39.4609C202.12 39.7822 202.065 40.124 202.065 40.4863ZM216.4 47.7051C215.628 47.7051 214.927 47.5752 214.298 47.3154C213.676 47.0488 213.14 46.6763 212.688 46.1978C212.244 45.7192 211.902 45.1519 211.663 44.4956C211.424 43.8394 211.304 43.1216 211.304 42.3423V41.9116C211.304 41.0093 211.438 40.2061 211.704 39.502C211.971 38.791 212.333 38.1895 212.791 37.6973C213.249 37.2051 213.769 36.8325 214.35 36.5796C214.931 36.3267 215.532 36.2002 216.154 36.2002C216.947 36.2002 217.631 36.3369 218.205 36.6104C218.786 36.8838 219.261 37.2666 219.63 37.7588C220 38.2441 220.273 38.8184 220.451 39.4814C220.628 40.1377 220.717 40.8555 220.717 41.6348V42.4858H212.432V40.9375H218.82V40.7939C218.793 40.3018 218.69 39.8232 218.513 39.3584C218.342 38.8936 218.068 38.5107 217.692 38.21C217.316 37.9092 216.804 37.7588 216.154 37.7588C215.724 37.7588 215.327 37.8511 214.965 38.0356C214.603 38.2134 214.292 38.48 214.032 38.8354C213.772 39.1909 213.57 39.625 213.427 40.1377C213.283 40.6504 213.211 41.2417 213.211 41.9116V42.3423C213.211 42.8687 213.283 43.3643 213.427 43.8291C213.577 44.2871 213.792 44.6904 214.073 45.0391C214.36 45.3877 214.705 45.6611 215.108 45.8594C215.519 46.0576 215.983 46.1567 216.503 46.1567C217.173 46.1567 217.74 46.02 218.205 45.7466C218.67 45.4731 219.077 45.1074 219.425 44.6494L220.574 45.562C220.334 45.9243 220.03 46.2695 219.661 46.5977C219.292 46.9258 218.837 47.1924 218.297 47.3975C217.764 47.6025 217.132 47.7051 216.4 47.7051Z" fill="#211D1C"/>
</g>
</g>
<g id="icon">
<path id="Vector" d="M324 50V46.6667H354V50H324ZM324 41.6667V38.3333H354V41.6667H324ZM324 33.3333V30H354V33.3333H324Z" fill="#211D1C"/>
</g>
</g>
<g id="Search">
<mask id="path-5-inside-1_921_11079" fill="white">
<path d="M16 76C16 73.7909 17.7909 72 20 72H355C357.209 72 359 73.7909 359 76V116C359 118.209 357.209 120 355 120H20C17.7909 120 16 118.209 16 116V76Z"/>
</mask>
<path d="M16 76C16 73.7909 17.7909 72 20 72H355C357.209 72 359 73.7909 359 76V116C359 118.209 357.209 120 355 120H20C17.7909 120 16 118.209 16 116V76Z" fill="white"/>
<path d="M20 74H355V70H20V74ZM357 76V116H361V76H357ZM355 118H20V122H355V118ZM18 116V76H14V116H18ZM20 118C18.8954 118 18 117.105 18 116H14C14 119.314 16.6863 122 20 122V118ZM357 116C357 117.105 356.105 118 355 118V122C358.314 122 361 119.314 361 116H357ZM355 74C356.105 74 357 74.8954 357 76H361C361 72.6863 358.314 70 355 70V74ZM20 70C16.6863 70 14 72.6863 14 76H18C18 74.8954 18.8954 74 20 74V70Z" fill="#7F7F7D" mask="url(#path-5-inside-1_921_11079)"/>
<g id="Icon+Hint Search Text">
<path id="Vector_2" d="M54.1333 108L45.7333 99.6C45.0667 100.133 44.3 100.556 43.4333 100.867C42.5667 101.178 41.6444 101.333 40.6667 101.333C38.2444 101.333 36.1944 100.494 34.5167 98.8167C32.8389 97.1389 32 95.0889 32 92.6667C32 90.2444 32.8389 88.1944 34.5167 86.5167C36.1944 84.8389 38.2444 84 40.6667 84C43.0889 84 45.1389 84.8389 46.8167 86.5167C48.4944 88.1944 49.3333 90.2444 49.3333 92.6667C49.3333 93.6444 49.1778 94.5667 48.8667 95.4333C48.5556 96.3 48.1333 97.0667 47.6 97.7333L56 106.133L54.1333 108ZM40.6667 98.6667C42.3333 98.6667 43.75 98.0833 44.9167 96.9167C46.0833 95.75 46.6667 94.3333 46.6667 92.6667C46.6667 91 46.0833 89.5833 44.9167 88.4167C43.75 87.25 42.3333 86.6667 40.6667 86.6667C39 86.6667 37.5833 87.25 36.4167 88.4167C35.25 89.5833 34.6667 91 34.6667 92.6667C34.6667 94.3333 35.25 95.75 36.4167 96.9167C37.5833 98.0833 39 98.6667 40.6667 98.6667Z" fill="#7F7F7D"/>
</g>
</g>
</g>
</g>
<g id="Bottom line">
<rect id="Your Brand Colour" y="136" width="375" height="8" fill="#A0AF84"/>
</g>
<g id="Bottom line_2">
<rect id="Your Brand Colour_2" y="144" width="375" height="4" fill="#002147"/>
</g>
</g>
</svg>
