<svg width="35" height="27" viewBox="0 0 35 27" fill="none" xmlns="http://www.w3.org/2000/svg">
<g id="Link">
<g id="Link_2">
<path id="Link / Large Screen / Body Regular / Disabled" d="M9.75977 17.5435V19H3.00586V17.5435H9.75977ZM3.3584 5.49219V19H1.56787V5.49219H3.3584ZM13.415 8.96191V19H11.6895V8.96191H13.415ZM11.5596 6.29932C11.5596 6.021 11.6431 5.78597 11.8101 5.59424C11.9832 5.40251 12.2368 5.30664 12.5708 5.30664C12.8986 5.30664 13.1491 5.40251 13.3223 5.59424C13.5016 5.78597 13.5913 6.021 13.5913 6.29932C13.5913 6.56527 13.5016 6.79411 13.3223 6.98584C13.1491 7.17139 12.8986 7.26416 12.5708 7.26416C12.2368 7.26416 11.9832 7.17139 11.8101 6.98584C11.6431 6.79411 11.5596 6.56527 11.5596 6.29932ZM17.8867 11.105V19H16.1704V8.96191H17.7939L17.8867 11.105ZM17.4785 13.6006L16.7642 13.5728C16.7703 12.8862 16.8724 12.2523 17.0703 11.6709C17.2682 11.0833 17.5465 10.5731 17.9053 10.1401C18.264 9.70719 18.6908 9.37321 19.1855 9.13818C19.6865 8.89697 20.2401 8.77637 20.8462 8.77637C21.341 8.77637 21.7863 8.8444 22.1821 8.98047C22.578 9.11035 22.915 9.32064 23.1934 9.61133C23.4779 9.90202 23.6943 10.2793 23.8428 10.7432C23.9912 11.2008 24.0654 11.7606 24.0654 12.4224V19H22.3398V12.4038C22.3398 11.8781 22.2625 11.4575 22.1079 11.1421C21.9533 10.8205 21.7275 10.5885 21.4307 10.4463C21.1338 10.2979 20.7689 10.2236 20.3359 10.2236C19.9092 10.2236 19.5195 10.3133 19.167 10.4927C18.8206 10.672 18.5207 10.9194 18.2671 11.2349C18.0197 11.5503 17.8249 11.9121 17.6826 12.3203C17.5465 12.7223 17.4785 13.1491 17.4785 13.6006ZM28.3979 4.75V19H26.6724V4.75H28.3979ZM34.5303 8.96191L30.1514 13.647L27.7021 16.189L27.563 14.3613L29.3164 12.2646L32.4336 8.96191H34.5303ZM32.9624 19L29.3813 14.2129L30.272 12.6821L34.9849 19H32.9624Z" fill="#1D42A6"/>
<g id="Link underline">
<rect id="Link underline default" y="25" width="35" height="2" fill="#1D42A6"/>
</g>
</g>
</g>
</svg>
