<svg width="88" height="88" viewBox="0 0 88 88" fill="none" xmlns="http://www.w3.org/2000/svg">
<g id="Loading" clip-path="url(#clip0_614_7141)">
<path id="Vector" opacity="0.1" d="M44 88C19.7317 88 0 68.2683 0 44C0 19.7317 19.7317 0 44 0C68.2683 0 88 19.7317 88 44C88 68.2683 68.2683 88 44 88ZM44 6.60661C23.3874 6.60661 6.60661 23.3874 6.60661 44C6.60661 64.6126 23.3874 81.3934 44 81.3934C64.6126 81.3934 81.3934 64.6126 81.3934 44C81.3934 23.3874 64.6126 6.60661 44 6.60661Z" fill="#61615F"/>
<path id="Vector_2" d="M44 88C19.7317 88 0 68.2683 0 44C0 42.1722 1.47548 40.6967 3.3033 40.6967C5.13113 40.6967 6.60661 42.1722 6.60661 44C6.60661 64.6126 23.3874 81.3934 44 81.3934C64.6126 81.3934 81.3934 64.6126 81.3934 44C81.3934 23.3874 64.6126 6.60661 44 6.60661C42.1722 6.60661 40.6967 5.13113 40.6967 3.3033C40.6967 1.47548 42.1722 0 44 0C68.2683 0 88 19.7317 88 44C88 68.2683 68.2683 88 44 88Z" fill="#61615F"/>
</g>
<defs>
<clipPath id="clip0_614_7141">
<rect width="88" height="88" fill="white"/>
</clipPath>
</defs>
</svg>
