<svg width="375" height="61" viewBox="0 0 375 61" fill="none" xmlns="http://www.w3.org/2000/svg">
<g id="Menu Navigation">
<mask id="path-1-inside-1_1531_11073" fill="white">
<path d="M0 0H375V61H0V0Z"/>
</mask>
<path d="M0 0H375V61H0V0Z" fill="white"/>
<path d="M375 61V59H0V61V63H375V61Z" fill="#D9D8D6" mask="url(#path-1-inside-1_1531_11073)"/>
<g id="Text Button">
<path id="Link / Large Screen / Body Regular / Disabled" d="M20.4771 23.4922H22.8335L26.3032 33.4097L29.7729 23.4922H32.1294L27.2495 37H25.3569L20.4771 23.4922ZM19.2061 23.4922H21.5532L21.98 33.1592V37H19.2061V23.4922ZM31.0532 23.4922H33.4097V37H30.6265V33.1592L31.0532 23.4922ZM40.3027 37.1855C39.5234 37.1855 38.8245 37.0618 38.2061 36.8145C37.5876 36.5609 37.0618 36.2114 36.6289 35.7661C36.2021 35.3208 35.8743 34.8044 35.6455 34.2168C35.4167 33.623 35.3022 32.9922 35.3022 32.3242V31.9531C35.3022 31.1924 35.4105 30.4966 35.627 29.8657C35.8434 29.2349 36.1527 28.6875 36.5547 28.2236C36.9629 27.7598 37.4577 27.4041 38.0391 27.1567C38.6204 26.9032 39.276 26.7764 40.0059 26.7764C40.7171 26.7764 41.348 26.8939 41.8984 27.1289C42.4489 27.3639 42.9097 27.6979 43.2808 28.1309C43.658 28.5638 43.9425 29.0833 44.1343 29.6895C44.326 30.2894 44.4219 30.9574 44.4219 31.6934V32.8066H36.4434V31.0254H41.7964V30.8213C41.7964 30.4502 41.7284 30.1193 41.5923 29.8286C41.4624 29.5317 41.2645 29.2967 40.9985 29.1235C40.7326 28.9504 40.3924 28.8638 39.978 28.8638C39.6255 28.8638 39.3224 28.9411 39.0688 29.0957C38.8153 29.2503 38.6081 29.4668 38.4473 29.7451C38.2926 30.0234 38.1751 30.3512 38.0947 30.7285C38.0205 31.0996 37.9834 31.5078 37.9834 31.9531V32.3242C37.9834 32.7262 38.0391 33.0973 38.1504 33.4375C38.2679 33.7777 38.4318 34.0715 38.6421 34.3188C38.8586 34.5662 39.1183 34.758 39.4214 34.894C39.7306 35.0301 40.0801 35.0981 40.4697 35.0981C40.9521 35.0981 41.4006 35.0054 41.8149 34.8198C42.2355 34.6281 42.5973 34.3405 42.9004 33.957L44.1992 35.3672C43.9889 35.6702 43.7013 35.9609 43.3364 36.2393C42.9777 36.5176 42.5448 36.7464 42.0376 36.9258C41.5304 37.099 40.9521 37.1855 40.3027 37.1855ZM48.5596 29.105V37H45.8877V26.9619H48.3926L48.5596 29.105ZM48.1699 31.6284H47.4463C47.4463 30.8862 47.5422 30.2183 47.7339 29.6245C47.9256 29.0246 48.1947 28.5143 48.541 28.0938C48.8874 27.667 49.2987 27.3423 49.7749 27.1196C50.2573 26.8908 50.7954 26.7764 51.3892 26.7764C51.8592 26.7764 52.2891 26.8444 52.6787 26.9805C53.0684 27.1165 53.4023 27.333 53.6807 27.6299C53.9652 27.9268 54.1816 28.3195 54.3301 28.8081C54.4847 29.2967 54.562 29.8936 54.562 30.5986V37H51.8716V30.5894C51.8716 30.144 51.8097 29.7977 51.686 29.5503C51.5623 29.3029 51.3799 29.1297 51.1387 29.0308C50.9036 28.9256 50.613 28.873 50.2666 28.873C49.9079 28.873 49.5955 28.9442 49.3296 29.0864C49.0698 29.2287 48.8534 29.4266 48.6802 29.6802C48.5132 29.9276 48.3864 30.2183 48.2998 30.5522C48.2132 30.8862 48.1699 31.245 48.1699 31.6284ZM62.5312 34.5972V26.9619H65.2031V37H62.689L62.5312 34.5972ZM62.8281 32.5376L63.6167 32.519C63.6167 33.187 63.5394 33.8086 63.3848 34.3838C63.2301 34.9528 62.9982 35.4476 62.689 35.8682C62.3797 36.2826 61.9901 36.6073 61.52 36.8423C61.05 37.0711 60.4964 37.1855 59.8594 37.1855C59.3708 37.1855 58.9193 37.1175 58.5049 36.9814C58.0967 36.8392 57.7441 36.6196 57.4473 36.3228C57.1566 36.0197 56.9277 35.6331 56.7607 35.1631C56.5999 34.6868 56.5195 34.1147 56.5195 33.4468V26.9619H59.1914V33.4653C59.1914 33.7622 59.2254 34.0127 59.2935 34.2168C59.3677 34.4209 59.4697 34.5879 59.5996 34.7178C59.7295 34.8477 59.881 34.9404 60.0542 34.9961C60.2336 35.0518 60.4315 35.0796 60.6479 35.0796C61.1984 35.0796 61.6313 34.9683 61.9468 34.7456C62.2684 34.5229 62.4941 34.2199 62.624 33.8364C62.7601 33.4468 62.8281 33.0138 62.8281 32.5376Z" fill="#1D42A6"/>
</g>
</g>
</svg>
