<svg width="553" height="47" viewBox="0 0 553 47" fill="none" xmlns="http://www.w3.org/2000/svg">
<g id="Pagenation">
<g id="Previous">
<g id="Previous_2">
<g id="icon">
<g id="icon/select-native-right">
<g id="Union 1" clip-path="url(#clip0_785_8653)">
<path id="Vector" fill-rule="evenodd" clip-rule="evenodd" d="M32.5957 32.0857L31.4172 33.4999L24.3461 25.0145L23.1675 23.6004L31.4171 13.7009L32.5956 15.1152L25.5246 23.6003L32.5957 32.0857Z" fill="#7F7F7D"/>
</g>
</g>
</g>
<g id="Link">
<g id="Link_2">
<path id="Link / Large Screen / Body Regular / Disabled" d="M54.5498 24.7026H50.9409V23.2461H54.5498C55.2487 23.2461 55.8146 23.1348 56.2476 22.9121C56.6805 22.6895 56.9959 22.3802 57.1938 21.9844C57.3979 21.5885 57.5 21.137 57.5 20.6299C57.5 20.166 57.3979 19.73 57.1938 19.3218C56.9959 18.9136 56.6805 18.5858 56.2476 18.3384C55.8146 18.0848 55.2487 17.958 54.5498 17.958H51.3584V30H49.5679V16.4922H54.5498C55.5703 16.4922 56.4331 16.6685 57.1382 17.021C57.8433 17.3735 58.3783 17.8621 58.7432 18.4868C59.1081 19.1053 59.2905 19.8135 59.2905 20.6113C59.2905 21.4772 59.1081 22.2163 58.7432 22.8286C58.3783 23.4409 57.8433 23.9079 57.1382 24.2295C56.4331 24.5449 55.5703 24.7026 54.5498 24.7026ZM63.0107 21.5391V30H61.2944V19.9619H62.9644L63.0107 21.5391ZM66.1465 19.9062L66.1372 21.502C65.995 21.471 65.8589 21.4525 65.729 21.4463C65.6053 21.4339 65.4631 21.4277 65.3022 21.4277C64.9064 21.4277 64.557 21.4896 64.2539 21.6133C63.9508 21.737 63.6942 21.9102 63.4839 22.1328C63.2736 22.3555 63.1066 22.6214 62.9829 22.9307C62.8654 23.2337 62.7881 23.5677 62.751 23.9326L62.2686 24.2109C62.2686 23.6048 62.3273 23.0358 62.4448 22.5039C62.5685 21.972 62.7572 21.502 63.0107 21.0938C63.2643 20.6794 63.5859 20.3577 63.9756 20.1289C64.3714 19.8939 64.8415 19.7764 65.3857 19.7764C65.5094 19.7764 65.6517 19.7918 65.8125 19.8228C65.9733 19.8475 66.0846 19.8753 66.1465 19.9062ZM71.7129 30.1855C71.014 30.1855 70.38 30.068 69.811 29.833C69.2482 29.5918 68.7627 29.2547 68.3545 28.8218C67.9525 28.3888 67.6432 27.8755 67.4268 27.2817C67.2103 26.688 67.1021 26.0386 67.1021 25.3335V24.9438C67.1021 24.1274 67.2227 23.4007 67.4639 22.7637C67.7051 22.1204 68.0329 21.5762 68.4473 21.1309C68.8617 20.6855 69.3317 20.3485 69.8574 20.1196C70.3831 19.8908 70.9274 19.7764 71.4902 19.7764C72.2077 19.7764 72.8262 19.9001 73.3457 20.1475C73.8714 20.3949 74.3013 20.7412 74.6353 21.1865C74.9692 21.6257 75.2166 22.1452 75.3774 22.7451C75.5382 23.3389 75.6187 23.9883 75.6187 24.6934V25.4634H68.1226V24.0625H73.9023V23.9326C73.8776 23.4873 73.7848 23.0544 73.624 22.6338C73.4694 22.2132 73.222 21.8669 72.8818 21.5947C72.5417 21.3226 72.0778 21.1865 71.4902 21.1865C71.1006 21.1865 70.7419 21.27 70.4141 21.437C70.0863 21.5978 69.8049 21.839 69.5698 22.1606C69.3348 22.4823 69.1523 22.875 69.0225 23.3389C68.8926 23.8027 68.8276 24.3377 68.8276 24.9438V25.3335C68.8276 25.8097 68.8926 26.2581 69.0225 26.6787C69.1585 27.0931 69.3534 27.458 69.6069 27.7734C69.8667 28.0889 70.179 28.3363 70.5439 28.5156C70.915 28.695 71.3356 28.7847 71.8057 28.7847C72.4118 28.7847 72.9251 28.661 73.3457 28.4136C73.7663 28.1662 74.1343 27.8353 74.4497 27.4209L75.4888 28.2466C75.2723 28.5744 74.9971 28.8867 74.6631 29.1836C74.3291 29.4805 73.9178 29.7217 73.4292 29.9072C72.9468 30.0928 72.3747 30.1855 71.7129 30.1855ZM80.5449 28.4507L83.291 19.9619H85.0444L81.4355 30H80.2852L80.5449 28.4507ZM78.2534 19.9619L81.083 28.4971L81.2778 30H80.1274L76.4907 19.9619H78.2534ZM88.5605 19.9619V30H86.835V19.9619H88.5605ZM86.7051 17.2993C86.7051 17.021 86.7886 16.786 86.9556 16.5942C87.1287 16.4025 87.3823 16.3066 87.7163 16.3066C88.0441 16.3066 88.2946 16.4025 88.4678 16.5942C88.6471 16.786 88.7368 17.021 88.7368 17.2993C88.7368 17.5653 88.6471 17.7941 88.4678 17.9858C88.2946 18.1714 88.0441 18.2642 87.7163 18.2642C87.3823 18.2642 87.1287 18.1714 86.9556 17.9858C86.7886 17.7941 86.7051 17.5653 86.7051 17.2993ZM90.8613 25.0923V24.8789C90.8613 24.1553 90.9665 23.4842 91.1768 22.8657C91.387 22.241 91.6901 21.6999 92.0859 21.2422C92.4818 20.7783 92.9611 20.4196 93.5239 20.166C94.0868 19.9062 94.7176 19.7764 95.4165 19.7764C96.1216 19.7764 96.7555 19.9062 97.3184 20.166C97.8874 20.4196 98.3698 20.7783 98.7656 21.2422C99.1676 21.6999 99.4738 22.241 99.6841 22.8657C99.8944 23.4842 99.9995 24.1553 99.9995 24.8789V25.0923C99.9995 25.8159 99.8944 26.487 99.6841 27.1055C99.4738 27.724 99.1676 28.2651 98.7656 28.729C98.3698 29.1867 97.8905 29.5454 97.3276 29.8052C96.771 30.0588 96.1401 30.1855 95.4351 30.1855C94.73 30.1855 94.096 30.0588 93.5332 29.8052C92.9704 29.5454 92.488 29.1867 92.0859 28.729C91.6901 28.2651 91.387 27.724 91.1768 27.1055C90.9665 26.487 90.8613 25.8159 90.8613 25.0923ZM92.5776 24.8789V25.0923C92.5776 25.5933 92.6364 26.0664 92.7539 26.5117C92.8714 26.9508 93.0477 27.3405 93.2827 27.6807C93.5239 28.0208 93.8239 28.2899 94.1826 28.4878C94.5413 28.6795 94.9588 28.7754 95.4351 28.7754C95.9051 28.7754 96.3164 28.6795 96.6689 28.4878C97.0277 28.2899 97.3245 28.0208 97.5596 27.6807C97.7946 27.3405 97.9709 26.9508 98.0884 26.5117C98.2121 26.0664 98.2739 25.5933 98.2739 25.0923V24.8789C98.2739 24.3841 98.2121 23.9172 98.0884 23.478C97.9709 23.0327 97.7915 22.64 97.5503 22.2998C97.3153 21.9535 97.0184 21.6813 96.6597 21.4834C96.3071 21.2855 95.8927 21.1865 95.4165 21.1865C94.9465 21.1865 94.5321 21.2855 94.1733 21.4834C93.8208 21.6813 93.5239 21.9535 93.2827 22.2998C93.0477 22.64 92.8714 23.0327 92.7539 23.478C92.6364 23.9172 92.5776 24.3841 92.5776 24.8789ZM108.293 27.6807V19.9619H110.019V30H108.377L108.293 27.6807ZM108.618 25.5654L109.333 25.5469C109.333 26.2148 109.261 26.8333 109.119 27.4023C108.983 27.9652 108.76 28.4538 108.451 28.8682C108.142 29.2826 107.737 29.6073 107.236 29.8423C106.735 30.0711 106.126 30.1855 105.408 30.1855C104.92 30.1855 104.471 30.1144 104.063 29.9722C103.661 29.8299 103.315 29.6104 103.024 29.3135C102.733 29.0166 102.507 28.63 102.347 28.1538C102.192 27.6776 102.115 27.1055 102.115 26.4375V19.9619H103.831V26.4561C103.831 26.9076 103.881 27.2817 103.979 27.5786C104.085 27.8693 104.224 28.1012 104.397 28.2744C104.576 28.4414 104.774 28.5589 104.991 28.627C105.213 28.695 105.442 28.729 105.677 28.729C106.407 28.729 106.985 28.5898 107.412 28.3115C107.839 28.027 108.145 27.6466 108.331 27.1704C108.522 26.688 108.618 26.153 108.618 25.5654ZM118.48 27.3374C118.48 27.09 118.424 26.8612 118.313 26.6509C118.208 26.4344 117.988 26.2396 117.654 26.0664C117.326 25.887 116.832 25.7324 116.17 25.6025C115.613 25.485 115.109 25.3459 114.658 25.1851C114.212 25.0243 113.832 24.8294 113.517 24.6006C113.207 24.3717 112.969 24.1027 112.802 23.7935C112.635 23.4842 112.552 23.1224 112.552 22.708C112.552 22.3122 112.638 21.938 112.812 21.5854C112.991 21.2329 113.241 20.9206 113.563 20.6484C113.891 20.3763 114.284 20.1629 114.741 20.0083C115.199 19.8537 115.709 19.7764 116.272 19.7764C117.076 19.7764 117.763 19.9186 118.332 20.2031C118.901 20.4876 119.337 20.868 119.64 21.3442C119.943 21.8143 120.094 22.3369 120.094 22.9121H118.378C118.378 22.6338 118.294 22.3647 118.127 22.105C117.967 21.839 117.729 21.6195 117.413 21.4463C117.104 21.2731 116.723 21.1865 116.272 21.1865C115.796 21.1865 115.409 21.2607 115.112 21.4092C114.822 21.5514 114.608 21.7339 114.472 21.9565C114.342 22.1792 114.277 22.4142 114.277 22.6616C114.277 22.8472 114.308 23.0142 114.37 23.1626C114.438 23.3049 114.556 23.4378 114.723 23.5615C114.89 23.679 115.125 23.7904 115.428 23.8955C115.731 24.0007 116.117 24.1058 116.587 24.2109C117.41 24.3965 118.087 24.6191 118.619 24.8789C119.151 25.1387 119.547 25.4572 119.807 25.8345C120.066 26.2118 120.196 26.6694 120.196 27.2075C120.196 27.6466 120.104 28.0487 119.918 28.4136C119.739 28.7785 119.476 29.0939 119.129 29.3599C118.789 29.6196 118.381 29.8237 117.905 29.9722C117.435 30.1144 116.906 30.1855 116.318 30.1855C115.434 30.1855 114.686 30.0278 114.073 29.7124C113.461 29.397 112.997 28.9888 112.682 28.4878C112.366 27.9868 112.208 27.458 112.208 26.9014H113.934C113.959 27.3714 114.095 27.7456 114.342 28.0239C114.59 28.2961 114.893 28.4909 115.251 28.6084C115.61 28.7197 115.966 28.7754 116.318 28.7754C116.788 28.7754 117.181 28.7135 117.497 28.5898C117.818 28.4661 118.062 28.2961 118.229 28.0796C118.396 27.8631 118.48 27.6157 118.48 27.3374Z" fill="#1D42A6"/>
</g>
</g>
</g>
</g>
<g id="Page">
<g id="Link to the page">
<g id="Link_3">
<path id="Link / Large Screen / Body Regular / Disabled_2" d="M176.763 13.418V27H175.047V15.561L171.586 16.8228V15.2734L176.494 13.418H176.763Z" fill="#1D42A6"/>
<g id="Link underline">
<rect id="Link underline default" x="170" y="33" width="11" height="2" fill="#1D42A6"/>
</g>
</g>
</g>
</g>
<g id="Page_2">
<path d="M213 4C213 1.79086 214.791 0 217 0H252C254.209 0 256 1.79086 256 4V43C256 45.2091 254.209 47 252 47H217C214.791 47 213 45.2091 213 43V4Z" fill="#1D42A6"/>
<g id="Link to the page_2">
<g id="Link_4">
<path id="Link / Large Screen / Body Regular / Disabled_3" d="M238.973 25.5898V27H230.132V25.7661L234.557 20.8398C235.101 20.2337 235.522 19.7204 235.819 19.2998C236.122 18.873 236.332 18.4927 236.45 18.1587C236.573 17.8185 236.635 17.4722 236.635 17.1196C236.635 16.6743 236.542 16.2723 236.357 15.9136C236.178 15.5487 235.912 15.258 235.559 15.0415C235.207 14.825 234.78 14.7168 234.279 14.7168C233.679 14.7168 233.178 14.8343 232.776 15.0693C232.38 15.2982 232.083 15.6198 231.885 16.0342C231.687 16.4486 231.588 16.9248 231.588 17.4629H229.872C229.872 16.7021 230.039 16.0063 230.373 15.3755C230.707 14.7446 231.202 14.2437 231.857 13.8726C232.513 13.4953 233.32 13.3066 234.279 13.3066C235.132 13.3066 235.862 13.4582 236.468 13.7612C237.074 14.0581 237.538 14.4787 237.86 15.0229C238.188 15.561 238.352 16.1919 238.352 16.9155C238.352 17.3114 238.284 17.7134 238.147 18.1216C238.018 18.5236 237.835 18.9256 237.6 19.3276C237.371 19.7297 237.102 20.1255 236.793 20.5151C236.49 20.9048 236.165 21.2882 235.819 21.6655L232.201 25.5898H238.973Z" fill="white"/>
<g id="Link underline_2">
<rect id="Link underline default_2" x="229" y="33" width="11" height="2" fill="white"/>
</g>
</g>
</g>
</g>
<g id="Page_3">
<g id="Link to the page_3">
<g id="Link_5">
<path id="Link / Large Screen / Body Regular / Disabled_4" d="M291.627 19.4019H292.852C293.452 19.4019 293.947 19.3029 294.336 19.105C294.732 18.9009 295.026 18.6257 295.218 18.2793C295.416 17.9268 295.515 17.5309 295.515 17.0918C295.515 16.5723 295.428 16.1362 295.255 15.7837C295.082 15.4312 294.822 15.1652 294.476 14.9858C294.129 14.8065 293.69 14.7168 293.158 14.7168C292.676 14.7168 292.249 14.8127 291.878 15.0044C291.513 15.1899 291.225 15.4559 291.015 15.8022C290.811 16.1486 290.709 16.5568 290.709 17.0269H288.993C288.993 16.3403 289.166 15.7157 289.512 15.1528C289.859 14.59 290.344 14.1416 290.969 13.8076C291.6 13.4736 292.329 13.3066 293.158 13.3066C293.975 13.3066 294.689 13.452 295.301 13.7427C295.914 14.0272 296.39 14.4539 296.73 15.0229C297.07 15.5858 297.24 16.2878 297.24 17.1289C297.24 17.4691 297.16 17.834 296.999 18.2236C296.844 18.6071 296.6 18.9658 296.266 19.2998C295.938 19.6338 295.512 19.909 294.986 20.1255C294.46 20.3358 293.829 20.4409 293.093 20.4409H291.627V19.4019ZM291.627 20.812V19.7822H293.093C293.953 19.7822 294.664 19.8843 295.227 20.0884C295.79 20.2925 296.232 20.5646 296.554 20.9048C296.882 21.245 297.11 21.6191 297.24 22.0273C297.376 22.4294 297.444 22.8314 297.444 23.2334C297.444 23.8643 297.336 24.424 297.12 24.9126C296.909 25.4012 296.609 25.8156 296.22 26.1558C295.836 26.4959 295.385 26.7526 294.865 26.9258C294.346 27.099 293.78 27.1855 293.167 27.1855C292.58 27.1855 292.026 27.1021 291.507 26.9351C290.993 26.7681 290.539 26.5269 290.143 26.2114C289.747 25.8898 289.438 25.4971 289.215 25.0332C288.993 24.5632 288.881 24.0282 288.881 23.4282H290.598C290.598 23.8983 290.7 24.3096 290.904 24.6621C291.114 25.0146 291.411 25.2899 291.794 25.4878C292.184 25.6795 292.642 25.7754 293.167 25.7754C293.693 25.7754 294.145 25.6857 294.522 25.5063C294.905 25.3208 295.199 25.0425 295.403 24.6714C295.614 24.3003 295.719 23.8333 295.719 23.2705C295.719 22.7077 295.601 22.2469 295.366 21.8882C295.131 21.5233 294.797 21.2542 294.364 21.0811C293.938 20.9017 293.433 20.812 292.852 20.812H291.627Z" fill="#1D42A6"/>
<g id="Link underline_3">
<rect id="Link underline default_3" x="288" y="33" width="11" height="2" fill="#1D42A6"/>
</g>
</g>
</g>
</g>
<g id="Page_4">
<g id="Link to the page_4">
<g id="Link_6">
<path id="Link / Large Screen / Body Regular / Disabled_5" d="M357.251 22.4541V23.8643H347.492V22.853L353.541 13.4922H354.941L353.438 16.2012L349.44 22.4541H357.251ZM355.368 13.4922V27H353.652V13.4922H355.368Z" fill="#1D42A6"/>
<g id="Link underline_4">
<rect id="Link underline default_4" x="347" y="33" width="11" height="2" fill="#1D42A6"/>
</g>
</g>
</g>
</g>
<g id="Page_5">
<g id="Link to the page_5">
<g id="Link_7">
<path id="Link / Large Screen / Body Regular / Disabled_6" d="M409.293 20.5708L407.92 20.2183L408.598 13.4922H415.528V15.0786H410.054L409.646 18.7524C409.893 18.6102 410.206 18.4772 410.583 18.3535C410.966 18.2298 411.406 18.168 411.9 18.168C412.525 18.168 413.085 18.2762 413.58 18.4927C414.074 18.703 414.495 19.006 414.841 19.4019C415.194 19.7977 415.463 20.2739 415.648 20.8306C415.834 21.3872 415.927 22.0088 415.927 22.6953C415.927 23.3447 415.837 23.9416 415.658 24.4858C415.485 25.0301 415.222 25.5063 414.869 25.9146C414.517 26.3166 414.071 26.6289 413.533 26.8516C413.001 27.0742 412.374 27.1855 411.65 27.1855C411.106 27.1855 410.589 27.1113 410.101 26.9629C409.618 26.8083 409.185 26.5763 408.802 26.2671C408.424 25.9517 408.115 25.562 407.874 25.0981C407.639 24.6281 407.491 24.0776 407.429 23.4468H409.062C409.136 23.9539 409.284 24.3807 409.507 24.7271C409.729 25.0734 410.02 25.3363 410.379 25.5156C410.744 25.6888 411.167 25.7754 411.65 25.7754C412.058 25.7754 412.42 25.7043 412.735 25.562C413.051 25.4198 413.317 25.2157 413.533 24.9497C413.75 24.6838 413.914 24.3621 414.025 23.9849C414.142 23.6076 414.201 23.1839 414.201 22.7139C414.201 22.2871 414.142 21.8913 414.025 21.5264C413.907 21.1615 413.731 20.8429 413.496 20.5708C413.267 20.2987 412.986 20.0884 412.652 19.9399C412.318 19.7853 411.934 19.708 411.501 19.708C410.926 19.708 410.49 19.7853 410.193 19.9399C409.903 20.0946 409.603 20.3049 409.293 20.5708Z" fill="#1D42A6"/>
<g id="Link underline_5">
<rect id="Link underline default_5" x="406" y="33" width="11" height="2" fill="#1D42A6"/>
</g>
</g>
</g>
</g>
<g id="Next">
<g id="Previous_3">
<g id="Link_8">
<g id="Link_9">
<path id="Link / Large Screen / Body Regular / Disabled_7" d="M476.958 16.4922V30H475.159L468.358 19.5815V30H466.568V16.4922H468.358L475.187 26.9385V16.4922H476.958ZM484.037 30.1855C483.338 30.1855 482.704 30.068 482.135 29.833C481.572 29.5918 481.087 29.2547 480.679 28.8218C480.277 28.3888 479.967 27.8755 479.751 27.2817C479.535 26.688 479.426 26.0386 479.426 25.3335V24.9438C479.426 24.1274 479.547 23.4007 479.788 22.7637C480.029 22.1204 480.357 21.5762 480.771 21.1309C481.186 20.6855 481.656 20.3485 482.182 20.1196C482.707 19.8908 483.252 19.7764 483.814 19.7764C484.532 19.7764 485.15 19.9001 485.67 20.1475C486.196 20.3949 486.625 20.7412 486.959 21.1865C487.293 21.6257 487.541 22.1452 487.702 22.7451C487.862 23.3389 487.943 23.9883 487.943 24.6934V25.4634H480.447V24.0625H486.227V23.9326C486.202 23.4873 486.109 23.0544 485.948 22.6338C485.794 22.2132 485.546 21.8669 485.206 21.5947C484.866 21.3226 484.402 21.1865 483.814 21.1865C483.425 21.1865 483.066 21.27 482.738 21.437C482.41 21.5978 482.129 21.839 481.894 22.1606C481.659 22.4823 481.477 22.875 481.347 23.3389C481.217 23.8027 481.152 24.3377 481.152 24.9438V25.3335C481.152 25.8097 481.217 26.2581 481.347 26.6787C481.483 27.0931 481.678 27.458 481.931 27.7734C482.191 28.0889 482.503 28.3363 482.868 28.5156C483.239 28.695 483.66 28.7847 484.13 28.7847C484.736 28.7847 485.249 28.661 485.67 28.4136C486.09 28.1662 486.458 27.8353 486.774 27.4209L487.813 28.2466C487.597 28.5744 487.321 28.8867 486.987 29.1836C486.653 29.4805 486.242 29.7217 485.753 29.9072C485.271 30.0928 484.699 30.1855 484.037 30.1855ZM491.106 19.9619L493.305 23.6172L495.532 19.9619H497.545L494.261 24.916L497.647 30H495.662L493.342 26.2334L491.023 30H489.028L492.405 24.916L489.13 19.9619H491.106ZM503.575 19.9619V21.2793H498.148V19.9619H503.575ZM499.985 17.522H501.701V27.5137C501.701 27.8538 501.754 28.1105 501.859 28.2837C501.964 28.4569 502.1 28.5713 502.267 28.627C502.434 28.6826 502.613 28.7104 502.805 28.7104C502.947 28.7104 503.096 28.6981 503.25 28.6733C503.411 28.6424 503.532 28.6177 503.612 28.5991L503.622 30C503.486 30.0433 503.306 30.0835 503.083 30.1206C502.867 30.1639 502.604 30.1855 502.295 30.1855C501.874 30.1855 501.488 30.1021 501.135 29.9351C500.783 29.7681 500.501 29.4897 500.291 29.1001C500.087 28.7043 499.985 28.1724 499.985 27.5044V17.522Z" fill="#1D42A6"/>
</g>
</g>
<g id="icon_2">
<g id="icon/select-native-right_2">
<g id="Union 1_2" clip-path="url(#clip1_785_8653)">
<path id="Vector_2" fill-rule="evenodd" clip-rule="evenodd" d="M520.404 32.0857L521.583 33.4999L528.654 25.0145L529.833 23.6004L521.583 13.7009L520.404 15.1152L527.475 23.6003L520.404 32.0857Z" fill="#7F7F7D"/>
</g>
</g>
</g>
</g>
</g>
</g>
<defs>
<clipPath id="clip0_785_8653">
<rect width="20" height="10" fill="white" transform="matrix(4.37114e-08 -1 -1 -4.37114e-08 33 33.5)"/>
</clipPath>
<clipPath id="clip1_785_8653">
<rect width="20" height="10" fill="white" transform="translate(520 33.5) rotate(-90)"/>
</clipPath>
</defs>
</svg>
