<svg width="157" height="69" viewBox="0 0 157 69" fill="none" xmlns="http://www.w3.org/2000/svg">
<g id="Primary Button" filter="url(#filter0_d_824_2155)">
<path d="M10 14C10 11.7909 11.7909 10 14 10H143C145.209 10 147 11.7909 147 14V55C147 57.2091 145.209 59 143 59H14C11.7909 59 10 57.2091 10 55V14Z" fill="#1D42A6"/>
<g id="Button">
<g id="icon">
<path id="Vector" d="M53.6 43.5L47.3 37.2C46.8 37.6 46.225 37.9167 45.575 38.15C44.925 38.3833 44.2333 38.5 43.5 38.5C41.6833 38.5 40.1458 37.8708 38.8875 36.6125C37.6292 35.3542 37 33.8167 37 32C37 30.1833 37.6292 28.6458 38.8875 27.3875C40.1458 26.1292 41.6833 25.5 43.5 25.5C45.3167 25.5 46.8542 26.1292 48.1125 27.3875C49.3708 28.6458 50 30.1833 50 32C50 32.7333 49.8833 33.425 49.65 34.075C49.4167 34.725 49.1 35.3 48.7 35.8L55 42.1L53.6 43.5ZM43.5 36.5C44.75 36.5 45.8125 36.0625 46.6875 35.1875C47.5625 34.3125 48 33.25 48 32C48 30.75 47.5625 29.6875 46.6875 28.8125C45.8125 27.9375 44.75 27.5 43.5 27.5C42.25 27.5 41.1875 27.9375 40.3125 28.8125C39.4375 29.6875 39 30.75 39 32C39 33.25 39.4375 34.3125 40.3125 35.1875C41.1875 36.0625 42.25 36.5 43.5 36.5Z" fill="white"/>
</g>
<path id="Text" d="M72.5962 35.0718H69.1265L69.1079 33.1606H72.021C72.5343 33.1606 72.9549 33.0957 73.2827 32.9658C73.6105 32.8298 73.8548 32.6349 74.0156 32.3813C74.1826 32.1216 74.2661 31.8062 74.2661 31.4351C74.2661 31.0145 74.1857 30.6743 74.0249 30.4146C73.8703 30.1548 73.626 29.9661 73.292 29.8486C72.9642 29.7311 72.5405 29.6724 72.021 29.6724H70.0913V41H67.3081V27.4922H72.021C72.8065 27.4922 73.5085 27.5664 74.127 27.7148C74.7516 27.8633 75.2804 28.089 75.7134 28.3921C76.1463 28.6951 76.4772 29.0786 76.7061 29.5425C76.9349 30.0002 77.0493 30.5444 77.0493 31.1753C77.0493 31.7319 76.9225 32.2453 76.6689 32.7153C76.4215 33.1854 76.0288 33.5688 75.4907 33.8657C74.9588 34.1626 74.263 34.3265 73.4033 34.3574L72.5962 35.0718ZM72.4756 41H68.3657L69.4512 38.8291H72.4756C72.9642 38.8291 73.3631 38.7518 73.6724 38.5972C73.9816 38.4364 74.2104 38.2199 74.3589 37.9478C74.5073 37.6756 74.5815 37.3633 74.5815 37.0107C74.5815 36.6149 74.5135 36.2716 74.3774 35.981C74.2476 35.6903 74.0373 35.4676 73.7466 35.313C73.4559 35.1522 73.0724 35.0718 72.5962 35.0718H69.915L69.9336 33.1606H73.2734L73.9136 33.9121C74.7362 33.8997 75.3979 34.0451 75.8989 34.3481C76.4061 34.645 76.7741 35.0316 77.0029 35.5078C77.238 35.984 77.3555 36.4943 77.3555 37.0386C77.3555 37.9045 77.1668 38.6343 76.7896 39.228C76.4123 39.8156 75.8587 40.2578 75.1289 40.5547C74.4053 40.8516 73.5208 41 72.4756 41ZM85.2134 38.5972V30.9619H87.8853V41H85.3711L85.2134 38.5972ZM85.5103 36.5376L86.2988 36.519C86.2988 37.187 86.2215 37.8086 86.0669 38.3838C85.9123 38.9528 85.6803 39.4476 85.3711 39.8682C85.0618 40.2826 84.6722 40.6073 84.2021 40.8423C83.7321 41.0711 83.1785 41.1855 82.5415 41.1855C82.0529 41.1855 81.6014 41.1175 81.187 40.9814C80.7788 40.8392 80.4263 40.6196 80.1294 40.3228C79.8387 40.0197 79.6099 39.6331 79.4429 39.1631C79.2821 38.6868 79.2017 38.1147 79.2017 37.4468V30.9619H81.8735V37.4653C81.8735 37.7622 81.9076 38.0127 81.9756 38.2168C82.0498 38.4209 82.1519 38.5879 82.2817 38.7178C82.4116 38.8477 82.5632 38.9404 82.7363 38.9961C82.9157 39.0518 83.1136 39.0796 83.3301 39.0796C83.8805 39.0796 84.3135 38.9683 84.6289 38.7456C84.9505 38.5229 85.1763 38.2199 85.3062 37.8364C85.4422 37.4468 85.5103 37.0138 85.5103 36.5376ZM94.8433 30.9619V32.8545H88.9985V30.9619H94.8433ZM90.4458 28.4849H93.1177V37.9756C93.1177 38.2663 93.1548 38.4889 93.229 38.6436C93.3094 38.7982 93.4269 38.9064 93.5815 38.9683C93.7362 39.0239 93.931 39.0518 94.166 39.0518C94.333 39.0518 94.4814 39.0456 94.6113 39.0332C94.7474 39.0146 94.8618 38.9961 94.9546 38.9775L94.9639 40.9443C94.735 41.0186 94.4876 41.0773 94.2217 41.1206C93.9557 41.1639 93.6619 41.1855 93.3403 41.1855C92.7528 41.1855 92.2394 41.0897 91.8003 40.8979C91.3674 40.7 91.0334 40.3846 90.7983 39.9517C90.5633 39.5187 90.4458 38.9497 90.4458 38.2446V28.4849ZM101.282 30.9619V32.8545H95.437V30.9619H101.282ZM96.8843 28.4849H99.5562V37.9756C99.5562 38.2663 99.5933 38.4889 99.6675 38.6436C99.7479 38.7982 99.8654 38.9064 100.02 38.9683C100.175 39.0239 100.369 39.0518 100.604 39.0518C100.771 39.0518 100.92 39.0456 101.05 39.0332C101.186 39.0146 101.3 38.9961 101.393 38.9775L101.402 40.9443C101.174 41.0186 100.926 41.0773 100.66 41.1206C100.394 41.1639 100.1 41.1855 99.7788 41.1855C99.1912 41.1855 98.6779 41.0897 98.2388 40.8979C97.8058 40.7 97.4718 40.3846 97.2368 39.9517C97.0018 39.5187 96.8843 38.9497 96.8843 38.2446V28.4849ZM102.135 36.083V35.8882C102.135 35.1522 102.24 34.4749 102.451 33.8564C102.661 33.2318 102.967 32.6906 103.369 32.2329C103.771 31.7752 104.266 31.4196 104.854 31.166C105.441 30.9062 106.115 30.7764 106.876 30.7764C107.637 30.7764 108.314 30.9062 108.908 31.166C109.501 31.4196 109.999 31.7752 110.401 32.2329C110.81 32.6906 111.119 33.2318 111.329 33.8564C111.539 34.4749 111.645 35.1522 111.645 35.8882V36.083C111.645 36.8128 111.539 37.4901 111.329 38.1147C111.119 38.7332 110.81 39.2744 110.401 39.7383C109.999 40.196 109.505 40.5516 108.917 40.8052C108.329 41.0588 107.655 41.1855 106.895 41.1855C106.134 41.1855 105.457 41.0588 104.863 40.8052C104.275 40.5516 103.777 40.196 103.369 39.7383C102.967 39.2744 102.661 38.7332 102.451 38.1147C102.24 37.4901 102.135 36.8128 102.135 36.083ZM104.807 35.8882V36.083C104.807 36.5036 104.844 36.8963 104.918 37.2612C104.993 37.6261 105.11 37.9478 105.271 38.2261C105.438 38.4982 105.654 38.7116 105.92 38.8662C106.186 39.0208 106.511 39.0981 106.895 39.0981C107.266 39.0981 107.584 39.0208 107.85 38.8662C108.116 38.7116 108.329 38.4982 108.49 38.2261C108.651 37.9478 108.769 37.6261 108.843 37.2612C108.923 36.8963 108.963 36.5036 108.963 36.083V35.8882C108.963 35.48 108.923 35.0965 108.843 34.7378C108.769 34.3729 108.648 34.0513 108.481 33.7729C108.32 33.4884 108.107 33.2658 107.841 33.105C107.575 32.9442 107.253 32.8638 106.876 32.8638C106.499 32.8638 106.177 32.9442 105.911 33.105C105.651 33.2658 105.438 33.4884 105.271 33.7729C105.11 34.0513 104.993 34.3729 104.918 34.7378C104.844 35.0965 104.807 35.48 104.807 35.8882ZM115.903 33.105V41H113.231V30.9619H115.736L115.903 33.105ZM115.513 35.6284H114.79C114.79 34.8862 114.885 34.2183 115.077 33.6245C115.269 33.0246 115.538 32.5143 115.884 32.0938C116.231 31.667 116.642 31.3423 117.118 31.1196C117.601 30.8908 118.139 30.7764 118.732 30.7764C119.202 30.7764 119.632 30.8444 120.022 30.9805C120.412 31.1165 120.746 31.333 121.024 31.6299C121.308 31.9268 121.525 32.3195 121.673 32.8081C121.828 33.2967 121.905 33.8936 121.905 34.5986V41H119.215V34.5894C119.215 34.144 119.153 33.7977 119.029 33.5503C118.906 33.3029 118.723 33.1297 118.482 33.0308C118.247 32.9256 117.956 32.873 117.61 32.873C117.251 32.873 116.939 32.9442 116.673 33.0864C116.413 33.2287 116.197 33.4266 116.023 33.6802C115.856 33.9276 115.73 34.2183 115.643 34.5522C115.556 34.8862 115.513 35.245 115.513 35.6284Z" fill="white"/>
</g>
</g>
<defs>
<filter id="filter0_d_824_2155" x="0" y="0" width="157" height="69" filterUnits="userSpaceOnUse" color-interpolation-filters="sRGB">
<feFlood flood-opacity="0" result="BackgroundImageFix"/>
<feColorMatrix in="SourceAlpha" type="matrix" values="0 0 0 0 0 0 0 0 0 0 0 0 0 0 0 0 0 0 127 0" result="hardAlpha"/>
<feOffset/>
<feGaussianBlur stdDeviation="5"/>
<feComposite in2="hardAlpha" operator="out"/>
<feColorMatrix type="matrix" values="0 0 0 0 0.129412 0 0 0 0 0.113725 0 0 0 0 0.109804 0 0 0 0.2 0"/>
<feBlend mode="normal" in2="BackgroundImageFix" result="effect1_dropShadow_824_2155"/>
<feBlend mode="normal" in="SourceGraphic" in2="effect1_dropShadow_824_2155" result="shape"/>
</filter>
</defs>
</svg>
