<svg width="128" height="49" viewBox="0 0 128 49" fill="none" xmlns="http://www.w3.org/2000/svg">
<g id="Radio">
<circle id="Ellipse 7" cx="20" cy="24.5" r="19" fill="white" stroke="#7F7F7D" stroke-width="2"/>
<g id="Option">
<path id="TEXT" d="M67.9678 23.8193V24.6729C67.9678 25.6872 67.841 26.5964 67.5874 27.4004C67.3338 28.2044 66.9689 28.8879 66.4927 29.4507C66.0164 30.0135 65.4443 30.4434 64.7764 30.7402C64.1146 31.0371 63.3724 31.1855 62.5498 31.1855C61.752 31.1855 61.019 31.0371 60.3511 30.7402C59.6893 30.4434 59.1141 30.0135 58.6255 29.4507C58.1431 28.8879 57.7689 28.2044 57.5029 27.4004C57.237 26.5964 57.104 25.6872 57.104 24.6729V23.8193C57.104 22.805 57.2339 21.8989 57.4937 21.1011C57.7596 20.297 58.1338 19.6136 58.6162 19.0508C59.0986 18.4818 59.6707 18.0488 60.3325 17.752C61.0005 17.4551 61.7334 17.3066 62.5312 17.3066C63.3538 17.3066 64.096 17.4551 64.7578 17.752C65.4258 18.0488 65.9979 18.4818 66.4741 19.0508C66.9565 19.6136 67.3245 20.297 67.5781 21.1011C67.8379 21.8989 67.9678 22.805 67.9678 23.8193ZM66.1958 24.6729V23.8008C66.1958 22.9967 66.1123 22.2855 65.9453 21.667C65.7845 21.0485 65.5464 20.529 65.231 20.1084C64.9155 19.6878 64.529 19.3693 64.0713 19.1528C63.6198 18.9364 63.1064 18.8281 62.5312 18.8281C61.9746 18.8281 61.4705 18.9364 61.019 19.1528C60.5737 19.3693 60.1903 19.6878 59.8687 20.1084C59.5532 20.529 59.3089 21.0485 59.1357 21.667C58.9626 22.2855 58.876 22.9967 58.876 23.8008V24.6729C58.876 25.4831 58.9626 26.2005 59.1357 26.8252C59.3089 27.4437 59.5563 27.9663 59.8779 28.3931C60.2057 28.8136 60.5923 29.1322 61.0376 29.3486C61.4891 29.5651 61.9932 29.6733 62.5498 29.6733C63.1312 29.6733 63.6476 29.5651 64.0991 29.3486C64.5506 29.1322 64.931 28.8136 65.2402 28.3931C65.5557 27.9663 65.7938 27.4437 65.9546 26.8252C66.1154 26.2005 66.1958 25.4831 66.1958 24.6729ZM72.1055 22.8916V34.8594H70.3799V20.9619H71.957L72.1055 22.8916ZM78.8687 25.8975V26.0923C78.8687 26.8221 78.7821 27.4993 78.6089 28.124C78.4357 28.7425 78.1821 29.2806 77.8481 29.7383C77.5203 30.196 77.1152 30.5516 76.6328 30.8052C76.1504 31.0588 75.5968 31.1855 74.9722 31.1855C74.3351 31.1855 73.7723 31.0804 73.2837 30.8701C72.7951 30.6598 72.3807 30.3537 72.0405 29.9517C71.7004 29.5496 71.4282 29.0672 71.2241 28.5044C71.0262 27.9416 70.8901 27.3076 70.8159 26.6025V25.5635C70.8901 24.8213 71.0293 24.1564 71.2334 23.5688C71.4375 22.9813 71.7065 22.4803 72.0405 22.0659C72.3807 21.6453 72.792 21.3268 73.2744 21.1104C73.7568 20.8877 74.3135 20.7764 74.9443 20.7764C75.5752 20.7764 76.1349 20.9001 76.6235 21.1475C77.1121 21.3887 77.5234 21.735 77.8574 22.1865C78.1914 22.638 78.4419 23.1792 78.6089 23.8101C78.7821 24.4347 78.8687 25.1305 78.8687 25.8975ZM77.1431 26.0923V25.8975C77.1431 25.3965 77.0905 24.9264 76.9854 24.4873C76.8802 24.042 76.7163 23.6523 76.4937 23.3184C76.2772 22.9782 75.9989 22.7122 75.6587 22.5205C75.3185 22.3226 74.9134 22.2236 74.4434 22.2236C74.0104 22.2236 73.6331 22.2979 73.3115 22.4463C72.9961 22.5947 72.7271 22.7957 72.5044 23.0493C72.2817 23.2967 72.0993 23.5812 71.957 23.9028C71.821 24.2183 71.7189 24.5461 71.6509 24.8862V27.2891C71.7746 27.722 71.9478 28.1302 72.1704 28.5137C72.3931 28.891 72.6899 29.1971 73.061 29.4321C73.4321 29.661 73.8991 29.7754 74.4619 29.7754C74.9258 29.7754 75.3247 29.6795 75.6587 29.4878C75.9989 29.2899 76.2772 29.0208 76.4937 28.6807C76.7163 28.3405 76.8802 27.9508 76.9854 27.5117C77.0905 27.0664 77.1431 26.5933 77.1431 26.0923ZM85.2607 20.9619V22.2793H79.8335V20.9619H85.2607ZM81.6704 18.522H83.3867V28.5137C83.3867 28.8538 83.4393 29.1105 83.5444 29.2837C83.6496 29.4569 83.7856 29.5713 83.9526 29.627C84.1196 29.6826 84.299 29.7104 84.4907 29.7104C84.633 29.7104 84.7814 29.6981 84.936 29.6733C85.0968 29.6424 85.2174 29.6177 85.2979 29.5991L85.3071 31C85.1711 31.0433 84.9917 31.0835 84.769 31.1206C84.5526 31.1639 84.2897 31.1855 83.9805 31.1855C83.5599 31.1855 83.1733 31.1021 82.8208 30.9351C82.4683 30.7681 82.1868 30.4897 81.9766 30.1001C81.7725 29.7043 81.6704 29.1724 81.6704 28.5044V18.522ZM89.1387 20.9619V31H87.4131V20.9619H89.1387ZM87.2832 18.2993C87.2832 18.021 87.3667 17.786 87.5337 17.5942C87.7069 17.4025 87.9604 17.3066 88.2944 17.3066C88.6222 17.3066 88.8727 17.4025 89.0459 17.5942C89.2253 17.786 89.3149 18.021 89.3149 18.2993C89.3149 18.5653 89.2253 18.7941 89.0459 18.9858C88.8727 19.1714 88.6222 19.2642 88.2944 19.2642C87.9604 19.2642 87.7069 19.1714 87.5337 18.9858C87.3667 18.7941 87.2832 18.5653 87.2832 18.2993ZM91.4395 26.0923V25.8789C91.4395 25.1553 91.5446 24.4842 91.7549 23.8657C91.9652 23.241 92.2682 22.6999 92.6641 22.2422C93.0599 21.7783 93.5392 21.4196 94.1021 21.166C94.6649 20.9062 95.2957 20.7764 95.9946 20.7764C96.6997 20.7764 97.3337 20.9062 97.8965 21.166C98.4655 21.4196 98.9479 21.7783 99.3438 22.2422C99.7458 22.6999 100.052 23.241 100.262 23.8657C100.472 24.4842 100.578 25.1553 100.578 25.8789V26.0923C100.578 26.8159 100.472 27.487 100.262 28.1055C100.052 28.724 99.7458 29.2651 99.3438 29.729C98.9479 30.1867 98.4686 30.5454 97.9058 30.8052C97.3491 31.0588 96.7183 31.1855 96.0132 31.1855C95.3081 31.1855 94.6742 31.0588 94.1113 30.8052C93.5485 30.5454 93.0661 30.1867 92.6641 29.729C92.2682 29.2651 91.9652 28.724 91.7549 28.1055C91.5446 27.487 91.4395 26.8159 91.4395 26.0923ZM93.1558 25.8789V26.0923C93.1558 26.5933 93.2145 27.0664 93.332 27.5117C93.4495 27.9508 93.6258 28.3405 93.8608 28.6807C94.1021 29.0208 94.402 29.2899 94.7607 29.4878C95.1195 29.6795 95.5369 29.7754 96.0132 29.7754C96.4832 29.7754 96.8945 29.6795 97.2471 29.4878C97.6058 29.2899 97.9027 29.0208 98.1377 28.6807C98.3727 28.3405 98.549 27.9508 98.6665 27.5117C98.7902 27.0664 98.8521 26.5933 98.8521 26.0923V25.8789C98.8521 25.3841 98.7902 24.9172 98.6665 24.478C98.549 24.0327 98.3696 23.64 98.1284 23.2998C97.8934 22.9535 97.5965 22.6813 97.2378 22.4834C96.8853 22.2855 96.4709 22.1865 95.9946 22.1865C95.5246 22.1865 95.1102 22.2855 94.7515 22.4834C94.3989 22.6813 94.1021 22.9535 93.8608 23.2998C93.6258 23.64 93.4495 24.0327 93.332 24.478C93.2145 24.9172 93.1558 25.3841 93.1558 25.8789ZM104.446 23.105V31H102.73V20.9619H104.354L104.446 23.105ZM104.038 25.6006L103.324 25.5728C103.33 24.8862 103.432 24.2523 103.63 23.6709C103.828 23.0833 104.106 22.5731 104.465 22.1401C104.824 21.7072 105.25 21.3732 105.745 21.1382C106.246 20.897 106.8 20.7764 107.406 20.7764C107.901 20.7764 108.346 20.8444 108.742 20.9805C109.138 21.1104 109.475 21.3206 109.753 21.6113C110.037 21.902 110.254 22.2793 110.402 22.7432C110.551 23.2008 110.625 23.7606 110.625 24.4224V31H108.899V24.4038C108.899 23.8781 108.822 23.4575 108.667 23.1421C108.513 22.8205 108.287 22.5885 107.99 22.4463C107.693 22.2979 107.328 22.2236 106.896 22.2236C106.469 22.2236 106.079 22.3133 105.727 22.4927C105.38 22.672 105.08 22.9194 104.827 23.2349C104.579 23.5503 104.384 23.9121 104.242 24.3203C104.106 24.7223 104.038 25.1491 104.038 25.6006Z" fill="#211D1C"/>
</g>
</g>
</svg>
