<svg width="640" height="48" viewBox="0 0 640 48" fill="none" xmlns="http://www.w3.org/2000/svg">
<g id="Search">
<mask id="path-1-inside-1_577_7135" fill="white">
<path d="M0 4C0 1.79086 1.79086 0 4 0H636C638.209 0 640 1.79086 640 4V44C640 46.2091 638.209 48 636 48H4.00002C1.79088 48 0 46.2091 0 44V4Z"/>
</mask>
<path d="M0 4C0 1.79086 1.79086 0 4 0H636C638.209 0 640 1.79086 640 4V44C640 46.2091 638.209 48 636 48H4.00002C1.79088 48 0 46.2091 0 44V4Z" fill="white"/>
<path d="M4 2H636V-2H4V2ZM638 4V44H642V4H638ZM636 46H4.00002V50H636V46ZM2 44V4H-2V44H2ZM4.00002 46C2.89544 46 2 45.1046 2 44H-2C-2 47.3137 0.686317 50 4.00002 50V46ZM638 44C638 45.1046 637.105 46 636 46V50C639.314 50 642 47.3137 642 44H638ZM636 2C637.105 2 638 2.89544 638 4H642C642 0.686282 639.314 -2 636 -2V2ZM4 -2C0.686292 -2 -2 0.68629 -2 4H2C2 2.89543 2.89543 2 4 2V-2Z" fill="#7F7F7D" mask="url(#path-1-inside-1_577_7135)"/>
<g id="Icon+Hint Search Text">
<path id="Vector" d="M38.1333 36L29.7333 27.6C29.0667 28.1333 28.3 28.5556 27.4333 28.8667C26.5667 29.1778 25.6444 29.3333 24.6667 29.3333C22.2444 29.3333 20.1944 28.4944 18.5167 26.8167C16.8389 25.1389 16 23.0889 16 20.6667C16 18.2444 16.8389 16.1944 18.5167 14.5167C20.1944 12.8389 22.2444 12 24.6667 12C27.0889 12 29.1389 12.8389 30.8167 14.5167C32.4944 16.1944 33.3333 18.2444 33.3333 20.6667C33.3333 21.6444 33.1778 22.5667 32.8667 23.4333C32.5556 24.3 32.1333 25.0667 31.6 25.7333L40 34.1333L38.1333 36ZM24.6667 26.6667C26.3333 26.6667 27.75 26.0833 28.9167 24.9167C30.0833 23.75 30.6667 22.3333 30.6667 20.6667C30.6667 19 30.0833 17.5833 28.9167 16.4167C27.75 15.25 26.3333 14.6667 24.6667 14.6667C23 14.6667 21.5833 15.25 20.4167 16.4167C19.25 17.5833 18.6667 19 18.6667 20.6667C18.6667 22.3333 19.25 23.75 20.4167 24.9167C21.5833 26.0833 23 26.6667 24.6667 26.6667Z" fill="#7F7F7D"/>
</g>
</g>
</svg>
