<svg width="159" height="71" viewBox="0 0 159 71" fill="none" xmlns="http://www.w3.org/2000/svg">
<g id="Secondary Button" filter="url(#filter0_d_882_9321)">
<path d="M11 15C11 12.7909 12.7909 11 15 11H144C146.209 11 148 12.7909 148 15V56C148 58.2091 146.209 60 144 60H15C12.7909 60 11 58.2091 11 56V15Z" fill="white"/>
<path d="M15 11V12H144V11V10H15V11ZM148 15H147V56H148H149V15H148ZM144 60V59H15V60V61H144V60ZM11 56H12V15H11H10V56H11ZM15 60V59C13.3431 59 12 57.6569 12 56H11H10C10 58.7614 12.2386 61 15 61V60ZM148 56H147C147 57.6569 145.657 59 144 59V60V61C146.761 61 149 58.7614 149 56H148ZM144 11V12C145.657 12 147 13.3431 147 15H148H149C149 12.2386 146.761 10 144 10V11ZM15 11V10C12.2386 10 10 12.2386 10 15H11H12C12 13.3431 13.3431 12 15 12V11Z" fill="#1D42A6"/>
<g id="Button">
<g id="icon">
<path id="Vector" d="M54.6 44.5L48.3 38.2C47.8 38.6 47.225 38.9167 46.575 39.15C45.925 39.3833 45.2333 39.5 44.5 39.5C42.6833 39.5 41.1458 38.8708 39.8875 37.6125C38.6292 36.3542 38 34.8167 38 33C38 31.1833 38.6292 29.6458 39.8875 28.3875C41.1458 27.1292 42.6833 26.5 44.5 26.5C46.3167 26.5 47.8542 27.1292 49.1125 28.3875C50.3708 29.6458 51 31.1833 51 33C51 33.7333 50.8833 34.425 50.65 35.075C50.4167 35.725 50.1 36.3 49.7 36.8L56 43.1L54.6 44.5ZM44.5 37.5C45.75 37.5 46.8125 37.0625 47.6875 36.1875C48.5625 35.3125 49 34.25 49 33C49 31.75 48.5625 30.6875 47.6875 29.8125C46.8125 28.9375 45.75 28.5 44.5 28.5C43.25 28.5 42.1875 28.9375 41.3125 29.8125C40.4375 30.6875 40 31.75 40 33C40 34.25 40.4375 35.3125 41.3125 36.1875C42.1875 37.0625 43.25 37.5 44.5 37.5Z" fill="#1D42A6"/>
</g>
<path id="ACTION" d="M73.5962 36.0718H70.1265L70.1079 34.1606H73.021C73.5343 34.1606 73.9549 34.0957 74.2827 33.9658C74.6105 33.8298 74.8548 33.6349 75.0156 33.3813C75.1826 33.1216 75.2661 32.8062 75.2661 32.4351C75.2661 32.0145 75.1857 31.6743 75.0249 31.4146C74.8703 31.1548 74.626 30.9661 74.292 30.8486C73.9642 30.7311 73.5405 30.6724 73.021 30.6724H71.0913V42H68.3081V28.4922H73.021C73.8065 28.4922 74.5085 28.5664 75.127 28.7148C75.7516 28.8633 76.2804 29.089 76.7134 29.3921C77.1463 29.6951 77.4772 30.0786 77.7061 30.5425C77.9349 31.0002 78.0493 31.5444 78.0493 32.1753C78.0493 32.7319 77.9225 33.2453 77.6689 33.7153C77.4215 34.1854 77.0288 34.5688 76.4907 34.8657C75.9588 35.1626 75.263 35.3265 74.4033 35.3574L73.5962 36.0718ZM73.4756 42H69.3657L70.4512 39.8291H73.4756C73.9642 39.8291 74.3631 39.7518 74.6724 39.5972C74.9816 39.4364 75.2104 39.2199 75.3589 38.9478C75.5073 38.6756 75.5815 38.3633 75.5815 38.0107C75.5815 37.6149 75.5135 37.2716 75.3774 36.981C75.2476 36.6903 75.0373 36.4676 74.7466 36.313C74.4559 36.1522 74.0724 36.0718 73.5962 36.0718H70.915L70.9336 34.1606H74.2734L74.9136 34.9121C75.7362 34.8997 76.3979 35.0451 76.8989 35.3481C77.4061 35.645 77.7741 36.0316 78.0029 36.5078C78.238 36.984 78.3555 37.4943 78.3555 38.0386C78.3555 38.9045 78.1668 39.6343 77.7896 40.228C77.4123 40.8156 76.8587 41.2578 76.1289 41.5547C75.4053 41.8516 74.5208 42 73.4756 42ZM86.2134 39.5972V31.9619H88.8853V42H86.3711L86.2134 39.5972ZM86.5103 37.5376L87.2988 37.519C87.2988 38.187 87.2215 38.8086 87.0669 39.3838C86.9123 39.9528 86.6803 40.4476 86.3711 40.8682C86.0618 41.2826 85.6722 41.6073 85.2021 41.8423C84.7321 42.0711 84.1785 42.1855 83.5415 42.1855C83.0529 42.1855 82.6014 42.1175 82.187 41.9814C81.7788 41.8392 81.4263 41.6196 81.1294 41.3228C80.8387 41.0197 80.6099 40.6331 80.4429 40.1631C80.2821 39.6868 80.2017 39.1147 80.2017 38.4468V31.9619H82.8735V38.4653C82.8735 38.7622 82.9076 39.0127 82.9756 39.2168C83.0498 39.4209 83.1519 39.5879 83.2817 39.7178C83.4116 39.8477 83.5632 39.9404 83.7363 39.9961C83.9157 40.0518 84.1136 40.0796 84.3301 40.0796C84.8805 40.0796 85.3135 39.9683 85.6289 39.7456C85.9505 39.5229 86.1763 39.2199 86.3062 38.8364C86.4422 38.4468 86.5103 38.0138 86.5103 37.5376ZM95.8433 31.9619V33.8545H89.9985V31.9619H95.8433ZM91.4458 29.4849H94.1177V38.9756C94.1177 39.2663 94.1548 39.4889 94.229 39.6436C94.3094 39.7982 94.4269 39.9064 94.5815 39.9683C94.7362 40.0239 94.931 40.0518 95.166 40.0518C95.333 40.0518 95.4814 40.0456 95.6113 40.0332C95.7474 40.0146 95.8618 39.9961 95.9546 39.9775L95.9639 41.9443C95.735 42.0186 95.4876 42.0773 95.2217 42.1206C94.9557 42.1639 94.6619 42.1855 94.3403 42.1855C93.7528 42.1855 93.2394 42.0897 92.8003 41.8979C92.3674 41.7 92.0334 41.3846 91.7983 40.9517C91.5633 40.5187 91.4458 39.9497 91.4458 39.2446V29.4849ZM102.282 31.9619V33.8545H96.437V31.9619H102.282ZM97.8843 29.4849H100.556V38.9756C100.556 39.2663 100.593 39.4889 100.667 39.6436C100.748 39.7982 100.865 39.9064 101.02 39.9683C101.175 40.0239 101.369 40.0518 101.604 40.0518C101.771 40.0518 101.92 40.0456 102.05 40.0332C102.186 40.0146 102.3 39.9961 102.393 39.9775L102.402 41.9443C102.174 42.0186 101.926 42.0773 101.66 42.1206C101.394 42.1639 101.1 42.1855 100.779 42.1855C100.191 42.1855 99.6779 42.0897 99.2388 41.8979C98.8058 41.7 98.4718 41.3846 98.2368 40.9517C98.0018 40.5187 97.8843 39.9497 97.8843 39.2446V29.4849ZM103.135 37.083V36.8882C103.135 36.1522 103.24 35.4749 103.451 34.8564C103.661 34.2318 103.967 33.6906 104.369 33.2329C104.771 32.7752 105.266 32.4196 105.854 32.166C106.441 31.9062 107.115 31.7764 107.876 31.7764C108.637 31.7764 109.314 31.9062 109.908 32.166C110.501 32.4196 110.999 32.7752 111.401 33.2329C111.81 33.6906 112.119 34.2318 112.329 34.8564C112.539 35.4749 112.645 36.1522 112.645 36.8882V37.083C112.645 37.8128 112.539 38.4901 112.329 39.1147C112.119 39.7332 111.81 40.2744 111.401 40.7383C110.999 41.196 110.505 41.5516 109.917 41.8052C109.329 42.0588 108.655 42.1855 107.895 42.1855C107.134 42.1855 106.457 42.0588 105.863 41.8052C105.275 41.5516 104.777 41.196 104.369 40.7383C103.967 40.2744 103.661 39.7332 103.451 39.1147C103.24 38.4901 103.135 37.8128 103.135 37.083ZM105.807 36.8882V37.083C105.807 37.5036 105.844 37.8963 105.918 38.2612C105.993 38.6261 106.11 38.9478 106.271 39.2261C106.438 39.4982 106.654 39.7116 106.92 39.8662C107.186 40.0208 107.511 40.0981 107.895 40.0981C108.266 40.0981 108.584 40.0208 108.85 39.8662C109.116 39.7116 109.329 39.4982 109.49 39.2261C109.651 38.9478 109.769 38.6261 109.843 38.2612C109.923 37.8963 109.963 37.5036 109.963 37.083V36.8882C109.963 36.48 109.923 36.0965 109.843 35.7378C109.769 35.3729 109.648 35.0513 109.481 34.7729C109.32 34.4884 109.107 34.2658 108.841 34.105C108.575 33.9442 108.253 33.8638 107.876 33.8638C107.499 33.8638 107.177 33.9442 106.911 34.105C106.651 34.2658 106.438 34.4884 106.271 34.7729C106.11 35.0513 105.993 35.3729 105.918 35.7378C105.844 36.0965 105.807 36.48 105.807 36.8882ZM116.903 34.105V42H114.231V31.9619H116.736L116.903 34.105ZM116.513 36.6284H115.79C115.79 35.8862 115.885 35.2183 116.077 34.6245C116.269 34.0246 116.538 33.5143 116.884 33.0938C117.231 32.667 117.642 32.3423 118.118 32.1196C118.601 31.8908 119.139 31.7764 119.732 31.7764C120.202 31.7764 120.632 31.8444 121.022 31.9805C121.412 32.1165 121.746 32.333 122.024 32.6299C122.308 32.9268 122.525 33.3195 122.673 33.8081C122.828 34.2967 122.905 34.8936 122.905 35.5986V42H120.215V35.5894C120.215 35.144 120.153 34.7977 120.029 34.5503C119.906 34.3029 119.723 34.1297 119.482 34.0308C119.247 33.9256 118.956 33.873 118.61 33.873C118.251 33.873 117.939 33.9442 117.673 34.0864C117.413 34.2287 117.197 34.4266 117.023 34.6802C116.856 34.9276 116.73 35.2183 116.643 35.5522C116.556 35.8862 116.513 36.245 116.513 36.6284Z" fill="#1D42A6"/>
</g>
</g>
<defs>
<filter id="filter0_d_882_9321" x="0" y="0" width="159" height="71" filterUnits="userSpaceOnUse" color-interpolation-filters="sRGB">
<feFlood flood-opacity="0" result="BackgroundImageFix"/>
<feColorMatrix in="SourceAlpha" type="matrix" values="0 0 0 0 0 0 0 0 0 0 0 0 0 0 0 0 0 0 127 0" result="hardAlpha"/>
<feOffset/>
<feGaussianBlur stdDeviation="5"/>
<feComposite in2="hardAlpha" operator="out"/>
<feColorMatrix type="matrix" values="0 0 0 0 0.129412 0 0 0 0 0.113725 0 0 0 0 0.109804 0 0 0 0.2 0"/>
<feBlend mode="normal" in2="BackgroundImageFix" result="effect1_dropShadow_882_9321"/>
<feBlend mode="normal" in="SourceGraphic" in2="effect1_dropShadow_882_9321" result="shape"/>
</filter>
</defs>
</svg>
