<svg width="640" height="110" viewBox="0 0 640 110" fill="none" xmlns="http://www.w3.org/2000/svg">
<g id="Select">
<path id="Label text" d="M9.75977 17.5435V19H3.00586V17.5435H9.75977ZM3.3584 5.49219V19H1.56787V5.49219H3.3584ZM17.4692 17.2837V12.1162C17.4692 11.7204 17.3888 11.3771 17.228 11.0864C17.0734 10.7896 16.8384 10.5607 16.5229 10.3999C16.2075 10.2391 15.8179 10.1587 15.354 10.1587C14.9211 10.1587 14.5407 10.2329 14.2129 10.3813C13.8913 10.5298 13.6377 10.7246 13.4521 10.9658C13.2728 11.207 13.1831 11.4668 13.1831 11.7451H11.4668C11.4668 11.3864 11.5596 11.0308 11.7451 10.6782C11.9307 10.3257 12.1966 10.0072 12.543 9.72266C12.8955 9.43197 13.3161 9.20312 13.8047 9.03613C14.2995 8.86296 14.8499 8.77637 15.4561 8.77637C16.1859 8.77637 16.8291 8.90007 17.3857 9.14746C17.9486 9.39486 18.3877 9.76904 18.7031 10.27C19.0247 10.7648 19.1855 11.3864 19.1855 12.1348V16.8105C19.1855 17.1445 19.2134 17.5002 19.269 17.8774C19.3309 18.2547 19.4206 18.5794 19.5381 18.8516V19H17.7476C17.661 18.8021 17.5929 18.5392 17.5435 18.2114C17.494 17.8774 17.4692 17.5682 17.4692 17.2837ZM17.7661 12.9141L17.7847 14.1201H16.0498C15.5612 14.1201 15.1252 14.1603 14.7417 14.2407C14.3582 14.3149 14.0366 14.4294 13.7769 14.584C13.5171 14.7386 13.3192 14.9334 13.1831 15.1685C13.047 15.3973 12.979 15.6663 12.979 15.9756C12.979 16.291 13.0501 16.5786 13.1924 16.8384C13.3346 17.0981 13.548 17.3053 13.8325 17.46C14.1232 17.6084 14.4788 17.6826 14.8994 17.6826C15.4251 17.6826 15.889 17.5713 16.291 17.3486C16.693 17.126 17.0116 16.8538 17.2466 16.5322C17.4878 16.2106 17.6177 15.8983 17.6362 15.5952L18.3691 16.4209C18.3258 16.6807 18.2083 16.9683 18.0166 17.2837C17.8249 17.5991 17.5682 17.9022 17.2466 18.1929C16.9312 18.4774 16.5539 18.7155 16.1147 18.9072C15.6818 19.0928 15.1932 19.1855 14.6489 19.1855C13.9686 19.1855 13.3717 19.0526 12.8584 18.7866C12.3512 18.5207 11.9554 18.165 11.6709 17.7197C11.3926 17.2682 11.2534 16.7642 11.2534 16.2075C11.2534 15.6694 11.3586 15.1963 11.5688 14.7881C11.7791 14.3737 12.0822 14.0304 12.478 13.7583C12.8739 13.48 13.3501 13.2697 13.9067 13.1274C14.4634 12.9852 15.085 12.9141 15.7715 12.9141H17.7661ZM21.876 4.75H23.6016V17.0518L23.4531 19H21.876V4.75ZM30.3833 13.8975V14.0923C30.3833 14.8221 30.2967 15.4993 30.1235 16.124C29.9504 16.7425 29.6968 17.2806 29.3628 17.7383C29.0288 18.196 28.6206 18.5516 28.1382 18.8052C27.6558 19.0588 27.1022 19.1855 26.4775 19.1855C25.8405 19.1855 25.2808 19.0773 24.7983 18.8608C24.3221 18.6382 23.9201 18.3197 23.5923 17.9053C23.2645 17.4909 23.0016 16.9899 22.8037 16.4023C22.612 15.8148 22.479 15.153 22.4048 14.417V13.5635C22.479 12.8213 22.612 12.1564 22.8037 11.5688C23.0016 10.9813 23.2645 10.4803 23.5923 10.0659C23.9201 9.64535 24.3221 9.32682 24.7983 9.11035C25.2746 8.8877 25.8281 8.77637 26.459 8.77637C27.0898 8.77637 27.6496 8.90007 28.1382 9.14746C28.6268 9.38867 29.035 9.73503 29.3628 10.1865C29.6968 10.638 29.9504 11.1792 30.1235 11.8101C30.2967 12.4347 30.3833 13.1305 30.3833 13.8975ZM28.6577 14.0923V13.8975C28.6577 13.3965 28.6113 12.9264 28.5186 12.4873C28.4258 12.042 28.2773 11.6523 28.0732 11.3184C27.8691 10.9782 27.6001 10.7122 27.2661 10.5205C26.9321 10.3226 26.5208 10.2236 26.0322 10.2236C25.5993 10.2236 25.222 10.2979 24.9004 10.4463C24.585 10.5947 24.3159 10.7957 24.0933 11.0493C23.8706 11.2967 23.6882 11.5812 23.5459 11.9028C23.4098 12.2183 23.3078 12.5461 23.2397 12.8862V15.1221C23.3387 15.555 23.4995 15.9725 23.7222 16.3745C23.951 16.7703 24.2541 17.0951 24.6313 17.3486C25.0148 17.6022 25.488 17.729 26.0508 17.729C26.5146 17.729 26.9105 17.6362 27.2383 17.4507C27.5723 17.259 27.8413 16.9961 28.0454 16.6621C28.2557 16.3281 28.4103 15.9416 28.5093 15.5024C28.6082 15.0633 28.6577 14.5933 28.6577 14.0923ZM36.7197 19.1855C36.0208 19.1855 35.3869 19.068 34.8179 18.833C34.255 18.5918 33.7695 18.2547 33.3613 17.8218C32.9593 17.3888 32.6501 16.8755 32.4336 16.2817C32.2171 15.688 32.1089 15.0386 32.1089 14.3335V13.9438C32.1089 13.1274 32.2295 12.4007 32.4707 11.7637C32.7119 11.1204 33.0397 10.5762 33.4541 10.1309C33.8685 9.68555 34.3385 9.34847 34.8643 9.11963C35.39 8.89079 35.9342 8.77637 36.4971 8.77637C37.2145 8.77637 37.833 8.90007 38.3525 9.14746C38.8783 9.39486 39.3081 9.74121 39.6421 10.1865C39.9761 10.6257 40.2235 11.1452 40.3843 11.7451C40.5451 12.3389 40.6255 12.9883 40.6255 13.6934V14.4634H33.1294V13.0625H38.9092V12.9326C38.8844 12.4873 38.7917 12.0544 38.6309 11.6338C38.4762 11.2132 38.2288 10.8669 37.8887 10.5947C37.5485 10.3226 37.0846 10.1865 36.4971 10.1865C36.1074 10.1865 35.7487 10.27 35.4209 10.437C35.0931 10.5978 34.8117 10.839 34.5767 11.1606C34.3416 11.4823 34.1592 11.875 34.0293 12.3389C33.8994 12.8027 33.8345 13.3377 33.8345 13.9438V14.3335C33.8345 14.8097 33.8994 15.2581 34.0293 15.6787C34.1654 16.0931 34.3602 16.458 34.6138 16.7734C34.8735 17.0889 35.1859 17.3363 35.5508 17.5156C35.9219 17.695 36.3424 17.7847 36.8125 17.7847C37.4186 17.7847 37.932 17.661 38.3525 17.4136C38.7731 17.1662 39.1411 16.8353 39.4565 16.4209L40.4956 17.2466C40.2791 17.5744 40.0039 17.8867 39.6699 18.1836C39.3359 18.4805 38.9246 18.7217 38.436 18.9072C37.9536 19.0928 37.3815 19.1855 36.7197 19.1855ZM44.4941 4.75V19H42.7686V4.75H44.4941ZM56.165 8.96191V10.2793H50.7378V8.96191H56.165ZM52.5747 6.52197H54.291V16.5137C54.291 16.8538 54.3436 17.1105 54.4487 17.2837C54.5539 17.4569 54.6899 17.5713 54.8569 17.627C55.0239 17.6826 55.2033 17.7104 55.395 17.7104C55.5373 17.7104 55.6857 17.6981 55.8403 17.6733C56.0011 17.6424 56.1217 17.6177 56.2021 17.5991L56.2114 19C56.0754 19.0433 55.896 19.0835 55.6733 19.1206C55.4569 19.1639 55.194 19.1855 54.8848 19.1855C54.4642 19.1855 54.0776 19.1021 53.7251 18.9351C53.3726 18.7681 53.0911 18.4897 52.8809 18.1001C52.6768 17.7043 52.5747 17.1724 52.5747 16.5044V6.52197ZM62.3438 19.1855C61.6449 19.1855 61.0109 19.068 60.4419 18.833C59.8791 18.5918 59.3936 18.2547 58.9854 17.8218C58.5833 17.3888 58.2741 16.8755 58.0576 16.2817C57.8411 15.688 57.7329 15.0386 57.7329 14.3335V13.9438C57.7329 13.1274 57.8535 12.4007 58.0947 11.7637C58.3359 11.1204 58.6637 10.5762 59.0781 10.1309C59.4925 9.68555 59.9626 9.34847 60.4883 9.11963C61.014 8.89079 61.5583 8.77637 62.1211 8.77637C62.8385 8.77637 63.457 8.90007 63.9766 9.14746C64.5023 9.39486 64.9321 9.74121 65.2661 10.1865C65.6001 10.6257 65.8475 11.1452 66.0083 11.7451C66.1691 12.3389 66.2495 12.9883 66.2495 13.6934V14.4634H58.7534V13.0625H64.5332V12.9326C64.5085 12.4873 64.4157 12.0544 64.2549 11.6338C64.1003 11.2132 63.8529 10.8669 63.5127 10.5947C63.1725 10.3226 62.7087 10.1865 62.1211 10.1865C61.7314 10.1865 61.3727 10.27 61.0449 10.437C60.7171 10.5978 60.4357 10.839 60.2007 11.1606C59.9657 11.4823 59.7832 11.875 59.6533 12.3389C59.5234 12.8027 59.4585 13.3377 59.4585 13.9438V14.3335C59.4585 14.8097 59.5234 15.2581 59.6533 15.6787C59.7894 16.0931 59.9842 16.458 60.2378 16.7734C60.4976 17.0889 60.8099 17.3363 61.1748 17.5156C61.5459 17.695 61.9665 17.7847 62.4365 17.7847C63.0426 17.7847 63.556 17.661 63.9766 17.4136C64.3971 17.1662 64.7651 16.8353 65.0806 16.4209L66.1196 17.2466C65.9032 17.5744 65.6279 17.8867 65.2939 18.1836C64.96 18.4805 64.5487 18.7217 64.0601 18.9072C63.5776 19.0928 63.0055 19.1855 62.3438 19.1855ZM69.4131 8.96191L71.6118 12.6172L73.8384 8.96191H75.8516L72.5674 13.916L75.9536 19H73.9683L71.6489 15.2334L69.3296 19H67.335L70.7119 13.916L67.437 8.96191H69.4131ZM81.8818 8.96191V10.2793H76.4546V8.96191H81.8818ZM78.2915 6.52197H80.0078V16.5137C80.0078 16.8538 80.0604 17.1105 80.1655 17.2837C80.2707 17.4569 80.4067 17.5713 80.5737 17.627C80.7407 17.6826 80.9201 17.7104 81.1118 17.7104C81.2541 17.7104 81.4025 17.6981 81.5571 17.6733C81.7179 17.6424 81.8385 17.6177 81.9189 17.5991L81.9282 19C81.7922 19.0433 81.6128 19.0835 81.3901 19.1206C81.1737 19.1639 80.9108 19.1855 80.6016 19.1855C80.181 19.1855 79.7944 19.1021 79.4419 18.9351C79.0894 18.7681 78.8079 18.4897 78.5977 18.1001C78.3936 17.7043 78.2915 17.1724 78.2915 16.5044V6.52197Z" fill="#211D1C"/>
<path id="Hint Text" d="M8.75 41.5156V42.7422H2.59375V41.5156H8.75ZM2.82812 36.625V48H1.32031V36.625H2.82812ZM10.0625 36.625V48H8.5625V36.625H10.0625ZM14.0938 39.5469V48H12.6406V39.5469H14.0938ZM12.5312 37.3047C12.5312 37.0703 12.6016 36.8724 12.7422 36.7109C12.888 36.5495 13.1016 36.4688 13.3828 36.4688C13.6589 36.4688 13.8698 36.5495 14.0156 36.7109C14.1667 36.8724 14.2422 37.0703 14.2422 37.3047C14.2422 37.5286 14.1667 37.7214 14.0156 37.8828C13.8698 38.0391 13.6589 38.1172 13.3828 38.1172C13.1016 38.1172 12.888 38.0391 12.7422 37.8828C12.6016 37.7214 12.5312 37.5286 12.5312 37.3047ZM17.8594 41.3516V48H16.4141V39.5469H17.7812L17.8594 41.3516ZM17.5156 43.4531L16.9141 43.4297C16.9193 42.8516 17.0052 42.3177 17.1719 41.8281C17.3385 41.3333 17.5729 40.9036 17.875 40.5391C18.1771 40.1745 18.5365 39.8932 18.9531 39.6953C19.375 39.4922 19.8411 39.3906 20.3516 39.3906C20.7682 39.3906 21.1432 39.4479 21.4766 39.5625C21.8099 39.6719 22.0938 39.849 22.3281 40.0938C22.5677 40.3385 22.75 40.6562 22.875 41.0469C23 41.4323 23.0625 41.9036 23.0625 42.4609V48H21.6094V42.4453C21.6094 42.0026 21.5443 41.6484 21.4141 41.3828C21.2839 41.112 21.0938 40.9167 20.8438 40.7969C20.5938 40.6719 20.2865 40.6094 19.9219 40.6094C19.5625 40.6094 19.2344 40.6849 18.9375 40.8359C18.6458 40.987 18.3932 41.1953 18.1797 41.4609C17.9714 41.7266 17.8073 42.0312 17.6875 42.375C17.5729 42.7135 17.5156 43.0729 17.5156 43.4531ZM28.7969 39.5469V40.6562H24.2266V39.5469H28.7969ZM25.7734 37.4922H27.2188V45.9062C27.2188 46.1927 27.263 46.4089 27.3516 46.5547C27.4401 46.7005 27.5547 46.7969 27.6953 46.8438C27.8359 46.8906 27.987 46.9141 28.1484 46.9141C28.2682 46.9141 28.3932 46.9036 28.5234 46.8828C28.6589 46.8568 28.7604 46.8359 28.8281 46.8203L28.8359 48C28.7214 48.0365 28.5703 48.0703 28.3828 48.1016C28.2005 48.138 27.9792 48.1562 27.7188 48.1562C27.3646 48.1562 27.0391 48.0859 26.7422 47.9453C26.4453 47.8047 26.2083 47.5703 26.0312 47.2422C25.8594 46.9089 25.7734 46.4609 25.7734 45.8984V37.4922ZM38.5703 36.625V48H37.0859V36.625H38.5703ZM42.2266 36.625V37.8594H33.4375V36.625H42.2266ZM46.4219 48.1562C45.8333 48.1562 45.2995 48.0573 44.8203 47.8594C44.3464 47.6562 43.9375 47.3724 43.5938 47.0078C43.2552 46.6432 42.9948 46.2109 42.8125 45.7109C42.6302 45.2109 42.5391 44.6641 42.5391 44.0703V43.7422C42.5391 43.0547 42.6406 42.4427 42.8438 41.9062C43.0469 41.3646 43.3229 40.9062 43.6719 40.5312C44.0208 40.1562 44.4167 39.8724 44.8594 39.6797C45.3021 39.487 45.7604 39.3906 46.2344 39.3906C46.8385 39.3906 47.3594 39.4948 47.7969 39.7031C48.2396 39.9115 48.6016 40.2031 48.8828 40.5781C49.1641 40.9479 49.3724 41.3854 49.5078 41.8906C49.6432 42.3906 49.7109 42.9375 49.7109 43.5312V44.1797H43.3984V43H48.2656V42.8906C48.2448 42.5156 48.1667 42.151 48.0312 41.7969C47.901 41.4427 47.6927 41.151 47.4062 40.9219C47.1198 40.6927 46.7292 40.5781 46.2344 40.5781C45.9062 40.5781 45.6042 40.6484 45.3281 40.7891C45.0521 40.9245 44.8151 41.1276 44.6172 41.3984C44.4193 41.6693 44.2656 42 44.1562 42.3906C44.0469 42.7812 43.9922 43.2318 43.9922 43.7422V44.0703C43.9922 44.4714 44.0469 44.849 44.1562 45.2031C44.2708 45.5521 44.4349 45.8594 44.6484 46.125C44.8672 46.3906 45.1302 46.599 45.4375 46.75C45.75 46.901 46.1042 46.9766 46.5 46.9766C47.0104 46.9766 47.4427 46.8724 47.7969 46.6641C48.151 46.4557 48.4609 46.1771 48.7266 45.8281L49.6016 46.5234C49.4193 46.7995 49.1875 47.0625 48.9062 47.3125C48.625 47.5625 48.2786 47.7656 47.8672 47.9219C47.4609 48.0781 46.9792 48.1562 46.4219 48.1562ZM52.375 39.5469L54.2266 42.625L56.1016 39.5469H57.7969L55.0312 43.7188L57.8828 48H56.2109L54.2578 44.8281L52.3047 48H50.625L53.4688 43.7188L50.7109 39.5469H52.375ZM62.875 39.5469V40.6562H58.3047V39.5469H62.875ZM59.8516 37.4922H61.2969V45.9062C61.2969 46.1927 61.3411 46.4089 61.4297 46.5547C61.5182 46.7005 61.6328 46.7969 61.7734 46.8438C61.9141 46.8906 62.0651 46.9141 62.2266 46.9141C62.3464 46.9141 62.4714 46.9036 62.6016 46.8828C62.737 46.8568 62.8385 46.8359 62.9062 46.8203L62.9141 48C62.7995 48.0365 62.6484 48.0703 62.4609 48.1016C62.2786 48.138 62.0573 48.1562 61.7969 48.1562C61.4427 48.1562 61.1172 48.0859 60.8203 47.9453C60.5234 47.8047 60.2865 47.5703 60.1094 47.2422C59.9375 46.9089 59.8516 46.4609 59.8516 45.8984V37.4922Z" fill="#61615F"/>
<g id="Select_2">
<mask id="path-3-inside-1_493_7062" fill="white">
<path d="M0 71C0 65.4772 4.47715 61 10 61H630C635.523 61 640 65.4772 640 71V100C640 105.523 635.523 110 630 110H10C4.47715 110 0 105.523 0 100V71Z"/>
</mask>
<path d="M0 71C0 65.4772 4.47715 61 10 61H630C635.523 61 640 65.4772 640 71V100C640 105.523 635.523 110 630 110H10C4.47715 110 0 105.523 0 100V71Z" fill="white"/>
<path d="M10 61V63H630V61V59H10V61ZM640 71H638V100H640H642V71H640ZM630 110V108H10V110V112H630V110ZM0 100H2V71H0H-2V100H0ZM10 110V108C5.58172 108 2 104.418 2 100H0H-2C-2 106.627 3.37258 112 10 112V110ZM640 100H638C638 104.418 634.418 108 630 108V110V112C636.627 112 642 106.627 642 100H640ZM630 61V63C634.418 63 638 66.5817 638 71H640H642C642 64.3726 636.627 59 630 59V61ZM10 61V59C3.37258 59 -2 64.3726 -2 71H0H2C2 66.5817 5.58172 63 10 63V61Z" fill="#7F7F7D" mask="url(#path-3-inside-1_493_7062)"/>
<path id="TEXT" d="M25.7227 87.7046H27.5039C27.4111 88.5581 27.1668 89.3219 26.771 89.9961C26.3752 90.6702 25.8154 91.2052 25.0918 91.6011C24.3682 91.9907 23.4652 92.1855 22.3828 92.1855C21.5911 92.1855 20.8706 92.0371 20.2212 91.7402C19.578 91.4434 19.0244 91.0228 18.5605 90.4785C18.0967 89.9281 17.738 89.2694 17.4844 88.5024C17.237 87.7293 17.1133 86.8696 17.1133 85.9233V84.5781C17.1133 83.6318 17.237 82.7752 17.4844 82.0083C17.738 81.2352 18.0998 80.5734 18.5698 80.0229C19.0461 79.4725 19.6182 79.0488 20.2861 78.752C20.9541 78.4551 21.7056 78.3066 22.5405 78.3066C23.561 78.3066 24.4238 78.4984 25.1289 78.8818C25.834 79.2653 26.3813 79.7972 26.771 80.4775C27.1668 81.1517 27.4111 81.9341 27.5039 82.8247H25.7227C25.6361 82.1938 25.4753 81.6527 25.2402 81.2012C25.0052 80.7435 24.6712 80.391 24.2383 80.1436C23.8053 79.8962 23.2394 79.7725 22.5405 79.7725C21.9406 79.7725 21.4118 79.8869 20.9541 80.1157C20.5026 80.3446 20.1222 80.6693 19.813 81.0898C19.5099 81.5104 19.2811 82.0145 19.1265 82.6021C18.9718 83.1896 18.8945 83.8421 18.8945 84.5596V85.9233C18.8945 86.5851 18.9626 87.2067 19.0986 87.7881C19.2409 88.3695 19.4543 88.8797 19.7388 89.3188C20.0233 89.758 20.3851 90.1043 20.8242 90.3579C21.2633 90.6053 21.7829 90.729 22.3828 90.729C23.1436 90.729 23.7497 90.6084 24.2012 90.3672C24.6527 90.126 24.9928 89.7796 25.2217 89.3281C25.4567 88.8766 25.6237 88.3354 25.7227 87.7046ZM31.4004 77.75V92H29.6841V77.75H31.4004ZM30.9922 86.6006L30.2778 86.5728C30.284 85.8862 30.3861 85.2523 30.584 84.6709C30.7819 84.0833 31.0602 83.5731 31.4189 83.1401C31.7777 82.7072 32.2044 82.3732 32.6992 82.1382C33.2002 81.897 33.7537 81.7764 34.3599 81.7764C34.8547 81.7764 35.3 81.8444 35.6958 81.9805C36.0916 82.1104 36.4287 82.3206 36.707 82.6113C36.9915 82.902 37.208 83.2793 37.3564 83.7432C37.5049 84.2008 37.5791 84.7606 37.5791 85.4224V92H35.8535V85.4038C35.8535 84.8781 35.7762 84.4575 35.6216 84.1421C35.467 83.8205 35.2412 83.5885 34.9443 83.4463C34.6475 83.2979 34.2826 83.2236 33.8496 83.2236C33.4229 83.2236 33.0332 83.3133 32.6807 83.4927C32.3343 83.672 32.0343 83.9194 31.7808 84.2349C31.5334 84.5503 31.3385 84.9121 31.1963 85.3203C31.0602 85.7223 30.9922 86.1491 30.9922 86.6006ZM39.6943 87.0923V86.8789C39.6943 86.1553 39.7995 85.4842 40.0098 84.8657C40.2201 84.241 40.5231 83.6999 40.9189 83.2422C41.3148 82.7783 41.7941 82.4196 42.3569 82.166C42.9198 81.9062 43.5506 81.7764 44.2495 81.7764C44.9546 81.7764 45.5885 81.9062 46.1514 82.166C46.7204 82.4196 47.2028 82.7783 47.5986 83.2422C48.0007 83.6999 48.3068 84.241 48.5171 84.8657C48.7274 85.4842 48.8325 86.1553 48.8325 86.8789V87.0923C48.8325 87.8159 48.7274 88.487 48.5171 89.1055C48.3068 89.724 48.0007 90.2651 47.5986 90.729C47.2028 91.1867 46.7235 91.5454 46.1606 91.8052C45.604 92.0588 44.9731 92.1855 44.2681 92.1855C43.563 92.1855 42.929 92.0588 42.3662 91.8052C41.8034 91.5454 41.321 91.1867 40.9189 90.729C40.5231 90.2651 40.2201 89.724 40.0098 89.1055C39.7995 88.487 39.6943 87.8159 39.6943 87.0923ZM41.4106 86.8789V87.0923C41.4106 87.5933 41.4694 88.0664 41.5869 88.5117C41.7044 88.9508 41.8807 89.3405 42.1157 89.6807C42.3569 90.0208 42.6569 90.2899 43.0156 90.4878C43.3743 90.6795 43.7918 90.7754 44.2681 90.7754C44.7381 90.7754 45.1494 90.6795 45.502 90.4878C45.8607 90.2899 46.1576 90.0208 46.3926 89.6807C46.6276 89.3405 46.8039 88.9508 46.9214 88.5117C47.0451 88.0664 47.1069 87.5933 47.1069 87.0923V86.8789C47.1069 86.3841 47.0451 85.9172 46.9214 85.478C46.8039 85.0327 46.6245 84.64 46.3833 84.2998C46.1483 83.9535 45.8514 83.6813 45.4927 83.4834C45.1401 83.2855 44.7257 83.1865 44.2495 83.1865C43.7795 83.1865 43.3651 83.2855 43.0063 83.4834C42.6538 83.6813 42.3569 83.9535 42.1157 84.2998C41.8807 84.64 41.7044 85.0327 41.5869 85.478C41.4694 85.9172 41.4106 86.3841 41.4106 86.8789ZM50.5303 87.0923V86.8789C50.5303 86.1553 50.6354 85.4842 50.8457 84.8657C51.056 84.241 51.359 83.6999 51.7549 83.2422C52.1507 82.7783 52.63 82.4196 53.1929 82.166C53.7557 81.9062 54.3866 81.7764 55.0854 81.7764C55.7905 81.7764 56.4245 81.9062 56.9873 82.166C57.5563 82.4196 58.0387 82.7783 58.4346 83.2422C58.8366 83.6999 59.1427 84.241 59.353 84.8657C59.5633 85.4842 59.6685 86.1553 59.6685 86.8789V87.0923C59.6685 87.8159 59.5633 88.487 59.353 89.1055C59.1427 89.724 58.8366 90.2651 58.4346 90.729C58.0387 91.1867 57.5594 91.5454 56.9966 91.8052C56.4399 92.0588 55.8091 92.1855 55.104 92.1855C54.3989 92.1855 53.765 92.0588 53.2021 91.8052C52.6393 91.5454 52.1569 91.1867 51.7549 90.729C51.359 90.2651 51.056 89.724 50.8457 89.1055C50.6354 88.487 50.5303 87.8159 50.5303 87.0923ZM52.2466 86.8789V87.0923C52.2466 87.5933 52.3053 88.0664 52.4229 88.5117C52.5404 88.9508 52.7166 89.3405 52.9517 89.6807C53.1929 90.0208 53.4928 90.2899 53.8516 90.4878C54.2103 90.6795 54.6278 90.7754 55.104 90.7754C55.5741 90.7754 55.9854 90.6795 56.3379 90.4878C56.6966 90.2899 56.9935 90.0208 57.2285 89.6807C57.4635 89.3405 57.6398 88.9508 57.7573 88.5117C57.881 88.0664 57.9429 87.5933 57.9429 87.0923V86.8789C57.9429 86.3841 57.881 85.9172 57.7573 85.478C57.6398 85.0327 57.4604 84.64 57.2192 84.2998C56.9842 83.9535 56.6873 83.6813 56.3286 83.4834C55.9761 83.2855 55.5617 83.1865 55.0854 83.1865C54.6154 83.1865 54.201 83.2855 53.8423 83.4834C53.4897 83.6813 53.1929 83.9535 52.9517 84.2998C52.7166 84.64 52.5404 85.0327 52.4229 85.478C52.3053 85.9172 52.2466 86.3841 52.2466 86.8789ZM67.6655 89.3374C67.6655 89.09 67.6099 88.8612 67.4985 88.6509C67.3934 88.4344 67.1738 88.2396 66.8398 88.0664C66.512 87.887 66.0173 87.7324 65.3555 87.6025C64.7988 87.485 64.2948 87.3459 63.8433 87.1851C63.3979 87.0243 63.0176 86.8294 62.7021 86.6006C62.3929 86.3717 62.1548 86.1027 61.9878 85.7935C61.8208 85.4842 61.7373 85.1224 61.7373 84.708C61.7373 84.3122 61.8239 83.938 61.9971 83.5854C62.1764 83.2329 62.4269 82.9206 62.7485 82.6484C63.0763 82.3763 63.4691 82.1629 63.9268 82.0083C64.3844 81.8537 64.8947 81.7764 65.4575 81.7764C66.2616 81.7764 66.9481 81.9186 67.5171 82.2031C68.0861 82.4876 68.5221 82.868 68.8252 83.3442C69.1283 83.8143 69.2798 84.3369 69.2798 84.9121H67.5635C67.5635 84.6338 67.48 84.3647 67.313 84.105C67.1522 83.839 66.9141 83.6195 66.5986 83.4463C66.2894 83.2731 65.909 83.1865 65.4575 83.1865C64.9813 83.1865 64.5947 83.2607 64.2979 83.4092C64.0072 83.5514 63.7938 83.7339 63.6577 83.9565C63.5278 84.1792 63.4629 84.4142 63.4629 84.6616C63.4629 84.8472 63.4938 85.0142 63.5557 85.1626C63.6237 85.3049 63.7412 85.4378 63.9082 85.5615C64.0752 85.679 64.3102 85.7904 64.6133 85.8955C64.9163 86.0007 65.3029 86.1058 65.7729 86.2109C66.5955 86.3965 67.2728 86.6191 67.8047 86.8789C68.3366 87.1387 68.7324 87.4572 68.9922 87.8345C69.252 88.2118 69.3818 88.6694 69.3818 89.2075C69.3818 89.6466 69.2891 90.0487 69.1035 90.4136C68.9242 90.7785 68.6613 91.0939 68.3149 91.3599C67.9748 91.6196 67.5666 91.8237 67.0903 91.9722C66.6203 92.1144 66.0915 92.1855 65.5039 92.1855C64.6195 92.1855 63.8711 92.0278 63.2588 91.7124C62.6465 91.397 62.1826 90.9888 61.8672 90.4878C61.5518 89.9868 61.394 89.458 61.394 88.9014H63.1196C63.1444 89.3714 63.2804 89.7456 63.5278 90.0239C63.7752 90.2961 64.0783 90.4909 64.437 90.6084C64.7957 90.7197 65.1514 90.7754 65.5039 90.7754C65.974 90.7754 66.3667 90.7135 66.6821 90.5898C67.0037 90.4661 67.248 90.2961 67.415 90.0796C67.582 89.8631 67.6655 89.6157 67.6655 89.3374ZM75.8018 92.1855C75.1029 92.1855 74.4689 92.068 73.8999 91.833C73.3371 91.5918 72.8516 91.2547 72.4434 90.8218C72.0413 90.3888 71.7321 89.8755 71.5156 89.2817C71.2992 88.688 71.1909 88.0386 71.1909 87.3335V86.9438C71.1909 86.1274 71.3115 85.4007 71.5527 84.7637C71.7939 84.1204 72.1217 83.5762 72.5361 83.1309C72.9505 82.6855 73.4206 82.3485 73.9463 82.1196C74.472 81.8908 75.0163 81.7764 75.5791 81.7764C76.2965 81.7764 76.915 81.9001 77.4346 82.1475C77.9603 82.3949 78.3901 82.7412 78.7241 83.1865C79.0581 83.6257 79.3055 84.1452 79.4663 84.7451C79.6271 85.3389 79.7075 85.9883 79.7075 86.6934V87.4634H72.2114V86.0625H77.9912V85.9326C77.9665 85.4873 77.8737 85.0544 77.7129 84.6338C77.5583 84.2132 77.3109 83.8669 76.9707 83.5947C76.6305 83.3226 76.1667 83.1865 75.5791 83.1865C75.1895 83.1865 74.8307 83.27 74.5029 83.437C74.1751 83.5978 73.8937 83.839 73.6587 84.1606C73.4237 84.4823 73.2412 84.875 73.1113 85.3389C72.9814 85.8027 72.9165 86.3377 72.9165 86.9438V87.3335C72.9165 87.8097 72.9814 88.2581 73.1113 88.6787C73.2474 89.0931 73.4422 89.458 73.6958 89.7734C73.9556 90.0889 74.2679 90.3363 74.6328 90.5156C75.0039 90.695 75.4245 90.7847 75.8945 90.7847C76.5007 90.7847 77.014 90.661 77.4346 90.4136C77.8551 90.1662 78.2231 89.8353 78.5386 89.4209L79.5776 90.2466C79.3612 90.5744 79.0859 90.8867 78.752 91.1836C78.418 91.4805 78.0067 91.7217 77.5181 91.9072C77.0356 92.0928 76.4635 92.1855 75.8018 92.1855ZM97.084 84.8193V85.6729C97.084 86.6872 96.9572 87.5964 96.7036 88.4004C96.45 89.2044 96.0851 89.8879 95.6089 90.4507C95.1326 91.0135 94.5605 91.4434 93.8926 91.7402C93.2308 92.0371 92.4886 92.1855 91.666 92.1855C90.8682 92.1855 90.1353 92.0371 89.4673 91.7402C88.8055 91.4434 88.2303 91.0135 87.7417 90.4507C87.2593 89.8879 86.8851 89.2044 86.6191 88.4004C86.3532 87.5964 86.2202 86.6872 86.2202 85.6729V84.8193C86.2202 83.805 86.3501 82.8989 86.6099 82.1011C86.8758 81.297 87.25 80.6136 87.7324 80.0508C88.2148 79.4818 88.7869 79.0488 89.4487 78.752C90.1167 78.4551 90.8496 78.3066 91.6475 78.3066C92.4701 78.3066 93.2122 78.4551 93.874 78.752C94.542 79.0488 95.1141 79.4818 95.5903 80.0508C96.0728 80.6136 96.4408 81.297 96.6943 82.1011C96.9541 82.8989 97.084 83.805 97.084 84.8193ZM95.312 85.6729V84.8008C95.312 83.9967 95.2285 83.2855 95.0615 82.667C94.9007 82.0485 94.6626 81.529 94.3472 81.1084C94.0317 80.6878 93.6452 80.3693 93.1875 80.1528C92.736 79.9364 92.2227 79.8281 91.6475 79.8281C91.0908 79.8281 90.5868 79.9364 90.1353 80.1528C89.6899 80.3693 89.3065 80.6878 88.9849 81.1084C88.6694 81.529 88.4251 82.0485 88.252 82.667C88.0788 83.2855 87.9922 83.9967 87.9922 84.8008V85.6729C87.9922 86.4831 88.0788 87.2005 88.252 87.8252C88.4251 88.4437 88.6725 88.9663 88.9941 89.3931C89.3219 89.8136 89.7085 90.1322 90.1538 90.3486C90.6053 90.5651 91.1094 90.6733 91.666 90.6733C92.2474 90.6733 92.7638 90.5651 93.2153 90.3486C93.6668 90.1322 94.0472 89.8136 94.3564 89.3931C94.6719 88.9663 94.91 88.4437 95.0708 87.8252C95.2316 87.2005 95.312 86.4831 95.312 85.6729ZM101.222 83.8916V95.8594H99.4961V81.9619H101.073L101.222 83.8916ZM107.985 86.8975V87.0923C107.985 87.8221 107.898 88.4993 107.725 89.124C107.552 89.7425 107.298 90.2806 106.964 90.7383C106.637 91.196 106.231 91.5516 105.749 91.8052C105.267 92.0588 104.713 92.1855 104.088 92.1855C103.451 92.1855 102.889 92.0804 102.4 91.8701C101.911 91.6598 101.497 91.3537 101.157 90.9517C100.817 90.5496 100.544 90.0672 100.34 89.5044C100.142 88.9416 100.006 88.3076 99.9321 87.6025V86.5635C100.006 85.8213 100.146 85.1564 100.35 84.5688C100.554 83.9813 100.823 83.4803 101.157 83.0659C101.497 82.6453 101.908 82.3268 102.391 82.1104C102.873 81.8877 103.43 81.7764 104.061 81.7764C104.691 81.7764 105.251 81.9001 105.74 82.1475C106.228 82.3887 106.64 82.735 106.974 83.1865C107.308 83.638 107.558 84.1792 107.725 84.8101C107.898 85.4347 107.985 86.1305 107.985 86.8975ZM106.259 87.0923V86.8975C106.259 86.3965 106.207 85.9264 106.102 85.4873C105.996 85.042 105.833 84.6523 105.61 84.3184C105.393 83.9782 105.115 83.7122 104.775 83.5205C104.435 83.3226 104.03 83.2236 103.56 83.2236C103.127 83.2236 102.749 83.2979 102.428 83.4463C102.112 83.5947 101.843 83.7957 101.621 84.0493C101.398 84.2967 101.215 84.5812 101.073 84.9028C100.937 85.2183 100.835 85.5461 100.767 85.8862V88.2891C100.891 88.722 101.064 89.1302 101.287 89.5137C101.509 89.891 101.806 90.1971 102.177 90.4321C102.548 90.661 103.015 90.7754 103.578 90.7754C104.042 90.7754 104.441 90.6795 104.775 90.4878C105.115 90.2899 105.393 90.0208 105.61 89.6807C105.833 89.3405 105.996 88.9508 106.102 88.5117C106.207 88.0664 106.259 87.5933 106.259 87.0923ZM114.377 81.9619V83.2793H108.95V81.9619H114.377ZM110.787 79.522H112.503V89.5137C112.503 89.8538 112.556 90.1105 112.661 90.2837C112.766 90.4569 112.902 90.5713 113.069 90.627C113.236 90.6826 113.415 90.7104 113.607 90.7104C113.749 90.7104 113.898 90.6981 114.052 90.6733C114.213 90.6424 114.334 90.6177 114.414 90.5991L114.423 92C114.287 92.0433 114.108 92.0835 113.885 92.1206C113.669 92.1639 113.406 92.1855 113.097 92.1855C112.676 92.1855 112.29 92.1021 111.937 91.9351C111.584 91.7681 111.303 91.4897 111.093 91.1001C110.889 90.7043 110.787 90.1724 110.787 89.5044V79.522ZM118.255 81.9619V92H116.529V81.9619H118.255ZM116.399 79.2993C116.399 79.021 116.483 78.786 116.65 78.5942C116.823 78.4025 117.077 78.3066 117.411 78.3066C117.738 78.3066 117.989 78.4025 118.162 78.5942C118.341 78.786 118.431 79.021 118.431 79.2993C118.431 79.5653 118.341 79.7941 118.162 79.9858C117.989 80.1714 117.738 80.2642 117.411 80.2642C117.077 80.2642 116.823 80.1714 116.65 79.9858C116.483 79.7941 116.399 79.5653 116.399 79.2993ZM120.556 87.0923V86.8789C120.556 86.1553 120.661 85.4842 120.871 84.8657C121.081 84.241 121.384 83.6999 121.78 83.2422C122.176 82.7783 122.655 82.4196 123.218 82.166C123.781 81.9062 124.412 81.7764 125.111 81.7764C125.816 81.7764 126.45 81.9062 127.013 82.166C127.582 82.4196 128.064 82.7783 128.46 83.2422C128.862 83.6999 129.168 84.241 129.378 84.8657C129.589 85.4842 129.694 86.1553 129.694 86.8789V87.0923C129.694 87.8159 129.589 88.487 129.378 89.1055C129.168 89.724 128.862 90.2651 128.46 90.729C128.064 91.1867 127.585 91.5454 127.022 91.8052C126.465 92.0588 125.834 92.1855 125.129 92.1855C124.424 92.1855 123.79 92.0588 123.228 91.8052C122.665 91.5454 122.182 91.1867 121.78 90.729C121.384 90.2651 121.081 89.724 120.871 89.1055C120.661 88.487 120.556 87.8159 120.556 87.0923ZM122.272 86.8789V87.0923C122.272 87.5933 122.331 88.0664 122.448 88.5117C122.566 88.9508 122.742 89.3405 122.977 89.6807C123.218 90.0208 123.518 90.2899 123.877 90.4878C124.236 90.6795 124.653 90.7754 125.129 90.7754C125.599 90.7754 126.011 90.6795 126.363 90.4878C126.722 90.2899 127.019 90.0208 127.254 89.6807C127.489 89.3405 127.665 88.9508 127.783 88.5117C127.906 88.0664 127.968 87.5933 127.968 87.0923V86.8789C127.968 86.3841 127.906 85.9172 127.783 85.478C127.665 85.0327 127.486 84.64 127.245 84.2998C127.01 83.9535 126.713 83.6813 126.354 83.4834C126.001 83.2855 125.587 83.1865 125.111 83.1865C124.641 83.1865 124.226 83.2855 123.868 83.4834C123.515 83.6813 123.218 83.9535 122.977 84.2998C122.742 84.64 122.566 85.0327 122.448 85.478C122.331 85.9172 122.272 86.3841 122.272 86.8789ZM133.562 84.105V92H131.846V81.9619H133.47L133.562 84.105ZM133.154 86.6006L132.44 86.5728C132.446 85.8862 132.548 85.2523 132.746 84.6709C132.944 84.0833 133.222 83.5731 133.581 83.1401C133.94 82.7072 134.367 82.3732 134.861 82.1382C135.362 81.897 135.916 81.7764 136.522 81.7764C137.017 81.7764 137.462 81.8444 137.858 81.9805C138.254 82.1104 138.591 82.3206 138.869 82.6113C139.154 82.902 139.37 83.2793 139.519 83.7432C139.667 84.2008 139.741 84.7606 139.741 85.4224V92H138.016V85.4038C138.016 84.8781 137.938 84.4575 137.784 84.1421C137.629 83.8205 137.403 83.5885 137.106 83.4463C136.81 83.2979 136.445 83.2236 136.012 83.2236C135.585 83.2236 135.195 83.3133 134.843 83.4927C134.496 83.672 134.196 83.9194 133.943 84.2349C133.695 84.5503 133.501 84.9121 133.358 85.3203C133.222 85.7223 133.154 86.1491 133.154 86.6006Z" fill="#211D1C"/>
<g id="icon">
<g id="Union 1" clip-path="url(#clip0_493_7062)">
<path id="Vector" fill-rule="evenodd" clip-rule="evenodd" d="M603.414 80.9043L602 82.0828L610.485 89.1539L611.899 90.3325L621.799 82.0829L620.385 80.9044L611.9 87.9754L603.414 80.9043Z" fill="#7F7F7D"/>
</g>
</g>
</g>
</g>
<defs>
<clipPath id="clip0_493_7062">
<rect width="20" height="10" fill="white" transform="translate(602 80.5)"/>
</clipPath>
</defs>
</svg>
