<svg width="89" height="28" viewBox="0 0 89 28" fill="none" xmlns="http://www.w3.org/2000/svg">
<g id="Tag">
<path d="M0 4C0 1.79086 1.79086 0 4 0H85C87.2091 0 89 1.79086 89 4V24C89 26.2091 87.2091 28 85 28H4C1.79086 28 0 26.2091 0 24V4Z" fill="#E5EED5"/>
<path id="Tag Name" d="M13.5234 7.625V19H12.0391V7.625H13.5234ZM17.1797 7.625V8.85938H8.39062V7.625H17.1797ZM22.7422 17.5547V13.2031C22.7422 12.8698 22.6745 12.5807 22.5391 12.3359C22.4089 12.0859 22.2109 11.8932 21.9453 11.7578C21.6797 11.6224 21.3516 11.5547 20.9609 11.5547C20.5964 11.5547 20.276 11.6172 20 11.7422C19.7292 11.8672 19.5156 12.0312 19.3594 12.2344C19.2083 12.4375 19.1328 12.6562 19.1328 12.8906H17.6875C17.6875 12.5885 17.7656 12.2891 17.9219 11.9922C18.0781 11.6953 18.3021 11.4271 18.5938 11.1875C18.8906 10.9427 19.2448 10.75 19.6562 10.6094C20.0729 10.4635 20.5365 10.3906 21.0469 10.3906C21.6615 10.3906 22.2031 10.4948 22.6719 10.7031C23.1458 10.9115 23.5156 11.2266 23.7812 11.6484C24.0521 12.0651 24.1875 12.5885 24.1875 13.2188V17.1562C24.1875 17.4375 24.2109 17.737 24.2578 18.0547C24.3099 18.3724 24.3854 18.6458 24.4844 18.875V19H22.9766C22.9036 18.8333 22.8464 18.612 22.8047 18.3359C22.763 18.0547 22.7422 17.7943 22.7422 17.5547ZM22.9922 13.875L23.0078 14.8906H21.5469C21.1354 14.8906 20.7682 14.9245 20.4453 14.9922C20.1224 15.0547 19.8516 15.151 19.6328 15.2812C19.4141 15.4115 19.2474 15.5755 19.1328 15.7734C19.0182 15.9661 18.9609 16.1927 18.9609 16.4531C18.9609 16.7188 19.0208 16.9609 19.1406 17.1797C19.2604 17.3984 19.4401 17.5729 19.6797 17.7031C19.9245 17.8281 20.224 17.8906 20.5781 17.8906C21.0208 17.8906 21.4115 17.7969 21.75 17.6094C22.0885 17.4219 22.3568 17.1927 22.5547 16.9219C22.7578 16.651 22.8672 16.388 22.8828 16.1328L23.5 16.8281C23.4635 17.0469 23.3646 17.2891 23.2031 17.5547C23.0417 17.8203 22.8255 18.0755 22.5547 18.3203C22.2891 18.5599 21.9714 18.7604 21.6016 18.9219C21.237 19.0781 20.8255 19.1562 20.3672 19.1562C19.7943 19.1562 19.2917 19.0443 18.8594 18.8203C18.4323 18.5964 18.099 18.2969 17.8594 17.9219C17.625 17.5417 17.5078 17.1172 17.5078 16.6484C17.5078 16.1953 17.5964 15.7969 17.7734 15.4531C17.9505 15.1042 18.2057 14.8151 18.5391 14.5859C18.8724 14.3516 19.2734 14.1745 19.7422 14.0547C20.2109 13.9349 20.7344 13.875 21.3125 13.875H22.9922ZM31.9375 10.5469H33.25V18.8203C33.25 19.5651 33.099 20.2005 32.7969 20.7266C32.4948 21.2526 32.0729 21.651 31.5312 21.9219C30.9948 22.1979 30.375 22.3359 29.6719 22.3359C29.3802 22.3359 29.0365 22.2891 28.6406 22.1953C28.25 22.1068 27.8646 21.9531 27.4844 21.7344C27.1094 21.5208 26.7943 21.2318 26.5391 20.8672L27.2969 20.0078C27.651 20.4349 28.0208 20.7318 28.4062 20.8984C28.7969 21.0651 29.1823 21.1484 29.5625 21.1484C30.0208 21.1484 30.4167 21.0625 30.75 20.8906C31.0833 20.7188 31.3411 20.4635 31.5234 20.125C31.7109 19.7917 31.8047 19.3802 31.8047 18.8906V12.4062L31.9375 10.5469ZM26.1172 14.8672V14.7031C26.1172 14.0573 26.1927 13.4714 26.3438 12.9453C26.5 12.4141 26.7214 11.9583 27.0078 11.5781C27.2995 11.1979 27.651 10.9062 28.0625 10.7031C28.474 10.4948 28.9375 10.3906 29.4531 10.3906C29.9844 10.3906 30.4479 10.4844 30.8438 10.6719C31.2448 10.8542 31.5833 11.1224 31.8594 11.4766C32.1406 11.8255 32.362 12.2474 32.5234 12.7422C32.6849 13.237 32.7969 13.7969 32.8594 14.4219V15.1406C32.8021 15.7604 32.6901 16.3177 32.5234 16.8125C32.362 17.3073 32.1406 17.7292 31.8594 18.0781C31.5833 18.4271 31.2448 18.6953 30.8438 18.8828C30.4427 19.0651 29.974 19.1562 29.4375 19.1562C28.9323 19.1562 28.474 19.0495 28.0625 18.8359C27.6562 18.6224 27.3073 18.3229 27.0156 17.9375C26.724 17.5521 26.5 17.099 26.3438 16.5781C26.1927 16.0521 26.1172 15.4818 26.1172 14.8672ZM27.5625 14.7031V14.8672C27.5625 15.2891 27.6042 15.6849 27.6875 16.0547C27.776 16.4245 27.9089 16.75 28.0859 17.0312C28.2682 17.3125 28.5 17.5339 28.7812 17.6953C29.0625 17.8516 29.3984 17.9297 29.7891 17.9297C30.2682 17.9297 30.6641 17.8281 30.9766 17.625C31.2891 17.4219 31.5365 17.1536 31.7188 16.8203C31.9062 16.487 32.0521 16.125 32.1562 15.7344V13.8516C32.099 13.5651 32.0104 13.2891 31.8906 13.0234C31.776 12.7526 31.625 12.513 31.4375 12.3047C31.2552 12.0911 31.0286 11.9219 30.7578 11.7969C30.487 11.6719 30.1693 11.6094 29.8047 11.6094C29.4089 11.6094 29.0677 11.6927 28.7812 11.8594C28.5 12.0208 28.2682 12.2448 28.0859 12.5312C27.9089 12.8125 27.776 13.1406 27.6875 13.5156C27.6042 13.8854 27.5625 14.2812 27.5625 14.7031ZM48.3828 7.625V19H46.8672L41.1406 10.2266V19H39.6328V7.625H41.1406L46.8906 16.4219V7.625H48.3828ZM55.8203 17.5547V13.2031C55.8203 12.8698 55.7526 12.5807 55.6172 12.3359C55.487 12.0859 55.2891 11.8932 55.0234 11.7578C54.7578 11.6224 54.4297 11.5547 54.0391 11.5547C53.6745 11.5547 53.3542 11.6172 53.0781 11.7422C52.8073 11.8672 52.5938 12.0312 52.4375 12.2344C52.2865 12.4375 52.2109 12.6562 52.2109 12.8906H50.7656C50.7656 12.5885 50.8438 12.2891 51 11.9922C51.1562 11.6953 51.3802 11.4271 51.6719 11.1875C51.9688 10.9427 52.3229 10.75 52.7344 10.6094C53.151 10.4635 53.6146 10.3906 54.125 10.3906C54.7396 10.3906 55.2812 10.4948 55.75 10.7031C56.224 10.9115 56.5938 11.2266 56.8594 11.6484C57.1302 12.0651 57.2656 12.5885 57.2656 13.2188V17.1562C57.2656 17.4375 57.2891 17.737 57.3359 18.0547C57.388 18.3724 57.4635 18.6458 57.5625 18.875V19H56.0547C55.9818 18.8333 55.9245 18.612 55.8828 18.3359C55.8411 18.0547 55.8203 17.7943 55.8203 17.5547ZM56.0703 13.875L56.0859 14.8906H54.625C54.2135 14.8906 53.8464 14.9245 53.5234 14.9922C53.2005 15.0547 52.9297 15.151 52.7109 15.2812C52.4922 15.4115 52.3255 15.5755 52.2109 15.7734C52.0964 15.9661 52.0391 16.1927 52.0391 16.4531C52.0391 16.7188 52.099 16.9609 52.2188 17.1797C52.3385 17.3984 52.5182 17.5729 52.7578 17.7031C53.0026 17.8281 53.3021 17.8906 53.6562 17.8906C54.099 17.8906 54.4896 17.7969 54.8281 17.6094C55.1667 17.4219 55.4349 17.1927 55.6328 16.9219C55.8359 16.651 55.9453 16.388 55.9609 16.1328L56.5781 16.8281C56.5417 17.0469 56.4427 17.2891 56.2812 17.5547C56.1198 17.8203 55.9036 18.0755 55.6328 18.3203C55.3672 18.5599 55.0495 18.7604 54.6797 18.9219C54.3151 19.0781 53.9036 19.1562 53.4453 19.1562C52.8724 19.1562 52.3698 19.0443 51.9375 18.8203C51.5104 18.5964 51.1771 18.2969 50.9375 17.9219C50.7031 17.5417 50.5859 17.1172 50.5859 16.6484C50.5859 16.1953 50.6745 15.7969 50.8516 15.4531C51.0286 15.1042 51.2839 14.8151 51.6172 14.5859C51.9505 14.3516 52.3516 14.1745 52.8203 14.0547C53.2891 13.9349 53.8125 13.875 54.3906 13.875H56.0703ZM60.9766 12.2266V19H59.5234V10.5469H60.8984L60.9766 12.2266ZM60.6797 14.4531L60.0078 14.4297C60.013 13.8516 60.0885 13.3177 60.2344 12.8281C60.3802 12.3333 60.5964 11.9036 60.8828 11.5391C61.1693 11.1745 61.526 10.8932 61.9531 10.6953C62.3802 10.4922 62.875 10.3906 63.4375 10.3906C63.8333 10.3906 64.1979 10.4479 64.5312 10.5625C64.8646 10.6719 65.1536 10.8464 65.3984 11.0859C65.6432 11.3255 65.8333 11.6328 65.9688 12.0078C66.1042 12.3828 66.1719 12.8359 66.1719 13.3672V19H64.7266V13.4375C64.7266 12.9948 64.651 12.6406 64.5 12.375C64.3542 12.1094 64.1458 11.9167 63.875 11.7969C63.6042 11.6719 63.2865 11.6094 62.9219 11.6094C62.4948 11.6094 62.138 11.6849 61.8516 11.8359C61.5651 11.987 61.3359 12.1953 61.1641 12.4609C60.9922 12.7266 60.8672 13.0312 60.7891 13.375C60.7161 13.7135 60.6797 14.0729 60.6797 14.4531ZM66.1562 13.6562L65.1875 13.9531C65.1927 13.4896 65.2682 13.0443 65.4141 12.6172C65.5651 12.1901 65.7812 11.8099 66.0625 11.4766C66.349 11.1432 66.7005 10.8802 67.1172 10.6875C67.5339 10.4896 68.0104 10.3906 68.5469 10.3906C69 10.3906 69.401 10.4505 69.75 10.5703C70.1042 10.6901 70.401 10.875 70.6406 11.125C70.8854 11.3698 71.0703 11.6849 71.1953 12.0703C71.3203 12.4557 71.3828 12.9141 71.3828 13.4453V19H69.9297V13.4297C69.9297 12.9557 69.8542 12.5885 69.7031 12.3281C69.5573 12.0625 69.349 11.8776 69.0781 11.7734C68.8125 11.6641 68.4948 11.6094 68.125 11.6094C67.8073 11.6094 67.526 11.6641 67.2812 11.7734C67.0365 11.8828 66.8307 12.0339 66.6641 12.2266C66.4974 12.4141 66.3698 12.6302 66.2812 12.875C66.1979 13.1198 66.1562 13.3802 66.1562 13.6562ZM77.0781 19.1562C76.4896 19.1562 75.9557 19.0573 75.4766 18.8594C75.0026 18.6562 74.5938 18.3724 74.25 18.0078C73.9115 17.6432 73.651 17.2109 73.4688 16.7109C73.2865 16.2109 73.1953 15.6641 73.1953 15.0703V14.7422C73.1953 14.0547 73.2969 13.4427 73.5 12.9062C73.7031 12.3646 73.9792 11.9062 74.3281 11.5312C74.6771 11.1562 75.0729 10.8724 75.5156 10.6797C75.9583 10.487 76.4167 10.3906 76.8906 10.3906C77.4948 10.3906 78.0156 10.4948 78.4531 10.7031C78.8958 10.9115 79.2578 11.2031 79.5391 11.5781C79.8203 11.9479 80.0286 12.3854 80.1641 12.8906C80.2995 13.3906 80.3672 13.9375 80.3672 14.5312V15.1797H74.0547V14H78.9219V13.8906C78.901 13.5156 78.8229 13.151 78.6875 12.7969C78.5573 12.4427 78.349 12.151 78.0625 11.9219C77.776 11.6927 77.3854 11.5781 76.8906 11.5781C76.5625 11.5781 76.2604 11.6484 75.9844 11.7891C75.7083 11.9245 75.4714 12.1276 75.2734 12.3984C75.0755 12.6693 74.9219 13 74.8125 13.3906C74.7031 13.7812 74.6484 14.2318 74.6484 14.7422V15.0703C74.6484 15.4714 74.7031 15.849 74.8125 16.2031C74.9271 16.5521 75.0911 16.8594 75.3047 17.125C75.5234 17.3906 75.7865 17.599 76.0938 17.75C76.4062 17.901 76.7604 17.9766 77.1562 17.9766C77.6667 17.9766 78.099 17.8724 78.4531 17.6641C78.8073 17.4557 79.1172 17.1771 79.3828 16.8281L80.2578 17.5234C80.0755 17.7995 79.8438 18.0625 79.5625 18.3125C79.2812 18.5625 78.9349 18.7656 78.5234 18.9219C78.1172 19.0781 77.6354 19.1562 77.0781 19.1562Z" fill="#196043"/>
</g>
</svg>
