<svg width="93" height="29" viewBox="0 0 93 29" fill="none" xmlns="http://www.w3.org/2000/svg">
<g id="Text Button">
<g id="icon">
<path id="Vector" d="M21.6 23.5L15.3 17.2C14.8 17.6 14.225 17.9167 13.575 18.15C12.925 18.3833 12.2333 18.5 11.5 18.5C9.68333 18.5 8.14583 17.8708 6.8875 16.6125C5.62917 15.3542 5 13.8167 5 12C5 10.1833 5.62917 8.64583 6.8875 7.3875C8.14583 6.12917 9.68333 5.5 11.5 5.5C13.3167 5.5 14.8542 6.12917 16.1125 7.3875C17.3708 8.64583 18 10.1833 18 12C18 12.7333 17.8833 13.425 17.65 14.075C17.4167 14.725 17.1 15.3 16.7 15.8L23 22.1L21.6 23.5ZM11.5 16.5C12.75 16.5 13.8125 16.0625 14.6875 15.1875C15.5625 14.3125 16 13.25 16 12C16 10.75 15.5625 9.6875 14.6875 8.8125C13.8125 7.9375 12.75 7.5 11.5 7.5C10.25 7.5 9.1875 7.9375 8.3125 8.8125C7.4375 9.6875 7 10.75 7 12C7 13.25 7.4375 14.3125 8.3125 15.1875C9.1875 16.0625 10.25 16.5 11.5 16.5Z" fill="#1D42A6"/>
</g>
<path id="Link / Large Screen / Body Regular / Disabled" d="M40.4941 15.0718H37.0244L37.0059 13.1606H39.9189C40.4323 13.1606 40.8529 13.0957 41.1807 12.9658C41.5085 12.8298 41.7528 12.6349 41.9136 12.3813C42.0806 12.1216 42.1641 11.8062 42.1641 11.4351C42.1641 11.0145 42.0837 10.6743 41.9229 10.4146C41.7682 10.1548 41.5239 9.96615 41.1899 9.84863C40.8621 9.73112 40.4385 9.67236 39.9189 9.67236H37.9893V21H35.2061V7.49219H39.9189C40.7044 7.49219 41.4064 7.56641 42.0249 7.71484C42.6496 7.86328 43.1784 8.08903 43.6113 8.39209C44.0443 8.69515 44.3752 9.07861 44.604 9.54248C44.8328 10.0002 44.9473 10.5444 44.9473 11.1753C44.9473 11.7319 44.8205 12.2453 44.5669 12.7153C44.3195 13.1854 43.9268 13.5688 43.3887 13.8657C42.8568 14.1626 42.161 14.3265 41.3013 14.3574L40.4941 15.0718ZM40.3735 21H36.2637L37.3491 18.8291H40.3735C40.8621 18.8291 41.2611 18.7518 41.5703 18.5972C41.8796 18.4364 42.1084 18.2199 42.2568 17.9478C42.4053 17.6756 42.4795 17.3633 42.4795 17.0107C42.4795 16.6149 42.4115 16.2716 42.2754 15.981C42.1455 15.6903 41.9352 15.4676 41.6445 15.313C41.3538 15.1522 40.9704 15.0718 40.4941 15.0718H37.813L37.8315 13.1606H41.1714L41.8115 13.9121C42.6341 13.8997 43.2959 14.0451 43.7969 14.3481C44.304 14.645 44.672 15.0316 44.9009 15.5078C45.1359 15.984 45.2534 16.4943 45.2534 17.0386C45.2534 17.9045 45.0648 18.6343 44.6875 19.228C44.3102 19.8156 43.7567 20.2578 43.0269 20.5547C42.3032 20.8516 41.4188 21 40.3735 21ZM53.1113 18.5972V10.9619H55.7832V21H53.269L53.1113 18.5972ZM53.4082 16.5376L54.1968 16.519C54.1968 17.187 54.1195 17.8086 53.9648 18.3838C53.8102 18.9528 53.5783 19.4476 53.269 19.8682C52.9598 20.2826 52.5701 20.6073 52.1001 20.8423C51.63 21.0711 51.0765 21.1855 50.4395 21.1855C49.9508 21.1855 49.4993 21.1175 49.085 20.9814C48.6768 20.8392 48.3242 20.6196 48.0273 20.3228C47.7367 20.0197 47.5078 19.6331 47.3408 19.1631C47.18 18.6868 47.0996 18.1147 47.0996 17.4468V10.9619H49.7715V17.4653C49.7715 17.7622 49.8055 18.0127 49.8735 18.2168C49.9478 18.4209 50.0498 18.5879 50.1797 18.7178C50.3096 18.8477 50.4611 18.9404 50.6343 18.9961C50.8136 19.0518 51.0116 19.0796 51.228 19.0796C51.7785 19.0796 52.2114 18.9683 52.5269 18.7456C52.8485 18.5229 53.0742 18.2199 53.2041 17.8364C53.3402 17.4468 53.4082 17.0138 53.4082 16.5376ZM62.7412 10.9619V12.8545H56.8965V10.9619H62.7412ZM58.3438 8.48486H61.0156V17.9756C61.0156 18.2663 61.0527 18.4889 61.127 18.6436C61.2074 18.7982 61.3249 18.9064 61.4795 18.9683C61.6341 19.0239 61.8289 19.0518 62.064 19.0518C62.231 19.0518 62.3794 19.0456 62.5093 19.0332C62.6453 19.0146 62.7598 18.9961 62.8525 18.9775L62.8618 20.9443C62.633 21.0186 62.3856 21.0773 62.1196 21.1206C61.8537 21.1639 61.5599 21.1855 61.2383 21.1855C60.6507 21.1855 60.1374 21.0897 59.6982 20.8979C59.2653 20.7 58.9313 20.3846 58.6963 19.9517C58.4613 19.5187 58.3438 18.9497 58.3438 18.2446V8.48486ZM69.1797 10.9619V12.8545H63.335V10.9619H69.1797ZM64.7822 8.48486H67.4541V17.9756C67.4541 18.2663 67.4912 18.4889 67.5654 18.6436C67.6458 18.7982 67.7633 18.9064 67.918 18.9683C68.0726 19.0239 68.2674 19.0518 68.5024 19.0518C68.6694 19.0518 68.8179 19.0456 68.9478 19.0332C69.0838 19.0146 69.1982 18.9961 69.291 18.9775L69.3003 20.9443C69.0715 21.0186 68.8241 21.0773 68.5581 21.1206C68.2922 21.1639 67.9984 21.1855 67.6768 21.1855C67.0892 21.1855 66.5758 21.0897 66.1367 20.8979C65.7038 20.7 65.3698 20.3846 65.1348 19.9517C64.8997 19.5187 64.7822 18.9497 64.7822 18.2446V8.48486ZM70.0332 16.083V15.8882C70.0332 15.1522 70.1383 14.4749 70.3486 13.8564C70.5589 13.2318 70.8651 12.6906 71.2671 12.2329C71.6691 11.7752 72.1639 11.4196 72.7515 11.166C73.339 10.9062 74.0132 10.7764 74.7739 10.7764C75.5347 10.7764 76.2119 10.9062 76.8057 11.166C77.3994 11.4196 77.8973 11.7752 78.2993 12.2329C78.7075 12.6906 79.0168 13.2318 79.2271 13.8564C79.4373 14.4749 79.5425 15.1522 79.5425 15.8882V16.083C79.5425 16.8128 79.4373 17.4901 79.2271 18.1147C79.0168 18.7332 78.7075 19.2744 78.2993 19.7383C77.8973 20.196 77.4025 20.5516 76.8149 20.8052C76.2274 21.0588 75.5532 21.1855 74.7925 21.1855C74.0317 21.1855 73.3545 21.0588 72.7607 20.8052C72.1732 20.5516 71.6753 20.196 71.2671 19.7383C70.8651 19.2744 70.5589 18.7332 70.3486 18.1147C70.1383 17.4901 70.0332 16.8128 70.0332 16.083ZM72.7051 15.8882V16.083C72.7051 16.5036 72.7422 16.8963 72.8164 17.2612C72.8906 17.6261 73.0081 17.9478 73.1689 18.2261C73.3359 18.4982 73.5524 18.7116 73.8184 18.8662C74.0843 19.0208 74.409 19.0981 74.7925 19.0981C75.1636 19.0981 75.4821 19.0208 75.748 18.8662C76.014 18.7116 76.2274 18.4982 76.3882 18.2261C76.549 17.9478 76.6665 17.6261 76.7407 17.2612C76.8211 16.8963 76.8613 16.5036 76.8613 16.083V15.8882C76.8613 15.48 76.8211 15.0965 76.7407 14.7378C76.6665 14.3729 76.5459 14.0513 76.3789 13.7729C76.2181 13.4884 76.0047 13.2658 75.7388 13.105C75.4728 12.9442 75.1512 12.8638 74.7739 12.8638C74.3966 12.8638 74.075 12.9442 73.8091 13.105C73.5493 13.2658 73.3359 13.4884 73.1689 13.7729C73.0081 14.0513 72.8906 14.3729 72.8164 14.7378C72.7422 15.0965 72.7051 15.48 72.7051 15.8882ZM83.8008 13.105V21H81.1289V10.9619H83.6338L83.8008 13.105ZM83.4111 15.6284H82.6875C82.6875 14.8862 82.7834 14.2183 82.9751 13.6245C83.1668 13.0246 83.4359 12.5143 83.7822 12.0938C84.1286 11.667 84.5399 11.3423 85.0161 11.1196C85.4985 10.8908 86.0366 10.7764 86.6304 10.7764C87.1004 10.7764 87.5303 10.8444 87.9199 10.9805C88.3096 11.1165 88.6436 11.333 88.9219 11.6299C89.2064 11.9268 89.4229 12.3195 89.5713 12.8081C89.7259 13.2967 89.8032 13.8936 89.8032 14.5986V21H87.1128V14.5894C87.1128 14.144 87.0509 13.7977 86.9272 13.5503C86.8035 13.3029 86.6211 13.1297 86.3799 13.0308C86.1449 12.9256 85.8542 12.873 85.5078 12.873C85.1491 12.873 84.8368 12.9442 84.5708 13.0864C84.311 13.2287 84.0946 13.4266 83.9214 13.6802C83.7544 13.9276 83.6276 14.2183 83.541 14.5522C83.4544 14.8862 83.4111 15.245 83.4111 15.6284Z" fill="#1D42A6"/>
</g>
</svg>
