<svg width="640" height="160" viewBox="0 0 640 160" fill="none" xmlns="http://www.w3.org/2000/svg">
<g id="Textarea">
<path id="Label text" d="M9.75977 17.5435V19H3.00586V17.5435H9.75977ZM3.3584 5.49219V19H1.56787V5.49219H3.3584ZM17.4692 17.2837V12.1162C17.4692 11.7204 17.3888 11.3771 17.228 11.0864C17.0734 10.7896 16.8384 10.5607 16.5229 10.3999C16.2075 10.2391 15.8179 10.1587 15.354 10.1587C14.9211 10.1587 14.5407 10.2329 14.2129 10.3813C13.8913 10.5298 13.6377 10.7246 13.4521 10.9658C13.2728 11.207 13.1831 11.4668 13.1831 11.7451H11.4668C11.4668 11.3864 11.5596 11.0308 11.7451 10.6782C11.9307 10.3257 12.1966 10.0072 12.543 9.72266C12.8955 9.43197 13.3161 9.20312 13.8047 9.03613C14.2995 8.86296 14.8499 8.77637 15.4561 8.77637C16.1859 8.77637 16.8291 8.90007 17.3857 9.14746C17.9486 9.39486 18.3877 9.76904 18.7031 10.27C19.0247 10.7648 19.1855 11.3864 19.1855 12.1348V16.8105C19.1855 17.1445 19.2134 17.5002 19.269 17.8774C19.3309 18.2547 19.4206 18.5794 19.5381 18.8516V19H17.7476C17.661 18.8021 17.5929 18.5392 17.5435 18.2114C17.494 17.8774 17.4692 17.5682 17.4692 17.2837ZM17.7661 12.9141L17.7847 14.1201H16.0498C15.5612 14.1201 15.1252 14.1603 14.7417 14.2407C14.3582 14.3149 14.0366 14.4294 13.7769 14.584C13.5171 14.7386 13.3192 14.9334 13.1831 15.1685C13.047 15.3973 12.979 15.6663 12.979 15.9756C12.979 16.291 13.0501 16.5786 13.1924 16.8384C13.3346 17.0981 13.548 17.3053 13.8325 17.46C14.1232 17.6084 14.4788 17.6826 14.8994 17.6826C15.4251 17.6826 15.889 17.5713 16.291 17.3486C16.693 17.126 17.0116 16.8538 17.2466 16.5322C17.4878 16.2106 17.6177 15.8983 17.6362 15.5952L18.3691 16.4209C18.3258 16.6807 18.2083 16.9683 18.0166 17.2837C17.8249 17.5991 17.5682 17.9022 17.2466 18.1929C16.9312 18.4774 16.5539 18.7155 16.1147 18.9072C15.6818 19.0928 15.1932 19.1855 14.6489 19.1855C13.9686 19.1855 13.3717 19.0526 12.8584 18.7866C12.3512 18.5207 11.9554 18.165 11.6709 17.7197C11.3926 17.2682 11.2534 16.7642 11.2534 16.2075C11.2534 15.6694 11.3586 15.1963 11.5688 14.7881C11.7791 14.3737 12.0822 14.0304 12.478 13.7583C12.8739 13.48 13.3501 13.2697 13.9067 13.1274C14.4634 12.9852 15.085 12.9141 15.7715 12.9141H17.7661ZM21.876 4.75H23.6016V17.0518L23.4531 19H21.876V4.75ZM30.3833 13.8975V14.0923C30.3833 14.8221 30.2967 15.4993 30.1235 16.124C29.9504 16.7425 29.6968 17.2806 29.3628 17.7383C29.0288 18.196 28.6206 18.5516 28.1382 18.8052C27.6558 19.0588 27.1022 19.1855 26.4775 19.1855C25.8405 19.1855 25.2808 19.0773 24.7983 18.8608C24.3221 18.6382 23.9201 18.3197 23.5923 17.9053C23.2645 17.4909 23.0016 16.9899 22.8037 16.4023C22.612 15.8148 22.479 15.153 22.4048 14.417V13.5635C22.479 12.8213 22.612 12.1564 22.8037 11.5688C23.0016 10.9813 23.2645 10.4803 23.5923 10.0659C23.9201 9.64535 24.3221 9.32682 24.7983 9.11035C25.2746 8.8877 25.8281 8.77637 26.459 8.77637C27.0898 8.77637 27.6496 8.90007 28.1382 9.14746C28.6268 9.38867 29.035 9.73503 29.3628 10.1865C29.6968 10.638 29.9504 11.1792 30.1235 11.8101C30.2967 12.4347 30.3833 13.1305 30.3833 13.8975ZM28.6577 14.0923V13.8975C28.6577 13.3965 28.6113 12.9264 28.5186 12.4873C28.4258 12.042 28.2773 11.6523 28.0732 11.3184C27.8691 10.9782 27.6001 10.7122 27.2661 10.5205C26.9321 10.3226 26.5208 10.2236 26.0322 10.2236C25.5993 10.2236 25.222 10.2979 24.9004 10.4463C24.585 10.5947 24.3159 10.7957 24.0933 11.0493C23.8706 11.2967 23.6882 11.5812 23.5459 11.9028C23.4098 12.2183 23.3078 12.5461 23.2397 12.8862V15.1221C23.3387 15.555 23.4995 15.9725 23.7222 16.3745C23.951 16.7703 24.2541 17.0951 24.6313 17.3486C25.0148 17.6022 25.488 17.729 26.0508 17.729C26.5146 17.729 26.9105 17.6362 27.2383 17.4507C27.5723 17.259 27.8413 16.9961 28.0454 16.6621C28.2557 16.3281 28.4103 15.9416 28.5093 15.5024C28.6082 15.0633 28.6577 14.5933 28.6577 14.0923ZM36.7197 19.1855C36.0208 19.1855 35.3869 19.068 34.8179 18.833C34.255 18.5918 33.7695 18.2547 33.3613 17.8218C32.9593 17.3888 32.6501 16.8755 32.4336 16.2817C32.2171 15.688 32.1089 15.0386 32.1089 14.3335V13.9438C32.1089 13.1274 32.2295 12.4007 32.4707 11.7637C32.7119 11.1204 33.0397 10.5762 33.4541 10.1309C33.8685 9.68555 34.3385 9.34847 34.8643 9.11963C35.39 8.89079 35.9342 8.77637 36.4971 8.77637C37.2145 8.77637 37.833 8.90007 38.3525 9.14746C38.8783 9.39486 39.3081 9.74121 39.6421 10.1865C39.9761 10.6257 40.2235 11.1452 40.3843 11.7451C40.5451 12.3389 40.6255 12.9883 40.6255 13.6934V14.4634H33.1294V13.0625H38.9092V12.9326C38.8844 12.4873 38.7917 12.0544 38.6309 11.6338C38.4762 11.2132 38.2288 10.8669 37.8887 10.5947C37.5485 10.3226 37.0846 10.1865 36.4971 10.1865C36.1074 10.1865 35.7487 10.27 35.4209 10.437C35.0931 10.5978 34.8117 10.839 34.5767 11.1606C34.3416 11.4823 34.1592 11.875 34.0293 12.3389C33.8994 12.8027 33.8345 13.3377 33.8345 13.9438V14.3335C33.8345 14.8097 33.8994 15.2581 34.0293 15.6787C34.1654 16.0931 34.3602 16.458 34.6138 16.7734C34.8735 17.0889 35.1859 17.3363 35.5508 17.5156C35.9219 17.695 36.3424 17.7847 36.8125 17.7847C37.4186 17.7847 37.932 17.661 38.3525 17.4136C38.7731 17.1662 39.1411 16.8353 39.4565 16.4209L40.4956 17.2466C40.2791 17.5744 40.0039 17.8867 39.6699 18.1836C39.3359 18.4805 38.9246 18.7217 38.436 18.9072C37.9536 19.0928 37.3815 19.1855 36.7197 19.1855ZM44.4941 4.75V19H42.7686V4.75H44.4941ZM56.165 8.96191V10.2793H50.7378V8.96191H56.165ZM52.5747 6.52197H54.291V16.5137C54.291 16.8538 54.3436 17.1105 54.4487 17.2837C54.5539 17.4569 54.6899 17.5713 54.8569 17.627C55.0239 17.6826 55.2033 17.7104 55.395 17.7104C55.5373 17.7104 55.6857 17.6981 55.8403 17.6733C56.0011 17.6424 56.1217 17.6177 56.2021 17.5991L56.2114 19C56.0754 19.0433 55.896 19.0835 55.6733 19.1206C55.4569 19.1639 55.194 19.1855 54.8848 19.1855C54.4642 19.1855 54.0776 19.1021 53.7251 18.9351C53.3726 18.7681 53.0911 18.4897 52.8809 18.1001C52.6768 17.7043 52.5747 17.1724 52.5747 16.5044V6.52197ZM62.3438 19.1855C61.6449 19.1855 61.0109 19.068 60.4419 18.833C59.8791 18.5918 59.3936 18.2547 58.9854 17.8218C58.5833 17.3888 58.2741 16.8755 58.0576 16.2817C57.8411 15.688 57.7329 15.0386 57.7329 14.3335V13.9438C57.7329 13.1274 57.8535 12.4007 58.0947 11.7637C58.3359 11.1204 58.6637 10.5762 59.0781 10.1309C59.4925 9.68555 59.9626 9.34847 60.4883 9.11963C61.014 8.89079 61.5583 8.77637 62.1211 8.77637C62.8385 8.77637 63.457 8.90007 63.9766 9.14746C64.5023 9.39486 64.9321 9.74121 65.2661 10.1865C65.6001 10.6257 65.8475 11.1452 66.0083 11.7451C66.1691 12.3389 66.2495 12.9883 66.2495 13.6934V14.4634H58.7534V13.0625H64.5332V12.9326C64.5085 12.4873 64.4157 12.0544 64.2549 11.6338C64.1003 11.2132 63.8529 10.8669 63.5127 10.5947C63.1725 10.3226 62.7087 10.1865 62.1211 10.1865C61.7314 10.1865 61.3727 10.27 61.0449 10.437C60.7171 10.5978 60.4357 10.839 60.2007 11.1606C59.9657 11.4823 59.7832 11.875 59.6533 12.3389C59.5234 12.8027 59.4585 13.3377 59.4585 13.9438V14.3335C59.4585 14.8097 59.5234 15.2581 59.6533 15.6787C59.7894 16.0931 59.9842 16.458 60.2378 16.7734C60.4976 17.0889 60.8099 17.3363 61.1748 17.5156C61.5459 17.695 61.9665 17.7847 62.4365 17.7847C63.0426 17.7847 63.556 17.661 63.9766 17.4136C64.3971 17.1662 64.7651 16.8353 65.0806 16.4209L66.1196 17.2466C65.9032 17.5744 65.6279 17.8867 65.2939 18.1836C64.96 18.4805 64.5487 18.7217 64.0601 18.9072C63.5776 19.0928 63.0055 19.1855 62.3438 19.1855ZM69.4131 8.96191L71.6118 12.6172L73.8384 8.96191H75.8516L72.5674 13.916L75.9536 19H73.9683L71.6489 15.2334L69.3296 19H67.335L70.7119 13.916L67.437 8.96191H69.4131ZM81.8818 8.96191V10.2793H76.4546V8.96191H81.8818ZM78.2915 6.52197H80.0078V16.5137C80.0078 16.8538 80.0604 17.1105 80.1655 17.2837C80.2707 17.4569 80.4067 17.5713 80.5737 17.627C80.7407 17.6826 80.9201 17.7104 81.1118 17.7104C81.2541 17.7104 81.4025 17.6981 81.5571 17.6733C81.7179 17.6424 81.8385 17.6177 81.9189 17.5991L81.9282 19C81.7922 19.0433 81.6128 19.0835 81.3901 19.1206C81.1737 19.1639 80.9108 19.1855 80.6016 19.1855C80.181 19.1855 79.7944 19.1021 79.4419 18.9351C79.0894 18.7681 78.8079 18.4897 78.5977 18.1001C78.3936 17.7043 78.2915 17.1724 78.2915 16.5044V6.52197Z" fill="#211D1C"/>
<path id="Hint Text" d="M8.75 41.5156V42.7422H2.59375V41.5156H8.75ZM2.82812 36.625V48H1.32031V36.625H2.82812ZM10.0625 36.625V48H8.5625V36.625H10.0625ZM14.0938 39.5469V48H12.6406V39.5469H14.0938ZM12.5312 37.3047C12.5312 37.0703 12.6016 36.8724 12.7422 36.7109C12.888 36.5495 13.1016 36.4688 13.3828 36.4688C13.6589 36.4688 13.8698 36.5495 14.0156 36.7109C14.1667 36.8724 14.2422 37.0703 14.2422 37.3047C14.2422 37.5286 14.1667 37.7214 14.0156 37.8828C13.8698 38.0391 13.6589 38.1172 13.3828 38.1172C13.1016 38.1172 12.888 38.0391 12.7422 37.8828C12.6016 37.7214 12.5312 37.5286 12.5312 37.3047ZM17.8594 41.3516V48H16.4141V39.5469H17.7812L17.8594 41.3516ZM17.5156 43.4531L16.9141 43.4297C16.9193 42.8516 17.0052 42.3177 17.1719 41.8281C17.3385 41.3333 17.5729 40.9036 17.875 40.5391C18.1771 40.1745 18.5365 39.8932 18.9531 39.6953C19.375 39.4922 19.8411 39.3906 20.3516 39.3906C20.7682 39.3906 21.1432 39.4479 21.4766 39.5625C21.8099 39.6719 22.0938 39.849 22.3281 40.0938C22.5677 40.3385 22.75 40.6562 22.875 41.0469C23 41.4323 23.0625 41.9036 23.0625 42.4609V48H21.6094V42.4453C21.6094 42.0026 21.5443 41.6484 21.4141 41.3828C21.2839 41.112 21.0938 40.9167 20.8438 40.7969C20.5938 40.6719 20.2865 40.6094 19.9219 40.6094C19.5625 40.6094 19.2344 40.6849 18.9375 40.8359C18.6458 40.987 18.3932 41.1953 18.1797 41.4609C17.9714 41.7266 17.8073 42.0312 17.6875 42.375C17.5729 42.7135 17.5156 43.0729 17.5156 43.4531ZM28.7969 39.5469V40.6562H24.2266V39.5469H28.7969ZM25.7734 37.4922H27.2188V45.9062C27.2188 46.1927 27.263 46.4089 27.3516 46.5547C27.4401 46.7005 27.5547 46.7969 27.6953 46.8438C27.8359 46.8906 27.987 46.9141 28.1484 46.9141C28.2682 46.9141 28.3932 46.9036 28.5234 46.8828C28.6589 46.8568 28.7604 46.8359 28.8281 46.8203L28.8359 48C28.7214 48.0365 28.5703 48.0703 28.3828 48.1016C28.2005 48.138 27.9792 48.1562 27.7188 48.1562C27.3646 48.1562 27.0391 48.0859 26.7422 47.9453C26.4453 47.8047 26.2083 47.5703 26.0312 47.2422C25.8594 46.9089 25.7734 46.4609 25.7734 45.8984V37.4922ZM38.5703 36.625V48H37.0859V36.625H38.5703ZM42.2266 36.625V37.8594H33.4375V36.625H42.2266ZM46.4219 48.1562C45.8333 48.1562 45.2995 48.0573 44.8203 47.8594C44.3464 47.6562 43.9375 47.3724 43.5938 47.0078C43.2552 46.6432 42.9948 46.2109 42.8125 45.7109C42.6302 45.2109 42.5391 44.6641 42.5391 44.0703V43.7422C42.5391 43.0547 42.6406 42.4427 42.8438 41.9062C43.0469 41.3646 43.3229 40.9062 43.6719 40.5312C44.0208 40.1562 44.4167 39.8724 44.8594 39.6797C45.3021 39.487 45.7604 39.3906 46.2344 39.3906C46.8385 39.3906 47.3594 39.4948 47.7969 39.7031C48.2396 39.9115 48.6016 40.2031 48.8828 40.5781C49.1641 40.9479 49.3724 41.3854 49.5078 41.8906C49.6432 42.3906 49.7109 42.9375 49.7109 43.5312V44.1797H43.3984V43H48.2656V42.8906C48.2448 42.5156 48.1667 42.151 48.0312 41.7969C47.901 41.4427 47.6927 41.151 47.4062 40.9219C47.1198 40.6927 46.7292 40.5781 46.2344 40.5781C45.9062 40.5781 45.6042 40.6484 45.3281 40.7891C45.0521 40.9245 44.8151 41.1276 44.6172 41.3984C44.4193 41.6693 44.2656 42 44.1562 42.3906C44.0469 42.7812 43.9922 43.2318 43.9922 43.7422V44.0703C43.9922 44.4714 44.0469 44.849 44.1562 45.2031C44.2708 45.5521 44.4349 45.8594 44.6484 46.125C44.8672 46.3906 45.1302 46.599 45.4375 46.75C45.75 46.901 46.1042 46.9766 46.5 46.9766C47.0104 46.9766 47.4427 46.8724 47.7969 46.6641C48.151 46.4557 48.4609 46.1771 48.7266 45.8281L49.6016 46.5234C49.4193 46.7995 49.1875 47.0625 48.9062 47.3125C48.625 47.5625 48.2786 47.7656 47.8672 47.9219C47.4609 48.0781 46.9792 48.1562 46.4219 48.1562ZM52.375 39.5469L54.2266 42.625L56.1016 39.5469H57.7969L55.0312 43.7188L57.8828 48H56.2109L54.2578 44.8281L52.3047 48H50.625L53.4688 43.7188L50.7109 39.5469H52.375ZM62.875 39.5469V40.6562H58.3047V39.5469H62.875ZM59.8516 37.4922H61.2969V45.9062C61.2969 46.1927 61.3411 46.4089 61.4297 46.5547C61.5182 46.7005 61.6328 46.7969 61.7734 46.8438C61.9141 46.8906 62.0651 46.9141 62.2266 46.9141C62.3464 46.9141 62.4714 46.9036 62.6016 46.8828C62.737 46.8568 62.8385 46.8359 62.9062 46.8203L62.9141 48C62.7995 48.0365 62.6484 48.0703 62.4609 48.1016C62.2786 48.138 62.0573 48.1562 61.7969 48.1562C61.4427 48.1562 61.1172 48.0859 60.8203 47.9453C60.5234 47.8047 60.2865 47.5703 60.1094 47.2422C59.9375 46.9089 59.8516 46.4609 59.8516 45.8984V37.4922Z" fill="#61615F"/>
<g id="Form Field">
<mask id="path-3-inside-1_464_5209" fill="white">
<path d="M0 71C0 65.4772 4.47715 61 10 61H630C635.523 61 640 65.4772 640 71V150C640 155.523 635.523 160 630 160H10C4.47715 160 0 155.523 0 150V71Z"/>
</mask>
<path d="M0 71C0 65.4772 4.47715 61 10 61H630C635.523 61 640 65.4772 640 71V150C640 155.523 635.523 160 630 160H10C4.47715 160 0 155.523 0 150V71Z" fill="white"/>
<path d="M10 61V63H630V61V59H10V61ZM640 71H638V150H640H642V71H640ZM630 160V158H10V160V162H630V160ZM0 150H2V71H0H-2V150H0ZM10 160V158C5.58172 158 2 154.418 2 150H0H-2C-2 156.627 3.37258 162 10 162V160ZM640 150H638C638 154.418 634.418 158 630 158V160V162C636.627 162 642 156.627 642 150H640ZM630 61V63C634.418 63 638 66.5817 638 71H640H642C642 64.3726 636.627 59 630 59V61ZM10 61V59C3.37258 59 -2 64.3726 -2 71H0H2C2 66.5817 5.58172 63 10 63V61Z" fill="#7F7F7D" mask="url(#path-3-inside-1_464_5209)"/>
<g id="icon">
<rect id="Rectangle 323" x="635.143" y="141" width="1" height="20" transform="rotate(45 635.143 141)" fill="#7F7F7D"/>
<rect id="Rectangle 324" x="635.85" y="144.536" width="1" height="16" transform="rotate(45 635.85 144.536)" fill="#7F7F7D"/>
<rect id="Rectangle 325" x="636.557" y="148.071" width="1" height="12" transform="rotate(45 636.557 148.071)" fill="#7F7F7D"/>
</g>
</g>
</g>
</svg>
